<svg width="278" height="60" viewBox="0 0 278 60" fill="none" xmlns="http://www.w3.org/2000/svg">
<g style="mix-blend-mode:luminosity" opacity="0.7" clip-path="url(#clip0_33_15)">
<path d="M278 50.2362C276.926 50.2397 275.853 50.3338 274.795 50.5174C270.859 50.6862 268.891 48.9089 268.857 44.9606C268.857 39.3363 268.857 33.712 268.857 28.0877C268.857 25.9055 268.857 25.838 266.698 25.9393C265.382 26.0067 264.775 25.6918 265.045 24.297C265.101 23.894 265.101 23.4851 265.045 23.0821C264.966 22.3622 265.18 22.081 265.978 22.0697C268.857 22.0697 268.857 22.0022 268.857 19.1451C268.857 15.5456 268.857 11.9573 268.857 8.3577C268.857 7.58155 268.981 7.23284 269.869 7.23284C270.994 7.34533 272.512 6.7604 273.243 7.44657C273.974 8.13273 273.468 9.69629 273.479 10.8211C273.479 14.1957 273.479 17.5703 273.479 20.9449C273.479 21.631 273.479 22.0697 274.413 22.171C275.201 22.2263 275.957 22.5025 276.596 22.9681C277.234 23.4336 277.729 24.0696 278.023 24.8031V25.928C276.898 25.928 275.773 25.9843 274.649 25.928C273.715 25.8605 273.434 26.1417 273.445 27.0529C273.445 31.9798 273.445 36.9066 273.445 41.8335C273.445 46.4004 273.445 46.4229 277.944 46.4229L278 50.2362Z" fill="#383536"/>
<path d="M29.8918 59.9664H9.25543C8.02246 60.0028 6.79516 59.7853 5.64981 59.3272C4.50445 58.8692 3.4655 58.1804 2.5975 57.3038C1.7295 56.4271 1.051 55.3813 0.604162 54.2313C0.157319 53.0813 -0.0483227 51.8517 1.34567e-05 50.6188C1.34567e-05 36.8356 1.34567e-05 23.0373 1.34567e-05 9.22401C-0.0421139 8.00423 0.16647 6.78877 0.612857 5.65286C1.05924 4.51695 1.73394 3.48475 2.59519 2.62014C3.45643 1.75552 4.48591 1.07689 5.61991 0.62624C6.75391 0.175588 7.96831 -0.0374987 9.18796 0.000167514H50.888C52.1189 -0.03905 53.3447 0.174924 54.4896 0.628838C55.6345 1.08275 56.674 1.76694 57.5438 2.63902C58.4135 3.51111 59.095 4.55252 59.5461 5.69876C59.9971 6.845 60.2081 8.07165 60.1659 9.30276C60.1659 23.071 60.1659 36.8393 60.1659 50.6076C60.2166 51.8502 60.0094 53.0898 59.5571 54.2483C59.1049 55.4067 58.4175 56.4588 57.5383 57.3382C56.6591 58.2176 55.6072 58.9052 54.4491 59.3575C53.2909 59.8099 52.0515 60.0172 50.8092 59.9664H29.8918ZM16.1155 48.2904C16.888 49.6498 18.0682 50.7319 19.4893 51.3837C21.6189 52.2793 23.9367 52.6348 26.2368 52.4186C27.7268 52.4156 29.1966 52.0737 30.535 51.4189C31.8735 50.7642 33.0456 49.8136 33.9628 48.6391C38.6411 43.0148 39.0235 33.3747 35.0874 27.1093C30.6452 20.0564 20.895 20.5513 17.0039 25.467C16.8802 25.6245 16.7452 25.8607 16.4304 25.6807C16.4304 20.1239 16.4304 14.5558 16.4304 8.97654C16.4304 7.85169 16.2054 7.44674 15.0359 7.52548C13.3993 7.63117 11.7575 7.62741 10.1214 7.51423C8.79435 7.42424 8.55818 7.93043 8.55818 9.11153C8.55818 22.7373 8.55818 36.3631 8.55818 49.9889C8.55818 52.6436 8.55818 52.6436 11.2347 52.3736C14.1137 52.0924 15.5644 50.9338 16.1155 48.2904ZM51.6189 37.3567C51.6779 34.4663 51.09 31.5992 49.8983 28.9653C48.7184 26.2585 46.5737 24.0876 43.8817 22.8754C41.1897 21.6632 38.143 21.4964 35.3348 22.4074C33.333 23.0935 33.3443 23.0935 34.6488 24.6571C34.9155 24.9604 35.1633 25.2797 35.391 25.6132C35.504 25.8266 35.6903 25.9919 35.9156 26.0787C36.1409 26.1655 36.3899 26.168 36.6168 26.0857C40.7104 25.332 43.6905 26.9293 45.175 30.8213C46.7776 34.8834 46.7776 39.4027 45.175 43.4647C43.8817 46.8393 41.4751 48.6841 38.2363 48.3129C37.3659 48.1291 36.4601 48.2172 35.6415 48.5652C34.8228 48.9133 34.1308 49.5045 33.6592 50.2589C33.6042 50.3308 33.5399 50.3951 33.468 50.4501C32.8494 50.9001 32.827 51.2938 33.6142 51.575C37.8876 52.9473 42.1386 53.296 45.9847 50.4501C50.2132 47.1093 51.394 42.4186 51.6189 37.3567ZM31.4887 21.8674V11.2488C31.4887 7.40174 31.4887 7.40174 27.6763 7.57047H27.5414C26.9116 7.50298 26.6642 7.7617 26.6642 8.40287C26.6642 12.1711 26.6642 15.9394 26.6642 19.7077C26.6642 20.2476 26.8216 20.5289 27.4176 20.5401C28.8528 20.6918 30.2399 21.144 31.4887 21.8674Z" fill="#A7CD45"/>
<path d="M127.619 44.3758C123.987 50.3713 113.55 49.8539 109.817 43.7121C107.106 39.2127 106.555 29.5614 111.121 24.5895C112.794 22.7573 115.033 21.5396 117.48 21.1317C119.927 20.7238 122.44 21.1492 124.616 22.3398C125.842 23.0978 126.846 24.1646 127.529 25.4332C128.654 22.3735 131.263 21.9348 133.973 21.7436C134.637 21.7436 134.929 21.8899 134.929 22.6323C134.929 31.2599 135.064 39.8988 134.839 48.504C134.659 55.1744 130.251 59.3252 123.199 59.9326C119.275 60.2701 115.462 59.9326 112.145 57.4692C110.28 56.164 109.007 54.1748 108.602 51.9348C108.49 51.3612 108.602 51.1024 109.232 51.1137C111.256 51.1137 113.28 51.1137 115.305 51.1137C115.5 51.0738 115.703 51.113 115.87 51.2226C116.036 51.3322 116.153 51.5034 116.193 51.6986C117.037 54.4995 120.692 55.0732 122.941 54.747C124.18 54.5787 125.32 53.9791 126.162 53.0533C127.003 52.1276 127.491 50.9351 127.54 49.6851C127.754 48.0203 127.619 46.3555 127.619 44.3758ZM115.249 34.7582C115.137 36.4338 115.455 38.11 116.171 39.6289C116.62 40.6957 117.401 41.5898 118.397 42.1792C119.393 42.7686 120.552 43.0221 121.704 42.9022C122.871 42.8307 123.991 42.4201 124.928 41.7207C125.865 41.0214 126.577 40.0637 126.978 38.9652C127.811 36.6182 127.921 34.075 127.293 31.6649C126.517 28.3465 124.594 26.7492 121.524 26.6593C120.185 26.5877 118.863 26.9905 117.792 27.797C116.72 28.6034 115.967 29.7619 115.665 31.0687C115.318 32.2661 115.177 33.5137 115.249 34.7582Z" fill="#EC3439"/>
<path d="M75.1905 24.8147C78.7105 21.2264 82.7365 20.0453 87.2799 21.4402C91.6321 22.7337 93.7913 26.1983 94.9384 30.3153C96.2098 34.721 95.8668 39.436 93.9712 43.6111C90.3725 51.7664 81.1846 51.4852 76.5512 48.2118C75.8955 47.644 75.3204 46.9893 74.8419 46.2658C74.8172 46.9981 74.5796 47.7074 74.1581 48.3068C73.7367 48.9061 73.1497 49.3696 72.469 49.6404C71.1641 50.138 69.7703 50.3601 68.3754 50.2928C67.8356 50.2928 67.6557 50.0341 67.6782 49.5392C67.6782 49.3142 67.6782 49.0892 67.6782 48.8642C67.6782 35.5159 67.6782 22.1601 67.6782 8.79674C67.6782 7.67188 67.9593 7.31192 69.0839 7.37942C70.7021 7.4694 72.324 7.4694 73.9422 7.37942C74.9431 7.37942 75.2467 7.61564 75.2355 8.63926C75.2355 13.4987 75.2355 18.358 75.2355 23.2624L75.1905 24.8147ZM74.7631 35.4897C74.7262 37.4744 75.2026 39.4351 76.1464 41.1814C76.6396 42.2268 77.4291 43.1041 78.4169 43.7041C79.4047 44.3041 80.5471 44.6004 81.7019 44.556C82.7897 44.5583 83.8524 44.2291 84.7484 43.6122C85.6445 42.9952 86.3314 42.1199 86.7176 41.1027C87.4736 39.4926 87.8915 37.7446 87.9457 35.9666C87.9999 34.1886 87.6891 32.4184 87.0325 30.7652C86.1665 28.4368 84.5246 26.7157 81.7356 26.6708C80.4994 26.6227 79.2777 26.9507 78.2317 27.6114C77.1857 28.2721 76.3645 29.2345 75.8765 30.3715C75.1445 31.9786 74.7649 33.7237 74.7631 35.4897Z" fill="#EC3439"/>
<path d="M143.206 46.2318C142.835 49.0102 142.081 49.7076 139.63 49.7526C138.663 49.7526 138.505 49.3926 138.505 48.6277C138.505 42.6997 138.505 36.7605 138.505 30.8325C138.505 23.4534 138.505 16.0856 138.505 8.70648C138.505 7.67161 138.73 7.24416 139.832 7.3679C140.934 7.49163 142.363 6.91795 143.082 7.58162C143.802 8.24529 143.296 9.7076 143.296 10.8212C143.296 15.1294 143.296 19.4489 143.296 23.7683V25.0507L143.656 25.2757C143.692 25.0972 143.748 24.9235 143.825 24.7582C147.502 19.3252 156.521 19.7863 160.401 25.3544C162.046 27.7852 162.97 30.632 163.066 33.5659C163.379 37.3016 162.675 41.0522 161.031 44.4208C159.913 46.7306 158.028 48.5803 155.698 49.6534C153.367 50.7265 150.737 50.9564 148.255 50.3038C147.186 49.9942 146.188 49.4747 145.321 48.7756C144.454 48.0765 143.735 47.2118 143.206 46.2318ZM158.433 34.9832C158.434 33.9334 158.332 32.8861 158.129 31.8561C157.488 27.6941 155.048 25.3319 151.292 25.1069C147.322 24.8932 144.814 26.8392 143.746 31.1024C143.007 33.891 142.865 36.8042 143.33 39.6514C143.534 41.4086 144.34 43.041 145.611 44.2713C146.882 45.5016 148.54 46.2539 150.302 46.4005C153.89 46.6142 156.51 44.5782 157.713 40.63C158.217 38.7946 158.459 36.8975 158.433 34.9944V34.9832Z" fill="#3B3839"/>
<path d="M254.44 37.1767H245.263C244.813 37.1767 244.307 36.9743 244.24 37.8292C244.132 39.4759 244.516 41.1176 245.343 42.5457C246.17 43.9737 247.402 45.1237 248.884 45.8494C250.506 46.5523 252.311 46.713 254.031 46.3077C255.751 45.9024 257.295 44.9526 258.432 43.5997C258.646 43.3185 258.826 43.0035 259.039 42.711C259.455 42.1599 259.332 41.0575 259.995 40.945C261.292 40.7931 262.601 40.7931 263.898 40.945C264.527 40.945 264.235 41.5862 264.134 41.9011C263.642 43.8776 262.629 45.686 261.201 47.1381C259.773 48.5902 257.982 49.6329 256.014 50.1576C253.441 50.8851 250.716 50.8851 248.142 50.1576C243.07 48.7178 240.461 45.062 239.505 40.1239C238.64 35.9895 239.157 31.6853 240.978 27.8741C242.505 24.9062 245.124 22.647 248.283 21.5727C251.443 20.4983 254.896 20.6927 257.915 22.1149C261.671 23.9821 263.29 27.3792 264.134 31.2375C264.471 32.7673 264.516 34.3646 264.73 35.9169C264.876 36.9405 264.584 37.323 263.459 37.2892C260.468 37.1205 257.454 37.1767 254.44 37.1767ZM244.397 35.0395C245.037 34.4358 245.802 33.9815 246.638 33.7092C247.474 33.4369 248.361 33.3534 249.233 33.4647C252.427 33.5209 255.609 33.4647 258.792 33.4647C259.163 33.4647 259.703 33.7459 259.77 32.9473C259.837 31.2525 259.332 29.5845 258.337 28.2114C257.342 26.8384 255.914 25.84 254.282 25.377C248.378 24.0496 243.509 28.729 244.397 35.0395Z" fill="#3B3839"/>
<path d="M183.433 46.0294C182.217 47.457 180.702 48.6 178.996 49.3775C177.29 50.155 175.434 50.5481 173.559 50.5288C168.611 50.5288 164.978 47.6492 164.562 43.3747C164.135 38.1553 166.811 34.612 172.029 33.7684C174.683 33.341 177.371 33.0485 180.037 32.7223C182.286 32.4411 182.904 32.0136 183.219 30.63C183.5 29.7164 183.468 28.7354 183.131 27.8414C182.793 26.9475 182.167 26.1913 181.352 25.6919C180.219 25.0983 178.965 24.7749 177.686 24.747C174.818 24.5558 172.378 25.1295 170.815 27.9079C170.41 28.5663 169.837 29.1051 169.155 29.4689C168.474 29.8326 167.707 30.0082 166.935 29.9776C166.193 29.9776 166.035 29.7302 166.125 29.0215C166.218 27.2751 166.872 25.6054 167.991 24.2614C169.11 22.9174 170.633 21.9711 172.333 21.5637C175.632 20.5556 179.156 20.5556 182.454 21.5637C186.233 22.6885 187.942 25.0845 187.954 29.0327C187.954 34.0609 187.954 39.1565 187.954 44.1396C187.954 46.0406 188.381 46.4793 190.203 46.3218C190.979 46.3218 191.08 46.5131 191.091 47.188C191.148 49.8426 190.788 50.2363 188.122 50.1913C185.288 50.2026 184.276 49.3252 183.433 46.0294ZM183.309 35.5007C181.49 36.1518 179.604 36.597 177.686 36.828C175.707 37.1767 173.638 37.188 171.782 38.0991C169.926 39.0102 169.207 40.5288 169.533 42.8123C169.598 43.7194 169.976 44.5758 170.601 45.2361C171.226 45.8964 172.061 46.3197 172.963 46.4343C174.319 46.6662 175.709 46.6172 177.045 46.2902C178.382 45.9632 179.637 45.3652 180.734 44.5333C181.423 44.0888 182.005 43.4953 182.435 42.7965C182.865 42.0976 183.133 41.3112 183.219 40.4951C183.309 38.8978 183.309 37.2442 183.309 35.5007Z" fill="#3A3738"/>
<path d="M222.108 34.2633C225.616 30.8888 228.855 27.6829 232.105 24.5108C232.969 23.5911 234.071 22.9291 235.288 22.5985C236.036 22.4048 236.827 22.4641 237.537 22.7673C238.954 23.3522 238.999 23.6672 237.897 24.7358C235.378 27.1767 232.893 29.6514 230.34 32.0586C230.182 32.1531 230.048 32.2825 229.949 32.4367C229.849 32.5909 229.786 32.7659 229.764 32.9483C229.742 33.1308 229.763 33.3157 229.823 33.4891C229.884 33.6624 229.984 33.8195 230.115 33.9484C233.489 39.0215 236.694 44.1396 239.966 49.2352L240.787 50.5288H235.254C234.602 50.5288 234.478 50.0001 234.231 49.5952L226.887 37.6717C226.629 37.2555 226.359 36.8393 226.044 36.3556C224.818 37.4804 223.66 38.4928 222.468 39.5164C222.006 39.9101 222.119 40.4051 222.119 40.8775C222.119 43.7122 222.119 46.5018 222.119 49.3815C222.119 50.2026 221.995 50.5063 220.994 50.5063C217.508 50.5063 217.508 50.5063 217.508 47.0417C217.508 34.2746 217.508 21.4962 217.508 8.71778C217.508 7.59292 217.767 7.21047 218.97 7.24422C222.074 7.33421 222.074 7.24422 222.074 10.4163V34.2633H222.108Z" fill="#3A3738"/>
<path d="M203.012 50.5287C200.746 50.5823 198.498 50.1248 196.433 49.1902C193.161 47.6154 191.845 44.8257 191.541 41.3724C191.541 40.8999 191.631 40.7087 192.103 40.7312H193.43C194.229 40.6217 195.04 40.656 195.826 40.8325C196.546 41.1474 196.197 42.1935 196.489 42.8909C196.743 43.5662 197.141 44.1779 197.656 44.683C198.171 45.1882 198.79 45.5748 199.47 45.8156C201.819 46.6612 204.383 46.7008 206.757 45.9281C207.488 45.7104 208.158 45.3253 208.714 44.8032C209.193 44.4193 209.558 43.912 209.77 43.3359C209.982 42.7598 210.033 42.1369 209.917 41.534C209.801 40.9311 209.523 40.3713 209.113 39.9147C208.703 39.458 208.176 39.122 207.589 38.9427C204.945 38.056 202.258 37.3051 199.537 36.693C198.851 36.513 198.143 36.3555 197.468 36.1193C196.195 35.7202 195.056 34.9804 194.173 33.9801C193.291 32.9798 192.699 31.7571 192.462 30.4444C192.224 29.1316 192.35 27.7789 192.826 26.5328C193.302 25.2866 194.11 24.1945 195.162 23.3746C198.952 20.1238 206.644 19.9438 210.569 23.0259C212.142 24.2842 213.237 26.0425 213.673 28.0091C213.876 28.8077 213.561 28.9314 212.908 28.9652C212.056 28.9759 211.212 28.8002 210.435 28.4505C209.658 28.1007 208.967 27.5854 208.41 26.9404C206.217 24.7582 201.066 24.3083 198.514 26.0855C197.991 26.4415 197.579 26.9371 197.325 27.5158C197.07 28.0946 196.983 28.7332 197.074 29.3589C197.134 29.8933 197.357 30.3963 197.713 30.799C198.07 31.2017 198.542 31.4844 199.065 31.6086C201.797 32.6435 204.688 33.1834 207.477 33.9821C208.163 34.1845 208.86 34.3533 209.535 34.6007C215.371 36.7042 216.676 43.3746 212.065 47.6041C209.523 49.9101 206.498 50.6187 203.012 50.5287Z" fill="#3A3738"/>
<path d="M97.7161 35.9171C97.7161 31.6426 97.7161 27.3682 97.7161 23.1049C97.7161 21.8451 98.0872 21.5864 99.223 21.6539C100.887 21.7439 102.597 21.7101 104.216 21.6539C104.992 21.6539 105.341 21.8001 105.341 22.6775C105.341 31.5264 105.341 40.3828 105.341 49.2467C105.341 50.1353 105.026 50.2815 104.216 50.259C102.417 50.259 100.618 50.1915 98.8294 50.259C97.896 50.259 97.7048 49.9441 97.7048 49.1342C97.7386 44.7247 97.7161 40.3153 97.7161 35.9171Z" fill="#EC3439"/>
<path d="M101.551 7.33447C102.496 7.33447 103.44 7.33447 104.374 7.33447C105.105 7.33447 105.285 7.58194 105.262 8.26811C105.262 9.74167 105.262 11.2152 105.262 12.7001C105.262 13.375 105.105 13.6562 104.374 13.6449C102.451 13.6449 100.516 13.6449 98.5933 13.6449C98.0085 13.6449 97.6824 13.5437 97.7049 12.8463C97.7049 11.2827 97.7049 9.70793 97.7049 8.14437C97.7049 7.44696 98.0085 7.32322 98.5933 7.34572C99.583 7.35697 100.561 7.33447 101.551 7.33447Z" fill="#EC3439"/>
<path d="M16.3066 37.3119C16.5203 34.4998 16.9139 31.7551 19.0619 29.6516C19.7021 28.9674 20.4955 28.4447 21.3767 28.1265C22.258 27.8084 23.2022 27.7037 24.1318 27.8212C25.0613 27.9386 25.9498 28.2748 26.7243 28.8022C27.4988 29.3297 28.1372 30.0332 28.5872 30.8552C30.7577 34.466 30.4878 40.9789 28.0362 44.3535C27.5241 44.9765 26.8928 45.491 26.1795 45.8669C25.4661 46.2428 24.6849 46.4726 23.8816 46.5428C23.0784 46.613 22.2692 46.5221 21.5014 46.2756C20.7337 46.0291 20.0229 45.6319 19.4105 45.1072C17.1051 43.0149 16.5203 40.2478 16.3066 37.3119Z" fill="#A7CD45"/>
<path d="M16.0255 48.1781C15.4632 50.8215 14.0125 51.9801 11.1673 52.2613C8.49072 52.5313 8.49072 52.5313 8.49072 49.8766C8.49072 36.2508 8.49072 22.625 8.49072 8.99922C8.49072 7.87436 8.72689 7.31193 10.0314 7.40192C11.6902 7.51439 13.3546 7.51439 15.0134 7.40192C16.138 7.32318 16.4191 7.77312 16.4079 8.85299C16.4079 14.4773 16.4079 20.0003 16.4079 25.5571C16.734 25.7371 16.8577 25.5571 16.9814 25.3434C20.8725 20.4278 30.634 19.9328 35.0762 26.9857C39.0122 33.2512 38.6299 42.8462 33.9516 48.5155C33.0344 49.69 31.8623 50.6406 30.5238 51.2954C29.1853 51.9502 27.7156 52.292 26.2256 52.2951C23.9255 52.5127 21.6073 52.1571 19.478 51.2602C18.0274 50.6284 16.8173 49.5482 16.0255 48.1781ZM15.7444 37.1207C15.958 40.0566 16.5541 42.8237 18.8482 44.916C19.4593 45.4436 20.1698 45.8433 20.9379 46.0916C21.706 46.3398 22.5161 46.4315 23.3202 46.3612C24.1243 46.291 24.9062 46.0602 25.6197 45.6825C26.3331 45.3048 26.9636 44.7879 27.4739 44.1623C29.9255 40.7877 30.1954 34.2861 28.0249 30.664C27.5749 29.842 26.9365 29.1385 26.162 28.611C25.3875 28.0836 24.499 27.7474 23.5695 27.63C22.6399 27.5125 21.6958 27.6172 20.8145 27.9353C19.9332 28.2535 19.1399 28.7762 18.4996 29.4604C16.3966 31.5864 16.003 34.3311 15.7444 37.1207Z" fill="#EC3337"/>
<path d="M51.5177 37.3792C51.3041 42.4299 50.112 47.1318 45.8947 50.3601C42.0936 53.251 37.8314 52.9023 33.5242 51.485C32.7482 51.2375 32.7707 50.8438 33.378 50.3601C33.4519 50.312 33.5166 50.251 33.5692 50.1801C34.0381 49.4225 34.7293 48.8281 35.5484 48.4778C36.3675 48.1275 37.2747 48.0385 38.1463 48.2229C41.3964 48.6053 43.7693 46.7493 45.0963 43.3747C46.6937 39.3156 46.6937 34.8017 45.0963 30.7426C43.6006 26.8505 40.5979 25.242 36.5269 25.9957C36.3027 26.0759 36.0572 26.0735 35.8346 25.9889C35.612 25.9044 35.4268 25.7433 35.3123 25.5345C35.08 25.2014 34.8284 24.8821 34.5588 24.5783C33.2543 23.026 33.2543 23.026 35.2561 22.3286C38.064 21.4163 41.1112 21.5839 43.8022 22.7986C46.4932 24.0134 48.6347 26.1881 49.8083 28.8978C51.0185 31.5572 51.6032 34.4586 51.5177 37.3792Z" fill="#383635"/>
<path d="M31.4212 21.8786C30.1753 21.1469 28.7872 20.6905 27.3502 20.54C26.7542 20.54 26.5967 20.2363 26.5967 19.6964C26.5967 15.9469 26.5967 12.1973 26.5967 8.4478C26.5967 7.79538 26.8441 7.53667 27.4626 7.60416H27.5976C31.4212 7.43543 31.4212 7.43543 31.4212 11.2824V21.8786Z" fill="#383635"/>
</g>
<defs>
<clipPath id="clip0_33_15">
<rect width="278" height="60" fill="white"/>
</clipPath>
</defs>
</svg>
