<svg width="35" height="35" viewBox="0 0 35 35" fill="none" xmlns="http://www.w3.org/2000/svg">
<circle cx="17.5" cy="17.5" r="17.5" fill="#87C332"/>
<g clip-path="url(#clip0_73_5014)">
<path d="M23.2257 20.1504C22.8572 19.7667 22.4127 19.5615 21.9416 19.5615C21.4743 19.5615 21.026 19.7629 20.6423 20.1466L19.4418 21.3432C19.3431 21.2901 19.2443 21.2407 19.1493 21.1913C19.0126 21.1229 18.8834 21.0583 18.7732 20.9899C17.6487 20.2757 16.6268 19.345 15.6466 18.1407C15.1717 17.5404 14.8526 17.0352 14.6209 16.5223C14.9324 16.2374 15.2211 15.941 15.5023 15.6561C15.6086 15.5497 15.715 15.4396 15.8214 15.3332C16.6192 14.5354 16.6192 13.5021 15.8214 12.7043L14.7842 11.6671C14.6665 11.5494 14.5449 11.4278 14.4309 11.3062C14.203 11.0707 13.9636 10.8276 13.7167 10.5996C13.3482 10.2349 12.9075 10.0412 12.444 10.0412C11.9806 10.0412 11.5323 10.2349 11.1524 10.5996L11.1448 10.6072L9.8531 11.9103C9.36683 12.3965 9.0895 12.9892 9.02872 13.6768C8.93754 14.7861 9.26426 15.8195 9.51499 16.4957C10.1304 18.1559 11.0498 19.6945 12.4212 21.3432C14.0852 23.3301 16.0873 24.8991 18.3743 26.0046C19.2481 26.4187 20.4144 26.9088 21.7175 26.9924C21.7972 26.9962 21.8808 27 21.9568 27C22.8344 27 23.5714 26.6847 24.1488 26.0578C24.1526 26.0502 24.1602 26.0464 24.164 26.0388C24.3616 25.7995 24.5895 25.583 24.8289 25.3512C24.9922 25.1955 25.1594 25.0321 25.3227 24.8611C25.6988 24.4698 25.8964 24.014 25.8964 23.5467C25.8964 23.0756 25.695 22.6235 25.3113 22.2436L23.2257 20.1504ZM24.5857 24.1507C24.5819 24.1507 24.5819 24.1545 24.5857 24.1507C24.4376 24.3103 24.2856 24.4546 24.1222 24.6142C23.8753 24.8497 23.6246 25.0967 23.389 25.374C23.0053 25.7843 22.5532 25.9781 21.9606 25.9781C21.9036 25.9781 21.8428 25.9781 21.7858 25.9743C20.6575 25.9021 19.609 25.4614 18.8226 25.0853C16.6724 24.0444 14.7842 22.5665 13.2152 20.6936C11.9198 19.1322 11.0536 17.6886 10.4799 16.1386C10.1266 15.1926 9.99747 14.4556 10.0545 13.7604C10.0924 13.3159 10.2634 12.9474 10.5787 12.6321L11.8742 11.3366C12.0603 11.1619 12.2579 11.0669 12.4516 11.0669C12.691 11.0669 12.8847 11.2113 13.0063 11.3328L13.0177 11.3442C13.2494 11.5608 13.4698 11.7849 13.7015 12.0242C13.8193 12.1458 13.9409 12.2674 14.0624 12.3927L15.0996 13.4299C15.5023 13.8326 15.5023 14.2049 15.0996 14.6076C14.9894 14.7178 14.883 14.8279 14.7728 14.9343C14.4537 15.261 14.1498 15.5649 13.8193 15.8613C13.8117 15.8689 13.8041 15.8727 13.8003 15.8803C13.4736 16.207 13.5344 16.5261 13.6027 16.7426L13.6141 16.7768C13.8839 17.4303 14.2638 18.0457 14.8412 18.7789L14.845 18.7827C15.8936 20.0744 16.9991 21.0811 18.2186 21.8523C18.3743 21.9511 18.5339 22.0309 18.6858 22.1069C18.8226 22.1752 18.9518 22.2398 19.0619 22.3082C19.0771 22.3158 19.0923 22.3272 19.1075 22.3348C19.2367 22.3994 19.3583 22.4298 19.4836 22.4298C19.7989 22.4298 19.9965 22.2322 20.0611 22.1676L21.3603 20.8684C21.4895 20.7392 21.6947 20.5834 21.934 20.5834C22.1695 20.5834 22.3633 20.7316 22.4811 20.8608L22.4887 20.8684L24.5819 22.9616C24.9732 23.3491 24.9732 23.748 24.5857 24.1507ZM18.7276 13.2817C19.723 13.4489 20.6271 13.92 21.349 14.6418C22.0708 15.3636 22.538 16.2678 22.709 17.2631C22.7508 17.5138 22.9673 17.6886 23.2143 17.6886C23.2447 17.6886 23.2713 17.6848 23.3016 17.681C23.5828 17.6354 23.7689 17.3695 23.7233 17.0883C23.5182 15.8841 22.9483 14.7861 22.0784 13.9162C21.2084 13.0462 20.1105 12.4763 18.9062 12.2712C18.6251 12.2256 18.3629 12.4117 18.3135 12.6891C18.2641 12.9664 18.4465 13.2361 18.7276 13.2817ZM26.9791 16.9402C26.641 14.9571 25.7064 13.1526 24.2704 11.7165C22.8344 10.2805 21.0298 9.34593 19.0467 9.00782C18.7694 8.95843 18.5073 9.14838 18.4579 9.42571C18.4123 9.70684 18.5985 9.96897 18.8796 10.0184C20.6499 10.3185 22.2645 11.1581 23.5486 12.4383C24.8327 13.7224 25.6684 15.337 25.9686 17.1073C26.0104 17.3581 26.2269 17.5328 26.4738 17.5328C26.5042 17.5328 26.5308 17.529 26.5612 17.5252C26.8385 17.4834 27.0285 17.2175 26.9791 16.9402Z" fill="white"/>
</g>
<defs>
<clipPath id="clip0_73_5014">
<rect width="18" height="18" fill="white" transform="translate(9 9)"/>
</clipPath>
</defs>
</svg>
