<svg width="482" height="520" viewBox="0 0 482 520" fill="none" xmlns="http://www.w3.org/2000/svg">
<g filter="url(#filter0_d_280_2309)">
<circle cx="192.5" cy="319.5" r="187.5" fill="#D5F9F9"/>
</g>
<mask id="mask0_280_2309" style="mask-type:alpha" maskUnits="userSpaceOnUse" x="20" y="0" width="350" height="511">
<ellipse cx="195" cy="255.5" rx="175" ry="255.5" fill="#D5F9F9"/>
</mask>
<g mask="url(#mask0_280_2309)">
<path d="M162.438 124.246L159.298 154.182C159.298 154.182 179.527 184.469 174.277 199.503C174.277 199.503 196.231 195.406 198.228 181.845C200.222 168.283 191.899 149.387 191.899 149.387L162.438 124.246Z" fill="#262642"/>
<path d="M241.987 310.41L259.147 244.412C259.147 244.412 297.534 343.551 297.995 353.062C298.457 362.574 267.859 444.024 267.859 444.024L255.408 403.7C255.408 403.7 267.737 359.547 267.023 356.788C266.309 354.029 251.001 321.875 251.001 321.875L241.987 310.41Z" fill="#222933"/>
<path d="M145.273 477.362L142.753 519.102H272.1L263.333 455.755L209.399 420.584L145.273 477.362Z" fill="#20252D"/>
<path d="M259.147 244.531C259.147 244.531 234.842 228.206 231.261 227.218C212.049 221.927 162.438 226.965 162.438 226.965C162.438 226.965 130.437 246.199 124.554 253.67C118.672 261.141 45.144 372.333 48.0859 382.891C51.0263 393.449 121.614 467.023 121.614 467.023L142.223 453.311C141.657 466.974 141.229 477.472 141.229 477.472L220.936 475.32L231.261 457.975C231.261 457.975 237.775 474.567 239.621 475.32C241.468 476.075 271.196 468.318 271.196 468.318C271.196 468.318 259.839 387.085 259.839 380.297C259.839 377.875 263.514 346.766 263.333 312.018C263.168 280.278 259.147 244.531 259.147 244.531ZM93.6703 373.087C94.4058 369.317 137.278 333.539 137.278 333.539C137.278 333.539 145.389 381.46 144.808 392.773C144.51 398.589 143.572 420.812 142.731 441.035C128.284 422.246 93.0862 376.086 93.6703 373.087Z" fill="#2D333F"/>
<path d="M143.065 433.035L159.678 455.754L148.817 448.922L142.753 440.508L143.065 433.035Z" fill="#20252D"/>
<path d="M176.956 219.982L171.081 222.578L162.438 226.964L169.697 281.198L190.109 290.864L183.4 310.194L226.097 362.818L251.003 305.898L238.798 287.249L251.003 273.679L228.042 220.388L176.956 219.982Z" fill="#454E60"/>
<path d="M231.01 294.929C231.922 271.253 231.648 248.211 228.042 238.665C219.36 215.686 187.344 246.293 187.344 246.293C187.344 246.293 198.839 268.525 209.346 296.49L231.01 294.929Z" fill="#C9C9C9"/>
<path d="M221.361 256.32L211.905 257.607C211.602 264.788 210.473 281.06 209.345 296.492C217.313 317.7 224.713 342.205 226.097 362.818C226.097 362.818 229.727 328.246 231.009 294.931C226.545 274.45 221.361 256.32 221.361 256.32Z" fill="#C44141"/>
<path d="M202.743 241.999L211.907 257.607L221.361 256.32L223.18 238.666H214.172L202.743 241.999Z" fill="#993030"/>
<path d="M214.172 238.667C214.172 238.667 197.334 246.298 187.344 265.543C187.344 265.543 168.043 230.609 171.081 222.581C177.103 206.665 190.14 208.783 206.137 206.906C222.134 205.03 227.395 218.774 231.259 227.218C235.124 235.662 237.528 254.769 237.528 254.769C237.528 254.769 224.504 239.467 214.172 238.667Z" fill="white"/>
<path d="M228.042 195.64C227.027 196.334 213.673 208.826 217.555 218.888C221.438 228.951 214.173 238.666 214.173 238.666C214.173 238.666 182.036 229.645 181.698 214.898C181.698 214.898 188.15 201.1 183.402 186.573C178.652 172.045 228.042 195.64 228.042 195.64Z" fill="#E09E63"/>
<path d="M168.703 76.7479C168.703 76.7479 150.225 78.5087 145.92 103.109C141.616 127.709 160.21 155.629 160.21 155.629L225.865 160.409L255.62 141.901C255.62 141.901 279.367 113.201 260.918 83.1269L273.525 81.6609C273.525 81.6609 243.069 48.3092 206.479 51.1746C168.285 54.1668 168.703 76.7479 168.703 76.7479Z" fill="#303054"/>
<path d="M255.62 141.901C255.62 141.901 259.833 136.791 263.333 128.644C260.683 120.86 255.016 119.07 255.016 119.07L248.413 143.836L194.471 136.138C194.471 136.138 178.972 144.939 173.708 131.721C165.853 111.995 164 105.704 164 105.704C156.77 111.431 153.193 127.304 153.193 127.304C149.065 117.076 148.437 94.1777 148.437 94.1777C147.388 96.7611 146.515 99.7089 145.92 103.108C141.616 127.709 160.21 155.629 160.21 155.629L225.865 160.409L255.62 141.901Z" fill="#262642"/>
<path d="M255.016 119.071C256.851 137.89 253.28 207.008 222.06 209.379C180.284 212.551 174.209 173.126 174.209 173.126C157.948 173.497 145.369 147.28 156.225 142.826C167.081 138.371 172.509 156.561 172.509 156.561C172.509 156.561 169.613 135.774 175.404 128.723C181.194 121.67 181.194 110.164 181.194 110.164C181.194 110.164 213.401 126.867 239.456 120.187C239.456 120.187 232.719 116.104 225.343 110.164C225.343 110.164 247.778 114.245 255.016 119.071Z" fill="#FFBD7B"/>
<path d="M202.742 145.084C202.742 148.102 200.891 150.547 198.608 150.547C196.324 150.547 194.473 148.102 194.473 145.084C194.473 142.067 196.324 139.621 198.608 139.621C200.891 139.621 202.742 142.068 202.742 145.084Z" fill="#1B152B"/>
<path d="M242.764 144.009C242.645 147.023 240.7 149.391 238.418 149.296C236.136 149.201 234.382 146.681 234.501 143.665C234.62 140.65 236.565 138.283 238.848 138.378C241.13 138.474 242.883 140.994 242.764 144.009Z" fill="#1B152B"/>
<path d="M159.298 149.391C159.298 149.391 164.338 149.774 167.512 156.028C170.686 162.282 166.766 164.835 164.525 163.431C162.285 162.027 161.477 157.814 164.463 157.24C164.463 157.24 162.906 150.858 159.298 149.391Z" fill="#E09E63"/>
<path d="M197.728 193.658C185.438 187.116 174.86 177.428 167.136 165.641L163.999 160.855L165.282 159.971L168.418 164.757C175.997 176.323 186.379 185.831 198.44 192.251L197.728 193.658Z" fill="#464675"/>
<path d="M201.671 193.045C201.671 194.782 200.299 196.189 198.606 196.189C196.912 196.189 195.54 194.782 195.54 193.045C195.54 191.308 196.912 189.9 198.606 189.9C200.299 189.9 201.671 191.308 201.671 193.045Z" fill="#464675"/>
<path d="M165.165 164.424C167.621 164.424 169.613 162.382 169.613 159.862C169.613 157.342 167.621 155.299 165.165 155.299C162.708 155.299 160.716 157.342 160.716 159.862C160.716 162.382 162.708 164.424 165.165 164.424Z" fill="#262642"/>
<path d="M168.448 159.862C168.448 162.382 166.456 164.424 163.999 164.424C161.543 164.424 159.551 162.382 159.551 159.862C159.551 157.342 161.543 155.299 163.999 155.299C166.456 155.299 168.448 157.342 168.448 159.862Z" fill="#464675"/>
<path d="M166.855 159.864C166.855 161.482 165.577 162.793 163.999 162.793C162.422 162.793 161.144 161.482 161.144 159.864C161.144 158.248 162.422 156.936 163.999 156.936C165.577 156.936 166.855 158.248 166.855 159.864Z" fill="#262642"/>
<path d="M228.779 155.627C228.779 155.627 234.519 169.269 223.18 169.987C223.18 169.987 233.461 170.832 232.761 165.518C232.061 160.206 228.779 155.627 228.779 155.627Z" fill="#E09E63"/>
<path d="M233.324 177.229L230.586 179.862L212.155 180.209L205.242 177.293C203.461 177.022 202.396 176.812 202.396 176.812C202.396 176.812 205.426 199.646 219.006 199.503C232.586 199.359 234.847 176.812 234.847 176.812C234.349 176.965 233.84 177.101 233.324 177.229Z" fill="#351E1E"/>
<path d="M188.226 137.886C188.226 137.886 198.259 122.971 208.293 131.174V134.455C208.293 134.455 198.259 130.28 188.226 137.886Z" fill="#303054"/>
<path d="M251.181 136.136C251.181 136.136 241.987 121.776 232.795 129.675V132.833C232.795 132.833 241.987 128.813 251.181 136.136Z" fill="#303054"/>
<path d="M209.399 185.297C207.755 185.297 206.139 185.365 204.555 185.489C206.798 191.93 211.123 199.586 219.005 199.502C225.168 199.437 228.996 194.755 231.343 189.662C225.365 186.936 217.726 185.297 209.399 185.297Z" fill="#A83F3F"/>
<path d="M204.555 161.909C204.555 164.005 201.721 165.706 198.226 165.706C194.731 165.706 191.897 164.005 191.897 161.909C191.897 159.812 194.731 158.111 198.226 158.111C201.721 158.111 204.555 159.81 204.555 161.909Z" fill="#FFCFA4"/>
<path d="M249.807 161.909C249.807 164.005 246.973 165.706 243.478 165.706C239.983 165.706 237.149 164.005 237.149 161.909C237.149 159.812 239.983 158.111 243.478 158.111C246.973 158.11 249.807 159.81 249.807 161.909Z" fill="#FFCFA4"/>
<path d="M137.278 333.541L152.339 318.496L141.996 364.05L137.278 333.541Z" fill="#20252D"/>
<path d="M148.818 448.922C148.818 448.922 175.134 464.675 176.794 469.601C178.612 474.999 181.678 499.66 179.167 500.958C176.245 502.468 174.184 498.964 174.184 498.964C174.184 498.964 173.914 505.123 171.801 505.123C169.689 505.123 168.351 501.58 168.351 501.58C168.351 501.58 167.599 507.99 165.222 507.99C162.846 507.99 162.245 503.71 162.245 503.71C162.245 503.71 161.829 509.857 158.504 509.738C155.661 509.635 153.087 491.924 150.71 489.215C148.334 486.507 132.673 479.413 130.03 475.891C127.39 472.37 125.452 464.469 125.452 464.469L148.818 448.922Z" fill="#FFBD7B"/>
<path d="M205.242 177.293L205.819 180.362C217.14 184.817 232.234 180.909 232.234 180.909L233.325 177.229C223.662 179.628 210.856 178.148 205.242 177.293Z" fill="#EEFDFF"/>
<path d="M226.097 362.82L231.259 457.975C231.259 457.975 224.832 468.774 226.097 466.648C227.362 464.521 226.097 362.82 226.097 362.82Z" fill="#20252D"/>
<path d="M174.185 498.967C174.185 498.967 172.676 478.504 171.98 476.838C171.285 475.172 170.279 472.635 170.279 472.635C170.279 472.635 172.716 476.045 173.082 478.266C173.448 480.486 174.185 498.967 174.185 498.967Z" fill="#EFAC73"/>
<path d="M168.351 501.585C168.351 501.585 168.212 484.59 167.285 482.053C166.356 479.515 163.476 476.758 163.476 476.758C163.476 476.758 168.351 482.547 168.351 501.585Z" fill="#EFAC73"/>
<path d="M162.244 503.71C162.244 503.71 161.001 487.384 160.151 485.796C159.301 484.208 155.59 482.463 155.59 482.463C155.59 482.463 158.76 485.794 159.301 487.141C159.842 488.492 162.244 503.71 162.244 503.71Z" fill="#EFAC73"/>
</g>
<path d="M299 132C333.958 148.923 404.29 208.879 405.96 313.319C407.63 417.758 356.567 470.623 330.827 484" stroke="#87C332"/>
<circle cx="393" cy="152" r="32" fill="#87C332" fill-opacity="0.72"/>
<circle cx="450" cy="298" r="32" fill="#87C332" fill-opacity="0.72"/>
<circle cx="415" cy="452" r="32" fill="#87C332" fill-opacity="0.72"/>
<path d="M399.667 135.334H386.333C379.667 135.334 376.333 138.667 376.333 145.334V167.001C376.333 167.917 377.083 168.667 378 168.667H399.667C406.333 168.667 409.667 165.334 409.667 158.667V145.334C409.667 138.667 406.333 135.334 399.667 135.334Z" stroke="#D5F9F9" stroke-width="1.5" stroke-linecap="round" stroke-linejoin="round"/>
<path d="M384.667 147.834H401.333" stroke="#D5F9F9" stroke-width="1.5" stroke-miterlimit="10" stroke-linecap="round" stroke-linejoin="round"/>
<path d="M384.667 156.168H396.333" stroke="#D5F9F9" stroke-width="1.5" stroke-miterlimit="10" stroke-linecap="round" stroke-linejoin="round"/>
<path d="M466.617 308.551C466.617 309.151 466.483 309.767 466.2 310.367C465.917 310.967 465.55 311.534 465.067 312.067C464.25 312.967 463.35 313.617 462.333 314.034C461.333 314.451 460.25 314.667 459.083 314.667C457.383 314.667 455.567 314.267 453.65 313.451C451.733 312.634 449.817 311.534 447.917 310.151C446 308.751 444.183 307.201 442.45 305.484C440.733 303.751 439.183 301.934 437.8 300.034C436.433 298.134 435.333 296.234 434.533 294.351C433.733 292.451 433.333 290.634 433.333 288.901C433.333 287.767 433.533 286.684 433.933 285.684C434.333 284.667 434.967 283.734 435.85 282.901C436.917 281.851 438.083 281.334 439.317 281.334C439.783 281.334 440.25 281.434 440.667 281.634C441.1 281.834 441.483 282.134 441.783 282.567L445.65 288.017C445.95 288.434 446.167 288.817 446.317 289.184C446.467 289.534 446.55 289.884 446.55 290.201C446.55 290.601 446.433 291.001 446.2 291.384C445.983 291.767 445.667 292.167 445.267 292.567L444 293.884C443.817 294.067 443.733 294.284 443.733 294.551C443.733 294.684 443.75 294.801 443.783 294.934C443.833 295.067 443.883 295.167 443.917 295.267C444.217 295.817 444.733 296.534 445.467 297.401C446.217 298.267 447.017 299.151 447.883 300.034C448.783 300.917 449.65 301.734 450.533 302.484C451.4 303.217 452.117 303.717 452.683 304.017C452.767 304.051 452.867 304.101 452.983 304.151C453.117 304.201 453.25 304.217 453.4 304.217C453.683 304.217 453.9 304.117 454.083 303.934L455.35 302.684C455.767 302.267 456.167 301.951 456.55 301.751C456.933 301.517 457.317 301.401 457.733 301.401C458.05 301.401 458.383 301.467 458.75 301.617C459.117 301.767 459.5 301.984 459.917 302.267L465.433 306.184C465.867 306.484 466.167 306.834 466.35 307.251C466.517 307.667 466.617 308.084 466.617 308.551Z" stroke="#D5F9F9" stroke-width="1.5" stroke-miterlimit="10"/>
<path d="M398 468C397.2 468 396.5 467.7 395.9 467.1C395.3 466.5 395 465.8 395 465V439C395 438.2 395.3 437.5 395.9 436.9C396.5 436.3 397.2 436 398 436H432C432.8 436 433.5 436.3 434.1 436.9C434.7 437.5 435 438.2 435 439V465C435 465.8 434.7 466.5 434.1 467.1C433.5 467.7 432.8 468 432 468H398ZM415 452.9L398 441.75V465H432V441.75L415 452.9ZM415 449.9L431.8 439H398.25L415 449.9ZM398 441.75V439V465V441.75Z" fill="#D5F9F9"/>
<defs>
<filter id="filter0_d_280_2309" x="0" y="132" width="385" height="385" filterUnits="userSpaceOnUse" color-interpolation-filters="sRGB">
<feFlood flood-opacity="0" result="BackgroundImageFix"/>
<feColorMatrix in="SourceAlpha" type="matrix" values="0 0 0 0 0 0 0 0 0 0 0 0 0 0 0 0 0 0 127 0" result="hardAlpha"/>
<feOffset dy="5"/>
<feGaussianBlur stdDeviation="2.5"/>
<feComposite in2="hardAlpha" operator="out"/>
<feColorMatrix type="matrix" values="0 0 0 0 0 0 0 0 0 0 0 0 0 0 0 0 0 0 0.15 0"/>
<feBlend mode="normal" in2="BackgroundImageFix" result="effect1_dropShadow_280_2309"/>
<feBlend mode="normal" in="SourceGraphic" in2="effect1_dropShadow_280_2309" result="shape"/>
</filter>
</defs>
</svg>
