<svg width="82" height="82" viewBox="0 0 82 82" fill="none" xmlns="http://www.w3.org/2000/svg">
<g filter="url(#filter0_d_65_2198)">
<circle cx="41" cy="41" r="29" fill="white"/>
</g>
<path d="M59.2188 49.0625C58.887 48.4892 58.3417 48.0707 57.7022 47.8985C57.0627 47.7264 56.3809 47.8145 55.8062 48.1438L49.7125 51.6625C49.3797 51.1639 48.8782 50.8021 48.3 50.6438L38.975 48.15C38.2574 47.9563 37.5021 47.9499 36.7812 48.1312L33.5 48.95V47.875C33.5 47.7092 33.4342 47.5503 33.3169 47.4331C33.1997 47.3158 33.0408 47.25 32.875 47.25H27.875C27.7092 47.25 27.5503 47.3158 27.4331 47.4331C27.3158 47.5503 27.25 47.7092 27.25 47.875V48.5H22.875C22.7092 48.5 22.5503 48.5658 22.4331 48.6831C22.3158 48.8003 22.25 48.9592 22.25 49.125V57.875C22.25 58.0408 22.3158 58.1997 22.4331 58.3169C22.5503 58.4342 22.7092 58.5 22.875 58.5H27.25V59.125C27.25 59.2908 27.3158 59.4497 27.4331 59.5669C27.5503 59.6842 27.7092 59.75 27.875 59.75H32.875C33.0408 59.75 33.1997 59.6842 33.3169 59.5669C33.4342 59.4497 33.5 59.2908 33.5 59.125V58.2625L34.3063 58.6625C34.9141 58.9651 35.5835 59.1233 36.2625 59.125H45.6187C46.3871 59.1267 47.1421 58.9239 47.8062 58.5375L58.3062 52.475C58.8782 52.142 59.2952 51.5963 59.4661 50.9569C59.6371 50.3175 59.5482 49.6365 59.2188 49.0625ZM27.25 57.25H23.5V49.75H27.25V57.25ZM32.25 58.5H28.5V48.5H32.25V58.5ZM57.6812 51.3938L47.1812 57.4563C46.7064 57.731 46.1674 57.8755 45.6187 57.875H36.2625C35.7763 57.876 35.2967 57.7625 34.8625 57.5438L33.5 56.8625V50.2375L37.0812 49.3437C37.5966 49.2135 38.1368 49.2178 38.65 49.3562L47.975 51.8562C48.2149 51.9185 48.4307 52.0511 48.5949 52.2368C48.759 52.4226 48.8638 52.6531 48.8961 52.8989C48.9283 53.1446 48.8864 53.3944 48.7758 53.6162C48.6651 53.838 48.4907 54.0217 48.275 54.1437C48.1341 54.2268 47.978 54.2807 47.8158 54.3022C47.6537 54.3237 47.4889 54.3123 47.3313 54.2687L39.875 52.2687C39.7142 52.2257 39.5429 52.2482 39.3987 52.3314C39.2546 52.4146 39.1493 52.5517 39.1062 52.7125C39.0632 52.8733 39.0857 53.0446 39.1689 53.1888C39.2521 53.3329 39.3892 53.4382 39.55 53.4813L47.0063 55.475C47.2182 55.5321 47.4367 55.5615 47.6562 55.5625C48.0935 55.5631 48.523 55.4466 48.9 55.225C49.1857 55.0618 49.4361 54.8436 49.6367 54.5829C49.8373 54.3221 49.9842 54.0242 50.0687 53.7063C50.1381 53.4307 50.1613 53.1456 50.1375 52.8625L56.4312 49.2312C56.7184 49.0718 57.0563 49.0303 57.3736 49.1155C57.6908 49.2006 57.9625 49.4057 58.1312 49.6875C58.2972 49.9736 58.3431 50.3138 58.2587 50.6336C58.1744 50.9534 57.9667 51.2267 57.6812 51.3938Z" fill="#87C332"/>
<path d="M30.375 57.875C30.5408 57.875 30.6997 57.8092 30.8169 57.6919C30.9342 57.5747 31 57.4158 31 57.25V56.625C31 56.4592 30.9342 56.3003 30.8169 56.1831C30.6997 56.0658 30.5408 56 30.375 56C30.2092 56 30.0503 56.0658 29.9331 56.1831C29.8158 56.3003 29.75 56.4592 29.75 56.625V57.25C29.75 57.4158 29.8158 57.5747 29.9331 57.6919C30.0503 57.8092 30.2092 57.875 30.375 57.875ZM49.75 31.625H47.4062L47.2938 31.3625L48.9562 29.7063C49.0733 29.5882 49.1391 29.4287 49.1391 29.2625C49.1391 29.0963 49.0733 28.9368 48.9562 28.8188L46.3063 26.1688C46.1882 26.0517 46.0287 25.9859 45.8625 25.9859C45.6963 25.9859 45.5368 26.0517 45.4187 26.1688L43.7625 27.8313L43.5 27.7188V25.375C43.5 25.2092 43.4342 25.0503 43.3169 24.9331C43.1997 24.8158 43.0408 24.75 42.875 24.75H39.125C38.9592 24.75 38.8003 24.8158 38.6831 24.9331C38.5658 25.0503 38.5 25.2092 38.5 25.375V27.7188L38.2375 27.8313L36.5813 26.1688C36.4632 26.0517 36.3037 25.9859 36.1375 25.9859C35.9713 25.9859 35.8118 26.0517 35.6938 26.1688L33.0438 28.8188C32.9267 28.9368 32.8609 29.0963 32.8609 29.2625C32.8609 29.4287 32.9267 29.5882 33.0438 29.7063L34.7063 31.3625L34.5938 31.625H32.25C32.0842 31.625 31.9253 31.6908 31.8081 31.8081C31.6908 31.9253 31.625 32.0842 31.625 32.25V36C31.625 36.1658 31.6908 36.3247 31.8081 36.4419C31.9253 36.5592 32.0842 36.625 32.25 36.625H34.5938L34.7063 36.8875L33.0438 38.5437C32.9286 38.6629 32.8637 38.8218 32.8625 38.9875C32.8649 39.153 32.9296 39.3114 33.0438 39.4312L35.6938 42.0812C35.8129 42.1964 35.9718 42.2613 36.1375 42.2625C36.303 42.2601 36.4614 42.1954 36.5813 42.0812L38.2375 40.4187L38.5 40.5312V42.875C38.5 43.0408 38.5658 43.1997 38.6831 43.3169C38.8003 43.4342 38.9592 43.5 39.125 43.5H42.875C43.0408 43.5 43.1997 43.4342 43.3169 43.3169C43.4342 43.1997 43.5 43.0408 43.5 42.875V40.5312L43.7625 40.4187L45.4187 42.0812C45.5396 42.1928 45.698 42.2547 45.8625 42.2547C46.027 42.2547 46.1854 42.1928 46.3063 42.0812L48.9562 39.4312C49.0704 39.3114 49.1351 39.153 49.1375 38.9875C49.1363 38.8218 49.0714 38.6629 48.9562 38.5437L47.2938 36.8875L47.4062 36.625H49.75C49.9158 36.625 50.0747 36.5592 50.1919 36.4419C50.3092 36.3247 50.375 36.1658 50.375 36V32.25C50.375 32.0842 50.3092 31.9253 50.1919 31.8081C50.0747 31.6908 49.9158 31.625 49.75 31.625ZM49.125 35.375H46.9625C46.8307 35.3751 46.7023 35.4169 46.5957 35.4943C46.489 35.5718 46.4096 35.6809 46.3687 35.8063C46.2721 36.1203 46.1444 36.4238 45.9875 36.7125C45.9238 36.8316 45.8997 36.968 45.9188 37.1018C45.9379 37.2355 45.9992 37.3597 46.0938 37.4563L47.6313 38.9875L45.8625 40.7563L44.3313 39.2188C44.2347 39.1242 44.1105 39.0629 43.9768 39.0438C43.843 39.0247 43.7066 39.0488 43.5875 39.1125C43.2988 39.2694 42.9953 39.3971 42.6812 39.4937C42.5559 39.5346 42.4468 39.614 42.3693 39.7207C42.2919 39.8273 42.2501 39.9557 42.25 40.0875V42.25H39.75V40.0875C39.7499 39.9557 39.7081 39.8273 39.6307 39.7207C39.5532 39.614 39.4441 39.5346 39.3187 39.4937C39.0047 39.3971 38.7012 39.2694 38.4125 39.1125C38.2934 39.0488 38.157 39.0247 38.0232 39.0438C37.8895 39.0629 37.7653 39.1242 37.6687 39.2188L36.1375 40.7563L34.3687 38.9875L35.9062 37.4563C36.0008 37.3597 36.0621 37.2355 36.0812 37.1018C36.1003 36.968 36.0762 36.8316 36.0125 36.7125C35.8556 36.4238 35.7279 36.1203 35.6312 35.8063C35.5904 35.6809 35.511 35.5718 35.4043 35.4943C35.2977 35.4169 35.1693 35.3751 35.0375 35.375H32.875V32.875H35.0375C35.1693 32.8749 35.2977 32.8331 35.4043 32.7557C35.511 32.6782 35.5904 32.5691 35.6312 32.4437C35.7279 32.1297 35.8556 31.8262 36.0125 31.5375C36.0762 31.4184 36.1003 31.282 36.0812 31.1482C36.0621 31.0145 36.0008 30.8903 35.9062 30.7937L34.3687 29.2625L36.1375 27.4938L37.6687 29.0312C37.7653 29.1258 37.8895 29.1871 38.0232 29.2062C38.157 29.2253 38.2934 29.2012 38.4125 29.1375C38.7012 28.9806 39.0047 28.8529 39.3187 28.7562C39.4441 28.7154 39.5532 28.636 39.6307 28.5293C39.7081 28.4227 39.7499 28.2943 39.75 28.1625V26H42.25V28.1625C42.2501 28.2943 42.2919 28.4227 42.3693 28.5293C42.4468 28.636 42.5559 28.7154 42.6812 28.7562C42.9953 28.8529 43.2988 28.9806 43.5875 29.1375C43.7066 29.2012 43.843 29.2253 43.9768 29.2062C44.1105 29.1871 44.2347 29.1258 44.3313 29.0312L45.8625 27.4938L47.6313 29.2625L46.0938 30.7937C45.9992 30.8903 45.9379 31.0145 45.9188 31.1482C45.8997 31.282 45.9238 31.4184 45.9875 31.5375C46.1444 31.8262 46.2721 32.1297 46.3687 32.4437C46.4096 32.5691 46.489 32.6782 46.5957 32.7557C46.7023 32.8331 46.8307 32.8749 46.9625 32.875H49.125V35.375Z" fill="#87C332"/>
<path d="M44.75 34.125C44.75 33.3833 44.5301 32.6583 44.118 32.0416C43.706 31.4249 43.1203 30.9443 42.4351 30.6605C41.7498 30.3766 40.9958 30.3024 40.2684 30.4471C39.541 30.5918 38.8728 30.9489 38.3484 31.4734C37.8239 31.9978 37.4668 32.666 37.3221 33.3934C37.1774 34.1208 37.2516 34.8748 37.5355 35.5601C37.8193 36.2453 38.2999 36.831 38.9166 37.243C39.5333 37.6551 40.2583 37.875 41 37.875C41.9943 37.874 42.9475 37.4786 43.6506 36.7756C44.3536 36.0725 44.749 35.1193 44.75 34.125ZM38.5 34.125C38.5 33.6305 38.6466 33.1472 38.9213 32.7361C39.196 32.325 39.5865 32.0045 40.0433 31.8153C40.5001 31.6261 41.0028 31.5766 41.4877 31.673C41.9727 31.7695 42.4181 32.0076 42.7678 32.3572C43.1174 32.7069 43.3555 33.1523 43.452 33.6373C43.5484 34.1222 43.4989 34.6249 43.3097 35.0817C43.1205 35.5385 42.8001 35.929 42.3889 36.2037C41.9778 36.4784 41.4945 36.625 41 36.625C40.337 36.625 39.7011 36.3616 39.2322 35.8928C38.7634 35.4239 38.5 34.788 38.5 34.125Z" fill="#87C332"/>
<path d="M55.375 35.375H54.125C54.125 31.894 52.7422 28.5556 50.2808 26.0942C47.8194 23.6328 44.481 22.25 41 22.25C37.519 22.25 34.1806 23.6328 31.7192 26.0942C29.2578 28.5556 27.875 31.894 27.875 35.375H26.625C25.6304 35.375 24.6766 35.7701 23.9733 36.4733C23.2701 37.1766 22.875 38.1304 22.875 39.125C22.875 40.1196 23.2701 41.0734 23.9733 41.7767C24.6766 42.4799 25.6304 42.875 26.625 42.875H29.75C29.9158 42.875 30.0747 42.8092 30.1919 42.6919C30.3092 42.5747 30.375 42.4158 30.375 42.25V36C30.375 35.8342 30.3092 35.6753 30.1919 35.5581C30.0747 35.4408 29.9158 35.375 29.75 35.375H29.125C29.125 32.2256 30.3761 29.2051 32.6031 26.9781C34.8301 24.7511 37.8506 23.5 41 23.5C44.1494 23.5 47.1699 24.7511 49.3969 26.9781C51.6239 29.2051 52.875 32.2256 52.875 35.375H52.25C52.0842 35.375 51.9253 35.4408 51.8081 35.5581C51.6908 35.6753 51.625 35.8342 51.625 36V42.25C51.625 42.4158 51.6908 42.5747 51.8081 42.6919C51.9253 42.8092 52.0842 42.875 52.25 42.875H52.875V44.75C52.875 44.9158 52.8092 45.0747 52.6919 45.1919C52.5747 45.3092 52.4158 45.375 52.25 45.375H47.7625C47.6328 45.0108 47.394 44.6954 47.0786 44.4717C46.7632 44.2481 46.3866 44.127 46 44.125H44.75C44.2527 44.125 43.7758 44.3225 43.4242 44.6742C43.0725 45.0258 42.875 45.5027 42.875 46C42.875 46.4973 43.0725 46.9742 43.4242 47.3258C43.7758 47.6775 44.2527 47.875 44.75 47.875H46C46.3866 47.873 46.7632 47.7519 47.0786 47.5283C47.394 47.3046 47.6328 46.9892 47.7625 46.625H52.25C52.7468 46.6235 53.2229 46.4255 53.5742 46.0742C53.9255 45.7229 54.1235 45.2468 54.125 44.75V42.875H55.375C56.3696 42.875 57.3234 42.4799 58.0266 41.7767C58.7299 41.0734 59.125 40.1196 59.125 39.125C59.125 38.1304 58.7299 37.1766 58.0266 36.4733C57.3234 35.7701 56.3696 35.375 55.375 35.375ZM26.625 41.625C25.962 41.625 25.3261 41.3616 24.8572 40.8928C24.3884 40.4239 24.125 39.788 24.125 39.125C24.125 38.462 24.3884 37.8261 24.8572 37.3572C25.3261 36.8884 25.962 36.625 26.625 36.625V41.625ZM29.125 41.625H27.875V36.625H29.125V41.625ZM46 46.625H44.75C44.5842 46.625 44.4253 46.5592 44.3081 46.4419C44.1908 46.3247 44.125 46.1658 44.125 46C44.125 45.8342 44.1908 45.6753 44.3081 45.5581C44.4253 45.4408 44.5842 45.375 44.75 45.375H46C46.1658 45.375 46.3247 45.4408 46.4419 45.5581C46.5592 45.6753 46.625 45.8342 46.625 46C46.625 46.1658 46.5592 46.3247 46.4419 46.4419C46.3247 46.5592 46.1658 46.625 46 46.625ZM54.125 41.625H52.875V36.625H54.125V41.625ZM55.375 41.625V36.625C56.038 36.625 56.6739 36.8884 57.1428 37.3572C57.6116 37.8261 57.875 38.462 57.875 39.125C57.875 39.788 57.6116 40.4239 57.1428 40.8928C56.6739 41.3616 56.038 41.625 55.375 41.625Z" fill="#87C332"/>
<defs>
<filter id="filter0_d_65_2198" x="0" y="0" width="82" height="82" filterUnits="userSpaceOnUse" color-interpolation-filters="sRGB">
<feFlood flood-opacity="0" result="BackgroundImageFix"/>
<feColorMatrix in="SourceAlpha" type="matrix" values="0 0 0 0 0 0 0 0 0 0 0 0 0 0 0 0 0 0 127 0" result="hardAlpha"/>
<feOffset/>
<feGaussianBlur stdDeviation="6"/>
<feComposite in2="hardAlpha" operator="out"/>
<feColorMatrix type="matrix" values="0 0 0 0 0.438333 0 0 0 0 0.438333 0 0 0 0 0.438333 0 0 0 0.13 0"/>
<feBlend mode="normal" in2="BackgroundImageFix" result="effect1_dropShadow_65_2198"/>
<feBlend mode="normal" in="SourceGraphic" in2="effect1_dropShadow_65_2198" result="shape"/>
</filter>
</defs>
</svg>
