<svg width="82" height="82" viewBox="0 0 82 82" fill="none" xmlns="http://www.w3.org/2000/svg">
<g filter="url(#filter0_d_65_2102)">
<circle cx="41" cy="41" r="29" fill="white"/>
</g>
<g clip-path="url(#clip0_65_2102)">
<path d="M34.3956 58.1917C33.822 59.7157 30.5204 62.2717 29.7012 60.2597L26.4948 52.4021C26.486 52.3813 26.4788 52.3613 26.4748 52.3405C26.2572 51.7349 26.5268 51.2565 27.0716 50.8941C28.1372 50.1845 30.5572 49.9277 31.414 50.5445L32.0308 50.0437C33.938 48.4517 35.1988 47.8709 37.0108 47.7741C36.6028 46.5133 36.5004 45.1597 36.6548 43.7717C36.938 41.2229 38.8228 38.6221 40.4644 36.4813C39.9724 36.0277 39.7956 35.3613 40.0356 34.7485C38.9924 34.2293 38.8316 33.0205 39.4596 32.1429C38.566 31.3037 38.7388 29.7117 39.854 29.1293C39.094 27.9045 39.902 26.1565 41.4236 26.0365L39.798 23.2925C39.4196 22.6709 39.6004 22.0245 40.3108 21.7757C41.3404 21.4125 43.3972 21.9573 44.6036 22.4853C45.3236 21.6541 46.814 20.9037 47.9812 21.0077C49.0132 21.0981 49.5892 21.8509 49.4012 22.9917L49.2308 24.0277C51.0676 24.3725 51.514 24.9709 52.698 25.8101C52.8588 25.2957 53.3308 24.9413 53.8724 24.8917L57.6508 24.5405C58.4084 24.4701 58.9932 25.1301 58.9932 25.8373V36.4909C58.9932 37.2141 58.3828 37.8789 57.6348 37.7877L53.8564 37.3277C53.19 37.2461 52.6412 36.7269 52.6412 36.0309V35.8133C51.9068 36.2557 51.242 36.5909 50.6228 36.8405C52.3732 38.8677 53.7932 40.7701 54.122 43.5349C54.3964 45.8461 54.0516 47.9861 52.97 49.7413C55.5188 49.1949 57.034 51.4197 54.7956 52.7509L50.0292 55.5901C49.782 55.7373 48.1988 56.3229 46.6092 56.8557C45.6612 57.1757 43.6812 57.8085 43.3508 57.8221V57.8245L34.434 58.1893C34.4228 58.1893 34.4092 58.1893 34.3956 58.1917ZM33.298 58.1557L30.4812 51.2621C30.4788 51.2549 29.7668 51.3757 29.0252 51.5069C28.606 51.5797 28.0748 51.7109 27.7532 51.9261C27.7052 51.9581 27.6444 51.9173 27.6396 51.9285L30.8484 59.7949C30.8596 59.8221 30.8508 59.7565 30.8756 59.7517C31.2044 59.6997 31.7076 59.3749 31.998 59.1597C32.6564 58.6725 33.3052 58.1717 33.298 58.1557ZM38.3236 47.7741C39.278 47.8149 40.5756 47.9461 41.9044 48.0805C44.3668 48.3277 44.3244 50.9557 42.2812 51.6813C42.6892 51.8493 43.4516 52.0965 43.8844 52.1621C44.234 52.2141 46.5124 52.3141 46.73 52.2253L50.5492 50.6677C51.4204 49.9485 52.1188 48.9917 52.538 47.7853C52.9348 46.6469 53.082 45.2821 52.8916 43.6805C52.5788 41.0389 51.0684 39.2245 49.3468 37.2557C47.782 37.6413 46.4012 37.5117 44.63 37.3461C43.8796 37.2757 43.0564 37.1989 42.1012 37.1557C42.0804 37.1557 42.0604 37.1533 42.0396 37.1509C41.8764 37.1261 41.7244 37.0965 41.5812 37.0581C40.0484 39.0493 38.1412 41.5933 37.8852 43.9069C37.734 45.2589 37.854 46.5741 38.3236 47.7741ZM32.1804 51.5181C32.1148 51.5701 32.0492 51.6221 31.9828 51.6701L34.1484 56.9741C34.2324 56.9629 34.3092 56.9557 34.3868 56.9533C34.7588 56.9373 37.7204 56.8197 40.2012 56.7173C41.4708 56.6653 42.6228 56.6173 43.2444 56.5901C43.882 56.4429 45.0564 56.0733 46.2172 55.6829C47.746 55.1701 49.2172 54.6373 49.3988 54.5285L54.1652 51.6917C54.462 51.5149 54.698 51.2973 54.6276 51.1909C54.594 51.1413 54.5276 51.0885 54.4372 51.0413C54.0652 50.8509 53.4484 50.8213 52.7748 51.0957L47.194 53.3725C46.9268 53.4813 46.1988 53.5061 45.4252 53.4861C45.0556 53.4749 43.5476 53.4109 43.1212 53.2981L37.2772 51.7421C37.0076 51.6693 36.81 51.4197 36.8172 51.1301C36.826 50.7877 37.11 50.5181 37.45 50.5269L41.1988 50.6157C42.1988 50.6381 42.6796 49.9877 42.5212 49.6517C42.3828 49.3637 41.9268 49.3253 41.526 49.2845C36.8636 48.8173 35.5868 48.6877 32.8268 50.9941C32.5932 51.1869 32.3796 51.3613 32.1804 51.5181ZM30.5788 29.0293C34.7604 29.0293 38.1508 32.4197 38.1508 36.6013C38.1508 40.7829 34.7604 44.1757 30.5788 44.1757C26.3972 44.1757 23.0068 40.7829 23.0068 36.6013C23.0076 32.4189 26.3972 29.0293 30.5788 29.0293ZM35.0556 32.1245C32.5836 29.6501 28.5748 29.6501 26.1004 32.1245C23.6284 34.5965 23.6284 38.6053 26.1004 41.0797C28.5748 43.5517 32.5836 43.5517 35.0556 41.0797C37.53 38.6053 37.53 34.5965 35.0556 32.1245ZM57.7324 25.7749L53.9836 26.1221C53.9452 26.1269 53.8812 26.1469 53.8812 26.1877L53.8876 36.0501C53.91 36.0749 53.9508 36.0909 54.0012 36.0981L57.7364 36.5541L57.7524 36.4925V25.8381L57.7324 25.7749ZM42.8636 26.0357C43.8908 26.0429 45.2764 26.0701 46.4804 25.7405C47.118 25.5661 47.6596 25.2957 47.8388 24.8741L48.1812 22.7949C48.2492 22.3757 48.1812 22.2669 47.8748 22.2397C47.0764 22.1669 45.646 22.8925 45.3964 23.4893C45.242 23.8525 44.8548 23.9861 44.5324 23.8205C43.43 23.2533 41.9084 22.8501 41.0012 22.8973L42.8636 26.0357ZM44.7412 36.1181C47.5444 36.3789 49.2812 36.5421 52.642 34.3541V27.2557C52.086 26.9109 51.6892 26.6093 51.3404 26.3437C50.6804 25.8405 50.2084 25.4821 49.0316 25.2509C48.3964 27.1421 45.1036 27.2805 43.594 27.2757L41.5964 27.2645C40.9796 27.2645 40.6484 27.9581 40.8708 28.4165C41.0068 28.6957 41.374 28.9133 42.0524 28.9133V30.1493H40.798C40.2172 30.1493 40.0156 30.6637 40.1764 31.0477C40.2492 31.2221 40.4188 31.3629 40.6892 31.3853C40.83 31.3693 40.9748 31.3717 41.1268 31.3941C41.4644 31.4461 41.698 31.7613 41.6484 32.0997C41.5988 32.4237 41.306 32.6509 40.9836 32.6261H40.7996C40.5324 32.6533 40.1988 33.1525 40.378 33.4605C40.4868 33.6461 40.7836 33.7845 41.3556 33.7805C41.394 33.7757 41.4348 33.7757 41.4756 33.7757C41.818 33.7757 42.0948 34.0525 42.0948 34.3949C42.0948 34.7373 41.818 35.0165 41.4756 35.0165C41.2492 35.0165 41.0924 35.2365 41.2036 35.4477C41.3532 35.7285 41.8836 35.8941 42.1948 35.9237C43.1444 35.9685 43.9788 36.0453 44.7412 36.1181ZM46.0812 48.2997V48.8645C46.0812 49.2069 45.8044 49.4861 45.462 49.4861C45.1172 49.4861 44.8404 49.2069 44.8404 48.8645V48.2997C43.6268 48.1045 42.45 47.2725 42.45 46.0205C42.45 45.6781 42.7268 45.4013 43.0692 45.4013C43.4116 45.4013 43.6908 45.6781 43.6908 46.0205C43.6908 46.9549 45.6588 47.5357 46.7932 46.7237C47.0628 46.5309 47.2308 46.2813 47.2308 46.0205C47.2308 45.2429 46.294 45.0837 45.3596 44.9253C43.9036 44.6781 42.45 44.4285 42.45 42.6077C42.45 41.3557 43.6268 40.5237 44.8404 40.3285V39.7637C44.8404 39.4213 45.1172 39.1421 45.462 39.1421C45.8044 39.1421 46.0812 39.4213 46.0812 39.7637V40.3285C47.2948 40.5237 48.4716 41.3557 48.4716 42.6077C48.4716 42.9501 48.1948 43.2269 47.8524 43.2269C47.51 43.2269 47.2308 42.9501 47.2308 42.6077C47.2308 41.6733 45.2628 41.0925 44.1284 41.9021C43.8588 42.0973 43.6908 42.3469 43.6908 42.6077C43.6908 43.3853 44.6276 43.5445 45.562 43.7029C47.018 43.9501 48.4716 44.1973 48.4716 46.0205C48.4716 47.2725 47.2948 48.1053 46.0812 48.2997Z" fill="#87C332"/>
<line x1="35.4243" y1="32.4243" x2="26.4243" y2="41.4243" stroke="#87C332" stroke-width="1.2"/>
</g>
<defs>
<filter id="filter0_d_65_2102" x="0" y="0" width="82" height="82" filterUnits="userSpaceOnUse" color-interpolation-filters="sRGB">
<feFlood flood-opacity="0" result="BackgroundImageFix"/>
<feColorMatrix in="SourceAlpha" type="matrix" values="0 0 0 0 0 0 0 0 0 0 0 0 0 0 0 0 0 0 127 0" result="hardAlpha"/>
<feOffset/>
<feGaussianBlur stdDeviation="6"/>
<feComposite in2="hardAlpha" operator="out"/>
<feColorMatrix type="matrix" values="0 0 0 0 0.438333 0 0 0 0 0.438333 0 0 0 0 0.438333 0 0 0 0.13 0"/>
<feBlend mode="normal" in2="BackgroundImageFix" result="effect1_dropShadow_65_2102"/>
<feBlend mode="normal" in="SourceGraphic" in2="effect1_dropShadow_65_2102" result="shape"/>
</filter>
<clipPath id="clip0_65_2102">
<rect width="40" height="40" fill="white" transform="translate(21 21)"/>
</clipPath>
</defs>
</svg>
