<svg width="82" height="82" viewBox="0 0 82 82" fill="none" xmlns="http://www.w3.org/2000/svg">
<g filter="url(#filter0_d_65_2175)">
<path d="M70 41C70 57.0163 57.0163 70 41 70C24.9837 70 12 57.0163 12 41C12 24.9837 24.9837 12 41 12C57.0163 12 70 24.9837 70 41Z" fill="white"/>
</g>
<g clip-path="url(#clip0_65_2175)">
<path d="M35.558 42.683L32.433 45.808C32.3158 45.9252 32.25 46.0841 32.25 46.2499C32.25 46.4156 32.3158 46.5745 32.433 46.6917L34.308 48.5667C34.4252 48.6839 34.5841 48.7497 34.7499 48.7497C34.9156 48.7497 35.0745 48.6839 35.1917 48.5667L38.3167 45.4417C38.4339 45.3245 38.4997 45.1656 38.4997 44.9999C38.4997 44.8341 38.4339 44.6752 38.3167 44.558L36.4417 42.683C36.3245 42.5658 36.1656 42.5 35.9999 42.5C35.8341 42.5 35.6752 42.5658 35.558 42.683ZM34.7499 47.2411L33.7586 46.2499L35.9999 44.0086L36.9911 44.9999L34.7499 47.2411ZM45.9999 37.4999C46.1656 37.4998 46.3246 37.434 46.4417 37.3167L49.5667 34.1917C49.6839 34.0745 49.7497 33.9156 49.7497 33.7499C49.7497 33.5841 49.6839 33.4252 49.5667 33.308L47.6917 31.433C47.5745 31.3158 47.4156 31.25 47.2499 31.25C47.0841 31.25 46.9252 31.3158 46.808 31.433L43.683 34.558C43.5658 34.6752 43.5 34.8341 43.5 34.9999C43.5 35.1656 43.5658 35.3245 43.683 35.4417L45.558 37.3167C45.6752 37.434 45.8341 37.4998 45.9999 37.4999ZM47.2499 32.7586L48.2411 33.7499L45.9999 35.9911L45.0086 34.9999L47.2499 32.7586Z" fill="#87C332"/>
<path d="M41 20.625C37.168 20.625 33.422 21.7613 30.2358 23.8903C27.0496 26.0192 24.5663 29.0452 23.0998 32.5855C21.6334 36.1258 21.2497 40.0215 21.9973 43.7799C22.7449 47.5383 24.5902 50.9905 27.2998 53.7002C30.0095 56.4098 33.4618 58.2551 37.2201 59.0027C40.9785 59.7503 44.8742 59.3666 48.4145 57.9002C51.9548 56.4337 54.9808 53.9504 57.1097 50.7642C59.2387 47.578 60.375 43.832 60.375 40C60.369 34.8633 58.3259 29.9386 54.6936 26.3064C51.0614 22.6742 46.1367 20.631 41 20.625ZM58.275 34.5162L46.4838 22.725C49.2464 23.6089 51.7578 25.1402 53.8088 27.1912C55.8598 29.2422 57.3911 31.7536 58.275 34.5162ZM55.375 40C55.3853 42.9505 54.478 45.8311 52.7788 48.2431L49.1469 44.6119L55.2881 38.4706C55.344 38.9785 55.373 39.489 55.375 40ZM48.2631 43.7281L47.3794 42.8444L54.7813 35.4419C54.8984 35.3247 54.9642 35.1657 54.9642 35C54.9642 34.8343 54.8984 34.6753 54.7813 34.5581L46.4419 26.2187C46.3247 26.1016 46.1657 26.0358 46 26.0358C45.8343 26.0358 45.6753 26.1016 45.5581 26.2187L38.1556 33.6206L37.2719 32.7369L46 24.0087L56.9913 35L48.2631 43.7281ZM41.4563 36.9212C42.1177 37.0189 42.7301 37.3269 43.2028 37.7997C43.6756 38.2724 43.9836 38.8848 44.0813 39.5462L41.4563 36.9212ZM41 35.625C40.7435 35.6277 40.4878 35.6528 40.2356 35.7L39.04 34.5044L46 27.5444L53.4556 35L46.4956 41.96L45.3 40.7644C45.4188 40.1347 45.3966 39.4865 45.2349 38.8664C45.0732 38.2463 44.776 37.6698 44.3648 37.1783C43.9536 36.6868 43.4386 36.2926 42.8567 36.024C42.2749 35.7554 41.6408 35.6192 41 35.625ZM32.7569 28.2212C35.1689 26.522 38.0496 25.6147 41 25.625C41.511 25.627 42.0215 25.656 42.5294 25.7119L36.3881 31.8531L32.7569 28.2212ZM23.725 45.4837L35.5163 57.275C32.7536 56.3911 30.2422 54.8598 28.1912 52.8088C26.1402 50.7578 24.6089 48.2464 23.725 45.4837ZM26.625 40C26.6146 37.0494 27.5222 34.1687 29.2219 31.7569L32.8531 35.3881L26.7119 41.5294C26.656 41.0215 26.627 40.511 26.625 40ZM33.7369 36.2719L34.6206 37.1556L27.2188 44.5581C27.1016 44.6753 27.0358 44.8343 27.0358 45C27.0358 45.1657 27.1016 45.3247 27.2188 45.4419L35.5581 53.7812C35.6753 53.8984 35.8343 53.9642 36 53.9642C36.1657 53.9642 36.3247 53.8984 36.4419 53.7812L43.8444 46.3794L44.7281 47.2631L36 55.9912L25.0088 45L33.7369 36.2719ZM40.5438 43.0787C39.8823 42.9811 39.2699 42.6731 38.7972 42.2003C38.3244 41.7276 38.0164 41.1152 37.9188 40.4537L40.5438 43.0787ZM41 44.375C41.2565 44.3723 41.5123 44.3472 41.7644 44.3L42.96 45.4956L36 52.4556L28.5444 45L35.5044 38.04L36.7 39.2356C36.5812 39.8653 36.6034 40.5135 36.7651 41.1336C36.9268 41.7537 37.224 42.3302 37.6352 42.8217C38.0464 43.3132 38.5615 43.7074 39.1433 43.976C39.7251 44.2446 40.3592 44.3808 41 44.375ZM49.2431 51.7787C46.8311 53.478 43.9505 54.3853 41 54.375C40.489 54.373 39.9785 54.344 39.4706 54.2881L45.6119 48.1469L49.2431 51.7787ZM41 58.125C39.3681 58.1246 37.7438 57.9032 36.1713 57.4669C36.2729 57.441 36.3661 57.3893 36.4419 57.3169L38.3606 55.3987C39.2325 55.548 40.1154 55.6237 41 55.625C44.4717 55.6368 47.8465 54.4809 50.5819 52.3431C50.6522 52.2887 50.7101 52.2199 50.7517 52.1414C50.7933 52.0628 50.8177 51.9763 50.8232 51.8875C50.8287 51.7988 50.8152 51.7099 50.7836 51.6268C50.752 51.5437 50.7031 51.4683 50.64 51.4056L29.5925 30.36C29.53 30.2971 29.4548 30.2484 29.3719 30.217C29.289 30.1856 29.2003 30.1724 29.1119 30.1781C29.0234 30.1836 28.937 30.2078 28.8585 30.2491C28.7801 30.2905 28.7114 30.3481 28.6569 30.4181C26.5191 33.1535 25.3632 36.5283 25.375 40C25.3762 40.8846 25.4521 41.7675 25.6019 42.6394L23.6831 44.5581C23.6107 44.6339 23.559 44.7271 23.5331 44.8287C22.6767 41.739 22.6556 38.4773 23.4721 35.3767C24.2887 32.2761 25.9135 29.4478 28.1807 27.1807C30.4478 24.9135 33.2761 23.2887 36.3767 22.4721C39.4773 21.6556 42.739 21.6767 45.8288 22.5331C45.7272 22.559 45.6339 22.6107 45.5581 22.6831L43.6394 24.6012C42.7675 24.452 41.8846 24.3763 41 24.375C37.5283 24.3632 34.1535 25.5191 31.4181 27.6569C31.3478 27.7113 31.2899 27.7801 31.2483 27.8586C31.2067 27.9372 31.1824 28.0237 31.1769 28.1125C31.1714 28.2012 31.1848 28.2901 31.2164 28.3732C31.248 28.4563 31.297 28.5317 31.36 28.5944L52.4075 49.64C52.5247 49.7572 52.6836 49.8231 52.8494 49.8231H52.8888C52.9772 49.8176 53.0634 49.7934 53.1417 49.752C53.2201 49.7106 53.2887 49.653 53.3431 49.5831C55.4812 46.8474 56.6371 43.4721 56.625 40C56.6237 39.1154 56.548 38.2325 56.3988 37.3606L58.3169 35.4419C58.3893 35.3661 58.441 35.2728 58.4669 35.1712C59.2128 37.8624 59.3265 40.6896 58.799 43.4319C58.2714 46.1743 57.117 48.7575 55.4259 50.9798C53.7348 53.2022 51.5527 55.0035 49.0503 56.243C46.5478 57.4824 43.7926 58.1265 41 58.125Z" fill="#87C332"/>
</g>
<defs>
<filter id="filter0_d_65_2175" x="0" y="0" width="82" height="82" filterUnits="userSpaceOnUse" color-interpolation-filters="sRGB">
<feFlood flood-opacity="0" result="BackgroundImageFix"/>
<feColorMatrix in="SourceAlpha" type="matrix" values="0 0 0 0 0 0 0 0 0 0 0 0 0 0 0 0 0 0 127 0" result="hardAlpha"/>
<feOffset/>
<feGaussianBlur stdDeviation="6"/>
<feComposite in2="hardAlpha" operator="out"/>
<feColorMatrix type="matrix" values="0 0 0 0 0.438333 0 0 0 0 0.438333 0 0 0 0 0.438333 0 0 0 0.13 0"/>
<feBlend mode="normal" in2="BackgroundImageFix" result="effect1_dropShadow_65_2175"/>
<feBlend mode="normal" in="SourceGraphic" in2="effect1_dropShadow_65_2175" result="shape"/>
</filter>
<clipPath id="clip0_65_2175">
<rect width="40" height="40" fill="white" transform="translate(21 20)"/>
</clipPath>
</defs>
</svg>
