<svg width="82" height="82" viewBox="0 0 82 82" fill="none" xmlns="http://www.w3.org/2000/svg">
<g filter="url(#filter0_d_65_2154)">
<circle cx="41" cy="41" r="29" fill="white"/>
</g>
<g clip-path="url(#clip0_65_2154)">
<path d="M32.3039 36.6523H28.8256C28.3456 36.6523 27.9561 37.0419 27.9561 37.5219V44.4784C27.9561 44.9584 28.3456 45.348 28.8256 45.348C29.3056 45.348 29.6952 44.9584 29.6952 44.4784V38.3914H32.3039C32.7839 38.3914 33.1735 38.0019 33.1735 37.5219C33.1735 37.0419 32.7839 36.6523 32.3039 36.6523Z" fill="#87C332"/>
<path d="M30.5647 40.1309H28.8256C28.3456 40.1309 27.9561 40.5205 27.9561 41.0005C27.9561 41.4805 28.3456 41.87 28.8256 41.87H30.5647C31.0447 41.87 31.4343 41.4804 31.4343 41.0004C31.4343 40.5204 31.0447 40.1309 30.5647 40.1309Z" fill="#87C332"/>
<path d="M41 21C29.9722 21 21 29.9722 21 41C21 52.0277 29.9722 60.9999 41 60.9999C52.0277 60.9999 60.9999 52.0277 60.9999 41C60.9999 29.9722 52.0278 21 41 21ZM41 59.2608C30.9304 59.2608 22.7391 51.0695 22.7391 41C22.7391 30.9304 30.9304 22.7391 41 22.7391C51.0695 22.7391 59.2608 30.9304 59.2608 41C59.2608 51.0695 51.0695 59.2608 41 59.2608Z" fill="#87C332"/>
<path d="M52.5286 31.7604C49.7025 28.2386 45.5008 26.2178 40.9999 26.2178C36.499 26.2178 32.2973 28.2386 29.4712 31.7604C29.1703 32.1343 29.2295 32.6821 29.6051 32.9829C29.9791 33.2838 30.5269 33.2246 30.826 32.849C33.3216 29.7394 37.0295 27.9568 40.9999 27.9568C44.9703 27.9568 48.6782 29.7394 51.1721 32.849C51.2536 32.9505 51.3568 33.0325 51.4742 33.0888C51.5916 33.1451 51.7202 33.1743 51.8504 33.1742C52.0434 33.1742 52.2347 33.1116 52.3947 32.9828C52.7703 32.6821 52.8295 32.1343 52.5286 31.7604ZM51.6851 49.9343C51.3408 49.6056 50.7877 49.6195 50.4573 49.9673C47.9617 52.5952 44.6034 54.0438 40.9999 54.0438C37.3964 54.0438 34.0382 52.5951 31.5443 49.9673C31.2156 49.616 30.6625 49.6056 30.3165 49.9343C29.9652 50.2647 29.953 50.816 30.2835 51.1639C33.1096 54.143 36.9148 55.783 41 55.783C45.0852 55.783 48.8904 54.143 51.7182 51.1639C52.0486 50.816 52.0347 50.2647 51.6851 49.9343ZM37.859 41.8474C39.139 41.6821 40.1303 40.5847 40.1303 39.2612C40.1303 37.823 38.9599 36.6525 37.5216 36.6525H35.7825C35.3025 36.6525 34.9129 37.0421 34.9129 37.5221V44.4786C34.9129 44.9586 35.3025 45.3482 35.7825 45.3482C36.2625 45.3482 36.6521 44.9586 36.6521 44.4786V43.0995L38.6451 45.0943C38.8088 45.2569 39.0301 45.3482 39.2608 45.3482C39.4834 45.3482 39.706 45.263 39.8747 45.0926C40.2139 44.7534 40.2139 44.2021 39.8747 43.863L37.859 41.8474ZM36.6521 40.1308V38.3917H37.5217C38 38.3917 38.3913 38.7813 38.3913 39.2613C38.3913 39.7413 38 40.1309 37.5217 40.1309L36.6521 40.1308ZM46.2173 43.609H43.6086V38.3916H46.2173C46.6973 38.3916 47.0869 38.0021 47.0869 37.5221C47.0869 37.0421 46.6973 36.6525 46.2173 36.6525H42.739C42.259 36.6525 41.8694 37.0421 41.8694 37.5221V44.4786C41.8694 44.9586 42.259 45.3482 42.739 45.3482H46.2173C46.6973 45.3482 47.0869 44.9586 47.0869 44.4786C47.0869 43.9986 46.6973 43.609 46.2173 43.609Z" fill="#87C332"/>
<path d="M44.4778 40.1306H42.7387C42.2587 40.1306 41.8691 40.5202 41.8691 41.0002C41.8691 41.4802 42.2587 41.8697 42.7387 41.8697H44.4778C44.9578 41.8697 45.3474 41.4801 45.3474 41.0001C45.3474 40.5201 44.9578 40.1306 44.4778 40.1306ZM53.1735 43.6088H50.5648V38.3914H53.1735C53.6535 38.3914 54.0431 38.0019 54.0431 37.5219C54.0431 37.0419 53.6535 36.6523 53.1735 36.6523H49.6952C49.2152 36.6523 48.8256 37.0419 48.8256 37.5219V44.4784C48.8256 44.9584 49.2152 45.348 49.6952 45.348H53.1735C53.6535 45.348 54.0431 44.9584 54.0431 44.4784C54.0431 43.9984 53.6535 43.6088 53.1735 43.6088Z" fill="#87C332"/>
<path d="M51.4349 40.1309H49.6958C49.2158 40.1309 48.8262 40.5205 48.8262 41.0005C48.8262 41.4805 49.2158 41.87 49.6958 41.87H51.4349C51.9149 41.87 52.3045 41.4804 52.3045 41.0004C52.3045 40.5204 51.9149 40.1309 51.4349 40.1309Z" fill="#87C332"/>
</g>
<defs>
<filter id="filter0_d_65_2154" x="0" y="0" width="82" height="82" filterUnits="userSpaceOnUse" color-interpolation-filters="sRGB">
<feFlood flood-opacity="0" result="BackgroundImageFix"/>
<feColorMatrix in="SourceAlpha" type="matrix" values="0 0 0 0 0 0 0 0 0 0 0 0 0 0 0 0 0 0 127 0" result="hardAlpha"/>
<feOffset/>
<feGaussianBlur stdDeviation="6"/>
<feComposite in2="hardAlpha" operator="out"/>
<feColorMatrix type="matrix" values="0 0 0 0 0.438333 0 0 0 0 0.438333 0 0 0 0 0.438333 0 0 0 0.13 0"/>
<feBlend mode="normal" in2="BackgroundImageFix" result="effect1_dropShadow_65_2154"/>
<feBlend mode="normal" in="SourceGraphic" in2="effect1_dropShadow_65_2154" result="shape"/>
</filter>
<clipPath id="clip0_65_2154">
<rect width="40" height="40" fill="white" transform="translate(21 21)"/>
</clipPath>
</defs>
</svg>
