<svg width="82" height="82" viewBox="0 0 82 82" fill="none" xmlns="http://www.w3.org/2000/svg">
<g filter="url(#filter0_d_65_2217)">
<circle cx="41" cy="41" r="29" fill="white"/>
</g>
<g clip-path="url(#clip0_65_2217)">
<path d="M57.0876 60.8434C56.9758 60.8432 56.8678 60.8031 56.783 60.7302C56.6982 60.6574 56.6422 60.5567 56.6251 60.4462C55.3414 52.1537 52.3232 41.324 49.8773 38.4203C48.7835 37.1224 47.7914 36.4974 45.7917 35.8487C45.1926 35.7076 44.5863 35.5994 43.9754 35.5246C42.5185 35.3078 41.6054 35.1596 41.2014 34.9309C40.9584 34.7996 40.7564 34.6038 40.6176 34.365C40.4788 34.1263 40.4086 33.8539 40.4148 33.5778C40.4171 33.2906 40.4952 33.0091 40.6413 32.7618C40.7874 32.5145 40.9962 32.3102 41.2467 32.1696C41.9189 31.8109 42.7876 31.7512 43.9004 31.9881C44.4348 32.1015 44.8904 32.0571 45.0067 31.9512C45.0476 31.9137 45.2357 31.6674 44.9054 30.4843C44.6249 29.8135 44.2861 29.1685 43.8929 28.5568C43.6485 28.1431 43.4373 27.7859 43.3176 27.5393C42.8469 26.5239 42.4508 25.4756 42.1323 24.4028C42.042 24.121 41.9501 23.8398 41.8567 23.559C41.7932 23.3857 41.7646 23.2015 41.7725 23.0171C41.7804 22.8327 41.8246 22.6516 41.9026 22.4843C41.9805 22.317 42.0908 22.1667 42.2269 22.0421C42.3631 21.9175 42.5225 21.821 42.696 21.7581C42.8602 21.702 43.0342 21.6805 43.207 21.6947C43.3799 21.7089 43.548 21.7586 43.7008 21.8407C43.8536 21.9229 43.9878 22.0356 44.0951 22.1719C44.2023 22.3083 44.2803 22.4652 44.3242 22.6331C44.7352 23.7169 45.2285 24.7678 45.7995 25.7765C45.846 25.8493 46.6039 27.1074 46.881 27.1937C47.1579 27.2031 47.4322 27.1377 47.6751 27.0043C48.0843 26.8028 48.5378 26.7079 48.9935 26.7284C49.4872 26.7984 49.9549 26.993 50.3526 27.2937C50.3799 27.3118 50.4107 27.324 50.443 27.3294C50.4753 27.3348 50.5084 27.3333 50.5401 27.3249C50.7568 27.2662 50.9834 27.2527 51.2055 27.2854C51.4277 27.3181 51.6407 27.3962 51.8314 27.5149C52.5998 28.0081 52.8245 29.094 52.9585 29.7428L52.9754 29.824C53.2392 31.0865 55.4598 35.5331 56.0535 36.4521C57.3623 38.479 59.3401 41.5418 60.8082 45.1296C60.8315 45.1866 60.8434 45.2477 60.8431 45.3093C60.8428 45.3708 60.8304 45.4318 60.8066 45.4886C60.7828 45.5453 60.748 45.5969 60.7043 45.6402C60.6605 45.6836 60.6087 45.7179 60.5517 45.7412C60.4947 45.7645 60.4336 45.7764 60.372 45.7761C60.3105 45.7758 60.2495 45.7634 60.1927 45.7396C60.136 45.7157 60.0844 45.681 60.0411 45.6372C59.9977 45.5935 59.9634 45.5416 59.9401 45.4846C58.5057 41.9774 56.5557 38.9584 55.2657 36.9609C54.6567 36.014 52.3442 31.3718 52.0589 30.014L52.0417 29.9309C51.9445 29.4593 51.7626 28.5821 51.3264 28.3018C51.2407 28.2503 51.145 28.2179 51.0458 28.2067C50.9465 28.1954 50.846 28.2057 50.751 28.2368C50.5899 28.2747 50.4225 28.278 50.2599 28.2465C50.0974 28.2151 49.9433 28.1496 49.8079 28.0543C49.5372 27.8445 49.2174 27.7074 48.8789 27.6559C48.5805 27.6639 48.2877 27.7387 48.022 27.8746C47.5889 28.0468 47.0979 28.2415 46.6035 28.0881C46.0323 27.9109 45.5914 27.2443 45.1532 26.5156C45.0998 26.4268 43.7292 23.744 43.4426 22.9512C43.3754 22.7637 43.2457 22.5606 43.0035 22.6443C42.9451 22.6668 42.8918 22.701 42.8469 22.7447C42.802 22.7884 42.7664 22.8407 42.7424 22.8986C42.7183 22.9564 42.7062 23.0186 42.7068 23.0812C42.7075 23.1439 42.7208 23.2057 42.746 23.2631C42.8429 23.5537 42.9335 23.8374 43.0245 24.1165C43.4472 25.4911 44.0086 26.819 44.7001 28.0799C45.1207 28.8612 45.662 29.7087 45.8082 30.2324C46.0423 31.0703 46.2345 32.1015 45.6376 32.6446C45.0976 33.1353 44.1064 32.9884 43.7057 32.9049C42.8167 32.7174 42.1576 32.7465 41.6879 32.9968C41.586 33.059 41.5017 33.1462 41.4429 33.2501C41.3842 33.354 41.353 33.4712 41.3523 33.5906C41.3491 33.6988 41.3769 33.8057 41.4322 33.8988C41.4875 33.9918 41.5682 34.0673 41.6648 34.1162C41.946 34.2762 43.2498 34.4706 44.1129 34.599C44.776 34.6776 45.4336 34.7977 46.0817 34.9587C48.2473 35.6612 49.3864 36.3828 50.5951 37.8178C53.2251 40.9403 56.2545 51.9212 57.5523 60.3046C57.5712 60.4275 57.5406 60.5528 57.4672 60.653C57.3938 60.7533 57.2835 60.8203 57.1607 60.8393C57.1365 60.8426 57.112 60.8439 57.0876 60.8434ZM39.5317 45.1737C39.4318 45.1738 39.3345 45.142 39.254 45.0829C39.1734 45.0238 39.1139 44.9405 39.084 44.8452C39.0541 44.7499 39.0554 44.6476 39.0878 44.5531C39.1201 44.4586 39.1818 44.3769 39.2639 44.3199C40.7103 43.3263 42.4594 42.8716 44.2067 43.0349C44.3304 43.0474 44.4441 43.1085 44.5228 43.2047C44.6016 43.301 44.6388 43.4246 44.6264 43.5484C44.6139 43.6721 44.5528 43.7859 44.4566 43.8646C44.3603 43.9433 44.2367 43.9805 44.1129 43.9681C42.5877 43.8256 41.0609 44.2226 39.7982 45.0899C39.7201 45.1446 39.627 45.1738 39.5317 45.1737Z" fill="#87C332"/>
<path d="M40.2448 60.8242C40.2046 60.8242 40.1646 60.819 40.1257 60.8089C40.0055 60.7774 39.9027 60.6994 39.8399 60.5921C39.7771 60.4848 39.7596 60.357 39.7911 60.2367C40.4473 57.7249 40.6995 54.4555 40.7154 52.2333C40.7192 51.6999 39.5564 50.5145 38.5067 50.1555C37.3717 49.7677 36.0739 49.9142 35.4504 49.9845C35.3001 50.0093 35.1477 50.019 34.9954 50.0136C34.7395 50.0038 34.4923 49.9184 34.2849 49.7682C34.0774 49.6181 33.9191 49.4099 33.8298 49.1699C33.7718 48.9452 33.7743 48.7093 33.8372 48.486C33.9 48.2626 34.021 48.06 34.1876 47.8986C34.615 47.5108 35.1643 47.2842 35.7407 47.2577C36.5808 47.2171 37.4178 47.1291 38.2479 46.9939C38.3201 46.9691 38.3806 46.9188 38.4182 46.8524C38.4558 46.786 38.4678 46.7082 38.452 46.6336C38.2892 45.5114 37.6957 44.7077 36.8923 43.8836C35.8432 42.8067 34.7845 41.3333 34.9236 40.7124C34.9563 40.5472 35.0277 40.3921 35.1319 40.2598C35.236 40.1275 35.3701 40.0217 35.5229 39.9511C35.7056 39.8733 35.9037 39.8385 36.1019 39.8493C36.3002 39.8602 36.4933 39.9164 36.6664 40.0136C37.022 40.2278 37.3322 40.5098 37.5792 40.8436C37.7101 40.9999 38.0232 41.4514 38.1486 41.5967C37.8714 41.0655 37.4214 40.233 37.202 39.7317C37.0176 39.3904 36.9406 39.0013 36.9811 38.6155C37.0274 38.334 37.1836 38.0824 37.4154 37.9161C37.601 37.776 37.8211 37.689 38.0524 37.6644C38.2836 37.6399 38.5171 37.6787 38.7279 37.7767C39.1257 37.9452 39.5648 38.4842 39.9129 38.9955C39.8481 38.7309 39.8792 38.4519 40.0007 38.208C40.1223 37.9642 40.3264 37.7714 40.5767 37.6639C41.4026 37.2858 42.1376 38.043 42.5161 38.807C42.6154 39.0083 42.807 39.5617 43.0807 40.392C43.0985 40.05 43.2121 39.7198 43.4086 39.4392C43.4714 39.3667 43.5489 39.3082 43.6359 39.2676C43.723 39.2271 43.8176 39.2054 43.9136 39.2039H43.9254C45.0192 39.2039 45.2848 40.3949 45.4282 41.0358C45.4282 41.0358 46.2254 45.772 46.2882 46.1945C46.4141 47.0745 46.4327 47.9664 46.3436 48.8508C46.3154 49.2636 46.2864 49.6908 46.2811 50.2058C46.2651 51.4061 46.8826 58.6158 46.6654 60.4124C46.6505 60.5358 46.5871 60.6483 46.4892 60.725C46.3913 60.8017 46.267 60.8364 46.1436 60.8214C46.0201 60.8065 45.9077 60.7431 45.8309 60.6452C45.7542 60.5473 45.7195 60.423 45.7345 60.2995C45.9404 58.5992 45.3282 51.4399 45.3436 50.1933C45.3507 49.6527 45.382 49.1933 45.4095 48.787C45.4939 47.9703 45.478 47.1462 45.3623 46.3333C45.1357 44.8152 44.8207 42.0877 44.6667 41.4561C44.5851 41.122 44.4292 40.1217 44.0657 40.1783C43.7117 40.2333 43.722 41.3708 43.8661 42.772C43.8948 43.0564 43.8848 43.3439 43.6054 43.4036C43.3261 43.4633 43.1679 43.3099 43.0782 43.0389C42.972 42.7186 41.8017 39.478 41.6754 39.223C41.4829 38.8345 41.2411 38.3958 40.9673 38.5161C40.2386 38.8361 41.8673 41.9477 42.0298 43.2349C42.0462 43.2904 42.0505 43.3488 42.0426 43.4061C42.0347 43.4635 42.0147 43.5185 41.9839 43.5675C41.9531 43.6165 41.9122 43.6584 41.864 43.6905C41.8158 43.7225 41.7613 43.7439 41.7042 43.7533C41.4314 43.8289 41.2276 43.807 41.1123 43.5486C40.9561 43.1955 40.0289 41.0667 39.6967 40.4464C39.2382 39.5899 38.6154 38.7449 38.3639 38.6383C38.3042 38.607 38.2374 38.5919 38.1701 38.5944C38.1028 38.5968 38.0373 38.6168 37.9801 38.6524C37.9446 38.6815 37.9191 38.7211 37.9073 38.7655C37.9058 38.9719 37.9591 39.1751 38.0617 39.3542C38.3901 40.1042 39.8307 43.073 40.1157 43.662C40.2407 43.9183 40.2392 44.1145 40.0011 44.272C39.7629 44.4295 39.5592 44.293 39.3701 44.0755C39.0361 43.6892 37.4514 42.0236 36.9326 41.4045C36.7472 41.1542 36.523 40.9349 36.2686 40.7552C36.2326 40.7258 36.1896 40.7063 36.1438 40.6987C36.0979 40.6911 36.0509 40.6957 36.0074 40.7119C35.9639 40.7281 35.9254 40.7554 35.8957 40.7911C35.866 40.8269 35.8462 40.8697 35.8382 40.9155C35.7851 41.4386 37.2564 42.8661 37.6048 43.272C38.3782 44.1742 39.1786 45.107 39.3801 46.4983C39.43 46.7533 39.398 47.0176 39.2886 47.2534C39.1792 47.4891 38.9981 47.6842 38.7711 47.8108C37.9923 48.1667 34.9845 47.7889 34.8336 48.578C34.7501 49.0086 35.2189 49.0674 35.3439 49.053C36.0357 48.9752 37.4742 48.813 38.8082 49.2683C40.0942 49.7074 41.6592 51.1649 41.652 52.2402C41.6357 54.5189 41.3764 57.8786 40.697 60.4739C40.6709 60.574 40.6123 60.6627 40.5305 60.726C40.4487 60.7894 40.3483 60.8239 40.2448 60.8242Z" fill="#87C332"/>
<path d="M41.9473 27.9403C41.821 27.8453 41.6762 27.778 41.5222 27.7425C41.3683 27.7071 41.2086 27.7044 41.0535 27.7347C40.6628 27.8502 40.3264 28.1017 40.1051 28.4437C39.5951 29.0422 39.0079 29.5703 38.3588 30.014C38.289 29.69 38.1536 29.3838 37.961 29.114C37.7684 28.8443 37.5226 28.6168 37.2388 28.4456C37.2116 28.1579 37.1268 27.8786 36.9895 27.6243C36.8521 27.37 36.6651 27.1459 36.4394 26.9653C36.2661 26.8214 36.06 26.7223 35.8394 26.6765C36.6657 25.2512 37.3223 23.3462 37.0119 22.2412C36.9408 21.9444 36.7644 21.6835 36.5154 21.5068C36.2665 21.3302 35.9619 21.25 35.6582 21.2809C35.0982 21.304 34.6582 21.9409 33.8876 23.3594C33.7732 23.57 31.846 26.8519 30.8938 27.8009C30.7612 27.9417 30.5879 28.0376 30.3982 28.075C30.2213 28.1001 30.041 28.0813 29.873 28.0205C29.705 27.9596 29.5545 27.8585 29.4348 27.7259C29.2832 27.5547 28.8723 26.6747 28.7454 26.4759C28.1648 25.5715 26.4513 24.8525 25.6363 25.1725C25.4138 25.2343 25.2095 25.349 25.0408 25.5068C24.8722 25.6646 24.7441 25.8608 24.6676 26.0787C24.4982 26.724 24.9876 27.3259 25.4194 27.8569C25.5607 28.0306 25.6944 28.195 25.7907 28.3422C26.3958 29.2457 26.9081 30.2081 27.3198 31.2147C28.1504 33.3019 28.1035 34.8297 27.1573 36.4887C26.7384 37.2327 26.3229 37.9785 25.9107 38.7262C24.5479 41.1887 22.4885 44.9059 21.2719 46.939C21.222 47.0167 21.1961 47.1074 21.1973 47.1998C21.1985 47.2921 21.2269 47.3821 21.2788 47.4584C21.3228 47.5205 21.381 47.5711 21.4485 47.6062C21.516 47.6413 21.5909 47.6599 21.6669 47.6603C21.748 47.6603 21.8278 47.6393 21.8983 47.5993C21.9689 47.5594 22.0278 47.5018 22.0694 47.4322C23.2929 45.3875 25.3623 41.6534 26.7319 39.1822C27.2988 38.1597 27.7482 37.3484 27.9729 36.9547C29.0632 35.0428 29.1291 33.2231 28.1916 30.8697C27.757 29.8045 27.2157 28.7861 26.576 27.83C26.4529 27.6425 26.2976 27.4515 26.1476 27.2675C25.9154 26.9819 25.5269 26.504 25.5754 26.319C25.6131 26.2423 25.6702 26.1768 25.741 26.1289C25.8118 26.081 25.8939 26.0524 25.9791 26.0459C26.3247 26.0149 26.6726 26.0689 26.9925 26.2033C27.3123 26.3376 27.5944 26.5483 27.8141 26.8169C28.1094 27.1587 28.491 28.0744 28.7332 28.3481C28.9572 28.5981 29.2397 28.7885 29.5555 28.9022C29.8713 29.0159 30.2103 29.0494 30.5423 28.9997C30.9287 28.9332 31.284 28.7452 31.5563 28.4631C32.5982 27.424 34.5685 24.0684 34.7126 23.8069C34.9248 23.4169 35.4354 22.3109 35.7466 22.2159C35.7923 22.2028 35.8402 22.1998 35.8871 22.2069C35.934 22.214 35.9788 22.2312 36.0185 22.2573C36.0582 22.2833 36.0917 22.3176 36.1169 22.3578C36.1421 22.398 36.1583 22.4432 36.1644 22.4903C36.5251 23.7715 34.761 27.1431 33.9144 27.6131C33.8478 27.6502 33.7912 27.703 33.7495 27.7669C33.7078 27.8307 33.6822 27.9037 33.6749 27.9797C33.6677 28.0556 33.6789 28.1322 33.7078 28.2028C33.7367 28.2734 33.7823 28.3359 33.8407 28.385C33.9173 28.4418 34.0082 28.4759 34.1033 28.4836C34.1983 28.4912 34.2936 28.472 34.3782 28.4281C34.6336 28.2656 34.8602 28.0617 35.0485 27.8247C35.1361 27.7152 35.2588 27.6393 35.3958 27.6095C35.5328 27.5798 35.6759 27.5982 35.801 27.6615C35.8212 27.6728 35.8406 27.6855 35.8588 27.6997C36.4735 28.1865 36.1966 28.9415 36.1401 29.0809C35.8242 29.8204 35.3233 30.4661 34.6857 30.9559C34.5822 31.0594 34.4554 31.1366 34.316 31.1812C34.1765 31.2257 34.0285 31.2364 33.8841 31.2122C33.8049 31.1737 33.743 31.1068 33.7107 31.0249C33.6783 30.943 33.6779 30.8519 33.7094 30.7697C33.854 30.4686 34.0595 30.2009 34.3129 29.9834C34.3715 29.9312 34.4162 29.8653 34.4429 29.7914C34.4696 29.7176 34.4774 29.6383 34.4656 29.5607C34.4539 29.483 34.4229 29.4096 34.3755 29.347C34.3282 29.2844 34.2659 29.2346 34.1944 29.2022C34.1075 29.1645 34.0112 29.1536 33.918 29.1708C33.8248 29.188 33.7388 29.2325 33.671 29.2987C33.3207 29.6056 33.0389 29.9829 32.8441 30.4059C32.7406 30.6818 32.731 30.9842 32.817 31.2661C32.9031 31.548 33.0798 31.7936 33.3198 31.9647C33.5181 32.1149 33.7607 32.1949 34.0094 32.1922C34.0457 32.1922 34.081 32.1862 34.1166 32.1834C34.12 32.2569 34.129 32.33 34.1435 32.4022C34.2076 32.6593 34.3429 32.8932 34.5338 33.077C34.7247 33.2608 34.9635 33.3872 35.2229 33.4415C35.3485 33.4701 35.4769 33.4843 35.6057 33.484C35.9438 33.48 36.276 33.3949 36.5744 33.2359C36.9241 33.0409 37.2405 32.7915 37.5119 32.4972C37.7947 32.2102 38.021 31.8725 38.1788 31.5019C38.2774 31.2626 38.4491 31.0607 38.6694 30.925C39.4715 30.4221 40.1902 29.7974 40.7998 29.0731C40.9054 28.9375 41.1079 28.68 41.2423 28.6522C41.3151 28.6481 41.3873 28.6666 41.4491 28.7053C41.5239 28.7685 41.5771 28.8535 41.6013 28.9484C41.6256 29.0432 41.6197 29.1433 41.5844 29.2347C41.4423 29.6833 41.2314 30.1072 40.9594 30.4912C40.1663 31.6722 38.9244 32.6375 37.8438 33.5781C37.0601 34.2606 35.0082 35.3878 34.3694 35.8281C33.4491 36.4634 32.5191 37.8281 32.0469 38.5853C29.5782 42.5406 25.8366 52.3131 23.8757 59.9253C23.8448 60.0456 23.8629 60.1733 23.926 60.2803C23.9892 60.3873 24.0923 60.4649 24.2126 60.4959C24.2508 60.5059 24.2902 60.511 24.3298 60.5109C24.4337 60.5109 24.5347 60.4763 24.6168 60.4126C24.699 60.3489 24.7576 60.2597 24.7835 60.159C26.7248 52.6228 30.4154 42.9715 32.8423 39.0815C33.5698 37.9156 34.3398 36.9878 34.9016 36.5997C35.5013 36.1859 37.5998 35.0334 38.4594 34.285C39.5438 33.3409 40.7719 32.2709 41.5704 30.9119C41.6248 30.8181 42.4319 29.6156 42.4698 28.8994C42.4708 28.7084 42.4235 28.5202 42.3321 28.3525C42.2407 28.1848 42.1083 28.0429 41.9473 27.9403ZM36.8441 31.8434C36.6408 32.0661 36.4041 32.2559 36.1426 32.4059C35.9283 32.5285 35.6781 32.5727 35.4348 32.5309C35.3503 32.5155 35.2714 32.4781 35.2061 32.4224C35.1408 32.3667 35.0914 32.2947 35.0629 32.2137C35.0447 32.1159 35.0544 32.015 35.0909 31.9225C35.1275 31.8299 35.1893 31.7496 35.2694 31.6906L35.2741 31.6869C35.9507 31.1631 36.5081 30.5014 36.9091 29.7456C36.9694 29.6265 37.4163 29.6619 37.5532 30.3062C37.6616 30.8175 37.2932 31.3831 36.8441 31.8434Z" fill="#87C332"/>
</g>
<defs>
<filter id="filter0_d_65_2217" x="0" y="0" width="82" height="82" filterUnits="userSpaceOnUse" color-interpolation-filters="sRGB">
<feFlood flood-opacity="0" result="BackgroundImageFix"/>
<feColorMatrix in="SourceAlpha" type="matrix" values="0 0 0 0 0 0 0 0 0 0 0 0 0 0 0 0 0 0 127 0" result="hardAlpha"/>
<feOffset/>
<feGaussianBlur stdDeviation="6"/>
<feComposite in2="hardAlpha" operator="out"/>
<feColorMatrix type="matrix" values="0 0 0 0 0.438333 0 0 0 0 0.438333 0 0 0 0 0.438333 0 0 0 0.13 0"/>
<feBlend mode="normal" in2="BackgroundImageFix" result="effect1_dropShadow_65_2217"/>
<feBlend mode="normal" in="SourceGraphic" in2="effect1_dropShadow_65_2217" result="shape"/>
</filter>
<clipPath id="clip0_65_2217">
<rect width="40" height="40" fill="white" transform="translate(21 21)"/>
</clipPath>
</defs>
</svg>
