<svg width="40" height="40" viewBox="0 0 40 40" fill="none" xmlns="http://www.w3.org/2000/svg">
<g id="Frame">
<g id="Group">
<path id="Vector" d="M20.625 18.125C23.7262 18.125 26.25 15.6012 26.25 12.5C26.25 9.39875 23.7262 6.875 20.625 6.875C17.5238 6.875 15 9.39875 15 12.5C15 15.6012 17.5238 18.125 20.625 18.125ZM20.625 8.125C23.0375 8.125 25 10.0875 25 12.5C25 14.9125 23.0375 16.875 20.625 16.875C18.2125 16.875 16.25 14.9125 16.25 12.5C16.25 10.0875 18.2125 8.125 20.625 8.125Z" fill="#87C332"/>
<path id="Vector_2" d="M20.625 14.3751C20.2806 14.3751 20 14.0945 20 13.7501H18.75C18.75 14.5639 19.2744 15.2514 20 15.5101V16.2501H21.25V15.5101C21.6145 15.3816 21.9303 15.1435 22.1542 14.8284C22.378 14.5133 22.4988 14.1366 22.5 13.7501C22.5 12.7164 21.6588 11.8751 20.625 11.8751C20.2806 11.8751 20 11.5945 20 11.2501C20 10.9057 20.2806 10.6251 20.625 10.6251C20.9694 10.6251 21.25 10.9057 21.25 11.2501H22.5C22.4988 10.8636 22.378 10.487 22.1542 10.1718C21.9303 9.85674 21.6145 9.6186 21.25 9.49011V8.75011H20V9.49011C19.6355 9.6186 19.3197 9.85674 19.0958 10.1718C18.872 10.487 18.7512 10.8636 18.75 11.2501C18.75 12.2839 19.5912 13.1251 20.625 13.1251C20.9694 13.1251 21.25 13.4057 21.25 13.7501C21.25 14.0945 20.9694 14.3751 20.625 14.3751ZM30.27 7.66948L29.8044 10.5239C29.7854 10.6397 29.7993 10.7585 29.8447 10.8668C29.8901 10.975 29.9651 11.0683 30.061 11.136C30.1569 11.2036 30.27 11.2429 30.3872 11.2492C30.5044 11.2556 30.621 11.2288 30.7238 11.172L33.125 9.84448L35.5262 11.172C35.629 11.2283 35.7455 11.2547 35.8625 11.2481C35.9795 11.2415 36.0923 11.2022 36.1881 11.1347C36.2839 11.0671 36.3588 10.9741 36.4043 10.8661C36.4498 10.7582 36.4641 10.6396 36.4456 10.5239L35.98 7.66948L37.9469 5.65323C38.0271 5.57098 38.0832 5.4682 38.1088 5.35617C38.1345 5.24414 38.1287 5.12721 38.0922 5.01824C38.0557 4.90926 37.9899 4.81246 37.9019 4.73847C37.814 4.66449 37.7074 4.61618 37.5938 4.59886L34.9006 4.18698L33.69 1.60886C33.6398 1.50128 33.5599 1.41027 33.4597 1.34652C33.3595 1.28278 33.2432 1.24896 33.1245 1.24902C33.0058 1.24909 32.8895 1.28304 32.7894 1.3469C32.6893 1.41075 32.6095 1.50185 32.5594 1.60948L31.3488 4.18761L28.6556 4.59948C28.5421 4.61701 28.4357 4.66543 28.3479 4.73944C28.2601 4.81346 28.1943 4.91021 28.1579 5.0191C28.1214 5.12799 28.1156 5.24481 28.1411 5.35677C28.1666 5.46874 28.2225 5.57152 28.3025 5.65386L30.27 7.66948ZM31.8675 5.37323C31.9689 5.35786 32.065 5.3177 32.1472 5.25632C32.2294 5.19495 32.2952 5.11424 32.3388 5.02136L33.125 3.34636L33.9113 5.02136C33.9548 5.11424 34.0206 5.19495 34.1028 5.25632C34.185 5.3177 34.2811 5.35786 34.3825 5.37323L36.2031 5.65136L34.865 7.02261C34.7967 7.09258 34.7458 7.17762 34.7164 7.27087C34.687 7.36413 34.6798 7.46298 34.6956 7.55948L35.005 9.45511L33.4275 8.58323C33.3349 8.53202 33.2308 8.50515 33.125 8.50515C33.0192 8.50515 32.9151 8.53202 32.8225 8.58323L31.245 9.45511L31.5544 7.55948C31.5702 7.46298 31.563 7.36413 31.5336 7.27087C31.5042 7.17762 31.4533 7.09258 31.385 7.02261L30.0469 5.65136L31.8675 5.37323ZM1.875 28.7501H1.8875C5.60563 28.6757 13.1319 28.2551 17.7581 27.1501C23.5787 25.7566 29.1543 23.4881 34.2944 20.422L35.3769 22.0364C35.4428 22.1341 35.535 22.2113 35.6429 22.259C35.7508 22.3067 35.8699 22.3229 35.9866 22.3059C36.1033 22.2888 36.2128 22.2392 36.3025 22.1626C36.3922 22.0861 36.4585 21.9858 36.4938 21.8732L38.7231 14.6582C38.7831 14.4645 38.745 14.2545 38.6219 14.0939C38.4987 13.9332 38.3031 13.8382 38.1031 13.8489L31.2044 14.0995C31.0931 14.1034 30.9848 14.137 30.8909 14.1968C30.7969 14.2566 30.7207 14.3405 30.67 14.4397C30.6194 14.5389 30.5962 14.6498 30.6029 14.761C30.6096 14.8722 30.646 14.9796 30.7081 15.072L31.665 16.5001C27.0576 19.0642 22.1216 20.987 16.9938 22.2151C11.3825 23.5557 2.82125 23.762 1.86313 23.7807C1.69954 23.7838 1.5437 23.851 1.42906 23.9677C1.31442 24.0845 1.25013 24.2415 1.25 24.4051V28.1251C1.24992 28.2072 1.26603 28.2885 1.29741 28.3644C1.32879 28.4403 1.37482 28.5092 1.43288 28.5672C1.49093 28.6253 1.55986 28.6713 1.63573 28.7027C1.71159 28.7341 1.7929 28.7502 1.875 28.7501ZM2.5 25.0145C4.79125 24.9482 12.1956 24.6457 17.2837 23.4301C22.7457 22.1218 27.9935 20.0426 32.8694 17.2551C32.9438 17.2125 33.0088 17.155 33.0601 17.0862C33.1114 17.0174 33.148 16.9388 33.1676 16.8553C33.1873 16.7718 33.1895 16.6851 33.1742 16.6007C33.1589 16.5162 33.1264 16.4358 33.0787 16.3645L32.37 15.3076L37.2681 15.1295L35.6856 20.252L35.0013 19.2314C34.9115 19.0976 34.7737 19.0036 34.6163 18.969C34.459 18.9344 34.2944 18.9619 34.1569 19.0457C28.9879 22.1999 23.3564 24.5244 17.4675 25.9345C13.1931 26.9557 6.33625 27.3801 2.5 27.4851V25.0145ZM10 31.2501H5C4.83424 31.2501 4.67527 31.316 4.55806 31.4332C4.44085 31.5504 4.375 31.7094 4.375 31.8751V38.1251C4.375 38.2909 4.44085 38.4498 4.55806 38.5671C4.67527 38.6843 4.83424 38.7501 5 38.7501H10C10.1658 38.7501 10.3247 38.6843 10.4419 38.5671C10.5592 38.4498 10.625 38.2909 10.625 38.1251V31.8751C10.625 31.7094 10.5592 31.5504 10.4419 31.4332C10.3247 31.316 10.1658 31.2501 10 31.2501ZM9.375 37.5001H5.625V32.5001H9.375V37.5001ZM18.125 30.0001H13.125C12.9592 30.0001 12.8003 30.066 12.6831 30.1832C12.5658 30.3004 12.5 30.4594 12.5 30.6251V38.1251C12.5 38.2909 12.5658 38.4498 12.6831 38.5671C12.8003 38.6843 12.9592 38.7501 13.125 38.7501H18.125C18.2908 38.7501 18.4497 38.6843 18.5669 38.5671C18.6842 38.4498 18.75 38.2909 18.75 38.1251V30.6251C18.75 30.4594 18.6842 30.3004 18.5669 30.1832C18.4497 30.066 18.2908 30.0001 18.125 30.0001ZM17.5 37.5001H13.75V31.2501H17.5V37.5001ZM26.25 28.1251H21.25C21.0842 28.1251 20.9253 28.191 20.8081 28.3082C20.6908 28.4254 20.625 28.5844 20.625 28.7501V38.1251C20.625 38.2909 20.6908 38.4498 20.8081 38.5671C20.9253 38.6843 21.0842 38.7501 21.25 38.7501H26.25C26.4158 38.7501 26.5747 38.6843 26.6919 38.5671C26.8092 38.4498 26.875 38.2909 26.875 38.1251V28.7501C26.875 28.5844 26.8092 28.4254 26.6919 28.3082C26.5747 28.191 26.4158 28.1251 26.25 28.1251ZM25.625 37.5001H21.875V29.3751H25.625V37.5001ZM34.375 25.6251H29.375C29.2092 25.6251 29.0503 25.691 28.9331 25.8082C28.8158 25.9254 28.75 26.0844 28.75 26.2501V38.1251C28.75 38.2909 28.8158 38.4498 28.9331 38.5671C29.0503 38.6843 29.2092 38.7501 29.375 38.7501H34.375C34.5408 38.7501 34.6997 38.6843 34.8169 38.5671C34.9342 38.4498 35 38.2909 35 38.1251V26.2501C35 26.0844 34.9342 25.9254 34.8169 25.8082C34.6997 25.691 34.5408 25.6251 34.375 25.6251ZM33.75 37.5001H30V26.8751H33.75V37.5001Z" fill="#87C332"/>
<path id="Vector_3" d="M2.5 16.2484V21.2484C2.5 21.4142 2.56585 21.5732 2.68306 21.6904C2.80027 21.8076 2.95924 21.8734 3.125 21.8734H11.875C12.0408 21.8734 12.1997 21.8076 12.3169 21.6904C12.4342 21.5732 12.5 21.4142 12.5 21.2484V16.2484C12.6658 16.2484 12.8247 16.1826 12.9419 16.0654C13.0592 15.9482 13.125 15.7892 13.125 15.6234V13.1234C13.125 12.9577 13.0592 12.7987 12.9419 12.6815C12.8247 12.5643 12.6658 12.4984 12.5 12.4984H11.5C12.0244 11.5459 12.0112 10.5072 11.3769 9.86655C10.5406 9.03905 9.01 9.27093 7.89813 10.3916C7.75317 10.5356 7.62003 10.6911 7.5 10.8566C7.38123 10.6924 7.24934 10.5381 7.10563 10.3953C5.98938 9.27093 4.46 9.03905 3.6175 9.87155C2.98563 10.5103 2.97562 11.5522 3.49625 12.4984H2.5C2.33424 12.4984 2.17527 12.5643 2.05806 12.6815C1.94085 12.7987 1.875 12.9577 1.875 13.1234V15.6234C1.875 15.7892 1.94085 15.9482 2.05806 16.0654C2.17527 16.1826 2.33424 16.2484 2.5 16.2484ZM5.625 20.6234H3.75V16.2484H5.625V20.6234ZM8.125 20.6234H6.875V16.2484H8.125V20.6234ZM11.25 20.6234H9.375V16.2484H11.25V20.6234ZM11.875 13.7484V14.9984H10V13.7484H11.875ZM8.78062 11.2759C9.4175 10.6353 10.2125 10.4722 10.4931 10.7503C10.7756 11.0366 10.6131 11.8309 9.95375 12.4866L9.94063 12.4984H8.13875C8.17375 12.1034 8.40625 11.6472 8.78062 11.2759ZM8.75 13.7484V14.9984H6.25V13.7484H8.75ZM4.50187 10.7553C4.78813 10.4728 5.5825 10.6353 6.22312 11.2803C6.59437 11.6478 6.82625 12.1034 6.86125 12.4984H5.05813L5.0275 12.4678C4.38687 11.8316 4.22438 11.0366 4.50187 10.7553ZM3.125 13.7484H5V14.9984H3.125V13.7484Z" fill="#87C332"/>
</g>
</g>
</svg>
