<svg width="22" height="22" viewBox="0 0 22 22" fill="none" xmlns="http://www.w3.org/2000/svg">
<g id="Frame">
<g id="Group">
<path id="Vector" fill-rule="evenodd" clip-rule="evenodd" d="M20.3731 10.596L2.90233 2.14203C2.82915 2.10659 2.74733 2.09293 2.6666 2.10266C2.58587 2.11239 2.50964 2.1451 2.44697 2.19691C2.3843 2.24871 2.33783 2.31743 2.31309 2.39489C2.28835 2.47234 2.28638 2.55528 2.30742 2.63382L4.29979 10.1047C4.45609 10.6909 4.45609 11.3078 4.29979 11.894L2.30742 19.3648C2.28638 19.4434 2.28835 19.5263 2.31309 19.6037C2.33783 19.6812 2.3843 19.7499 2.44697 19.8017C2.50964 19.8535 2.58587 19.8862 2.6666 19.896C2.74733 19.9057 2.82915 19.892 2.90233 19.8566L20.374 11.4026C20.4497 11.3659 20.5136 11.3086 20.5583 11.2373C20.603 11.166 20.6267 11.0835 20.6267 10.9993C20.6267 10.9151 20.603 10.8327 20.5583 10.7613C20.5136 10.69 20.4497 10.6327 20.374 10.596H20.3731Z" fill="#87C332"/>
<path id="Vector_2" fill-rule="evenodd" clip-rule="evenodd" d="M2.66522 2.10318C2.60493 2.11051 2.54691 2.13069 2.49509 2.16236C2.44326 2.19403 2.39884 2.23646 2.36482 2.28677C2.3308 2.33708 2.30798 2.39411 2.29789 2.454C2.2878 2.51389 2.29068 2.57525 2.30634 2.63393L4.29963 10.1043C4.37737 10.3963 4.41666 10.6972 4.41651 10.9994H20.6255C20.6254 10.9152 20.6016 10.8327 20.5567 10.7613C20.5119 10.69 20.4479 10.6327 20.372 10.5961L2.90172 2.14214C2.82831 2.10654 2.7462 2.09332 2.66522 2.10318Z" fill="#68A81D"/>
</g>
</g>
</svg>
