<svg width="620" height="594" viewBox="0 0 620 594" fill="none" xmlns="http://www.w3.org/2000/svg">
<rect x="13.5" y="0.5" width="593" height="593" rx="296.5" stroke="#87C332"/>
<rect x="31" y="18" width="558" height="558" rx="279" fill="white"/>
<g clip-path="url(#clip0_21_2337)">
<g style="mix-blend-mode:screen" opacity="0.1">
<path d="M325.583 175.742L447.351 181.083V188.038L325.583 182.656V175.742Z" fill="#81BCF7"/>
</g>
<g style="mix-blend-mode:multiply" filter="url(#filter0_f_21_2337)">
<path d="M549.527 432.795C549.527 438.011 442.267 442.234 310 442.234C177.733 442.234 70.4733 438.011 70.4733 432.795C70.4733 427.579 177.733 423.356 310 423.356C442.267 423.356 549.527 427.579 549.527 432.795Z" fill="#87C332"/>
</g>
<path d="M334.717 365.686C320.995 365.686 309.835 380.134 309.835 397.895C309.835 415.697 320.995 430.145 334.717 430.145H345.009V365.686H334.717Z" fill="#010F19"/>
<path d="M345.009 428.903C331.989 428.903 321.367 414.993 321.367 397.895C321.367 380.838 331.989 366.928 345.009 366.928C358.029 366.928 368.652 380.838 368.652 397.895C368.652 414.993 358.029 428.903 345.009 428.903Z" fill="#05151E"/>
<path fill-rule="evenodd" clip-rule="evenodd" d="M369.892 397.895C369.892 415.697 358.732 430.145 345.009 430.145C331.287 430.145 320.127 415.697 320.127 397.895C320.127 380.134 331.287 365.686 345.009 365.686C358.732 365.686 369.892 380.134 369.892 397.895ZM322.607 397.895C322.607 414.331 332.651 427.661 345.009 427.661C357.368 427.661 367.412 414.331 367.412 397.895C367.412 381.5 357.368 368.17 345.009 368.17C332.651 368.17 322.607 381.5 322.607 397.895Z" fill="#010F19"/>
<path d="M286.771 399.758H370.512C377.456 399.758 384.111 396.984 388.988 392.057L399.776 381.128L503.936 381.956C505.672 381.956 507.325 381.666 508.896 381.045C512.781 379.555 515.675 376.243 516.956 372.31L521.916 356.95H393.369L286.771 345.068V399.758Z" fill="#010F19"/>
<path d="M499.183 348.173V402.325C499.183 407.582 494.925 411.847 489.676 411.847H451.071L449.335 358.979L476.077 342.129L499.183 348.173Z" fill="#05151E"/>
<path d="M210.717 389.905V400.006H233.864C233.864 400.006 233.988 392.678 236.964 388.166L210.717 389.905Z" fill="#010F19"/>
<path d="M219.067 395.245C219.067 396.57 220.141 397.688 221.464 397.688L224.109 397.729C225.473 397.729 226.589 396.611 226.589 395.245C226.589 393.92 225.515 392.803 224.151 392.803L221.547 392.761C220.141 392.761 219.067 393.879 219.067 395.245Z" fill="#FC6A64"/>
<path d="M221.547 392.761C220.141 392.761 219.067 393.879 219.067 395.245C219.067 395.701 219.191 396.156 219.439 396.529C219.549 396.556 219.659 396.57 219.769 396.57H222.415C223.779 396.611 224.895 395.494 224.895 394.127C224.895 393.631 224.771 393.217 224.523 392.844C224.412 392.816 224.288 392.803 224.151 392.803L221.547 392.761Z" fill="#FC6A64"/>
<path d="M442.556 371.15C428.833 371.15 417.673 385.64 417.673 403.401C417.673 421.203 428.833 435.652 442.556 435.652H452.848V371.15H442.556Z" fill="#072035"/>
<path d="M452.848 434.575C439.704 434.575 429.04 420.582 429.04 403.401C429.04 386.22 439.704 372.227 452.848 372.227C465.992 372.227 476.656 386.22 476.656 403.401C476.656 420.582 465.992 434.575 452.848 434.575Z" fill="#0B3053"/>
<path fill-rule="evenodd" clip-rule="evenodd" d="M477.731 403.401C477.731 421.203 466.571 435.652 452.848 435.652C439.125 435.652 427.965 421.203 427.965 403.401C427.965 385.64 439.125 371.15 452.848 371.15C466.571 371.15 477.731 385.64 477.731 403.401ZM430.073 403.401C430.073 420.002 440.283 433.54 452.848 433.54C465.372 433.54 475.581 420.002 475.581 403.401C475.581 386.8 465.372 373.303 452.848 373.303C440.283 373.303 430.073 386.8 430.073 403.401Z" fill="#072035"/>
<path d="M458.428 371.15C444.705 371.15 433.545 385.64 433.545 403.401C433.545 421.203 444.705 435.652 458.428 435.652H468.72V371.15H458.428Z" fill="#072035"/>
<path d="M468.72 434.575C455.576 434.575 444.912 420.582 444.912 403.401C444.912 386.22 455.576 372.227 468.72 372.227C481.864 372.227 492.528 386.22 492.528 403.401C492.528 420.582 481.864 434.575 468.72 434.575Z" fill="#0B3053"/>
<path fill-rule="evenodd" clip-rule="evenodd" d="M493.603 403.401C493.603 421.203 482.443 435.652 468.72 435.652C454.997 435.652 443.837 421.203 443.837 403.401C443.837 385.64 454.997 371.15 468.72 371.15C482.443 371.15 493.603 385.64 493.603 403.401ZM445.945 403.401C445.945 420.002 456.155 433.54 468.72 433.54C481.244 433.54 491.453 420.002 491.453 403.401C491.453 386.8 481.244 373.303 468.72 373.303C456.155 373.303 445.945 386.8 445.945 403.401Z" fill="#072035"/>
<path d="M468.72 386.427C461.487 386.427 455.617 394.045 455.617 403.401C455.617 412.757 461.487 420.375 468.72 420.375C475.953 420.375 481.823 412.757 481.823 403.401C481.823 394.045 475.953 386.427 468.72 386.427Z" fill="#1454AE"/>
<path d="M468.72 388.083C467.935 388.083 467.273 388.952 467.273 389.946C467.273 390.981 467.935 391.809 468.72 391.809C469.505 391.809 470.167 390.981 470.167 389.946C470.167 388.952 469.505 388.083 468.72 388.083Z" fill="#0B3053"/>
<path d="M460.371 411.598C459.792 412.343 459.792 413.503 460.371 414.248C460.619 414.579 460.991 414.786 461.363 414.786C461.776 414.786 462.107 414.579 462.396 414.248C462.975 413.503 462.975 412.343 462.396 411.598C462.107 411.267 461.735 411.06 461.363 411.06C460.991 411.06 460.619 411.267 460.371 411.598Z" fill="#0B3053"/>
<path d="M460.371 392.596C459.792 393.299 459.792 394.5 460.371 395.204C460.619 395.576 460.991 395.742 461.363 395.742C461.776 395.742 462.107 395.576 462.396 395.204C462.975 394.5 462.975 393.299 462.396 392.596C462.107 392.223 461.735 392.057 461.363 392.057C460.991 392.057 460.619 392.223 460.371 392.596Z" fill="#0B3053"/>
<path d="M458.345 401.538C457.56 401.538 456.899 402.366 456.899 403.401C456.899 404.436 457.56 405.264 458.345 405.264C459.131 405.264 459.792 404.436 459.792 403.401C459.792 402.366 459.131 401.538 458.345 401.538Z" fill="#0B3053"/>
<path d="M475.044 411.598C474.465 412.343 474.465 413.503 475.044 414.248C475.333 414.62 475.705 414.786 476.036 414.786C476.408 414.786 476.78 414.62 477.069 414.248C477.648 413.503 477.648 412.343 477.069 411.598C476.78 411.226 476.408 411.06 476.036 411.06C475.705 411.06 475.333 411.226 475.044 411.598Z" fill="#0B3053"/>
<path d="M475.044 392.596C474.465 393.299 474.465 394.5 475.044 395.204C475.333 395.576 475.705 395.742 476.036 395.742C476.408 395.742 476.78 395.576 477.069 395.204C477.648 394.5 477.648 393.299 477.069 392.596C476.78 392.223 476.408 392.057 476.036 392.057C475.705 392.057 475.333 392.223 475.044 392.596Z" fill="#0B3053"/>
<path d="M468.72 414.993C467.935 414.993 467.273 415.821 467.273 416.856C467.273 417.891 467.935 418.719 468.72 418.719C469.505 418.719 470.167 417.891 470.167 416.856C470.167 415.821 469.505 414.993 468.72 414.993Z" fill="#0B3053"/>
<path d="M479.095 401.538C478.309 401.538 477.648 402.366 477.648 403.401C477.648 404.436 478.309 405.264 479.095 405.264C479.88 405.264 480.541 404.436 480.541 403.401C480.541 402.366 479.88 401.538 479.095 401.538Z" fill="#0B3053"/>
<path d="M468.72 393.424C464.463 393.424 460.991 397.895 460.991 403.401C460.991 408.907 464.463 413.42 468.72 413.42C472.977 413.42 476.449 408.907 476.449 403.401C476.449 397.895 472.977 393.424 468.72 393.424Z" fill="#072035"/>
<path d="M440.737 371.15C427.056 371.15 415.896 385.64 415.896 403.401C415.896 421.203 427.056 435.652 440.737 435.652H451.029V371.15H440.737Z" fill="#072035"/>
<path d="M451.029 434.575C437.885 434.575 427.221 420.582 427.221 403.401C427.221 386.22 437.885 372.227 451.029 372.227C464.173 372.227 474.837 386.22 474.837 403.401C474.837 420.582 464.173 434.575 451.029 434.575Z" fill="#0B3053"/>
<path fill-rule="evenodd" clip-rule="evenodd" d="M475.912 403.401C475.912 421.203 464.752 435.652 451.029 435.652C437.307 435.652 426.147 421.203 426.147 403.401C426.147 385.64 437.307 371.15 451.029 371.15C464.752 371.15 475.912 385.64 475.912 403.401ZM428.296 403.401C428.296 420.002 438.505 433.54 451.029 433.54C463.595 433.54 473.804 420.002 473.804 403.401C473.804 386.8 463.595 373.303 451.029 373.303C438.505 373.303 428.296 386.8 428.296 403.401Z" fill="#072035"/>
<path d="M458.428 371.15C444.705 371.15 433.545 385.64 433.545 403.401C433.545 421.203 444.705 435.652 458.428 435.652H468.72V371.15H458.428Z" fill="#072035"/>
<path d="M468.72 434.575C455.576 434.575 444.912 420.582 444.912 403.401C444.912 386.22 455.576 372.227 468.72 372.227C481.864 372.227 492.528 386.22 492.528 403.401C492.528 420.582 481.864 434.575 468.72 434.575Z" fill="#0B3053"/>
<path fill-rule="evenodd" clip-rule="evenodd" d="M493.603 403.401C493.603 421.203 482.443 435.652 468.72 435.652C454.997 435.652 443.837 421.203 443.837 403.401C443.837 385.64 454.997 371.15 468.72 371.15C482.443 371.15 493.603 385.64 493.603 403.401ZM445.945 403.401C445.945 420.002 456.155 433.54 468.72 433.54C481.244 433.54 491.453 420.002 491.453 403.401C491.453 386.8 481.244 373.303 468.72 373.303C456.155 373.303 445.945 386.8 445.945 403.401Z" fill="#072035"/>
<path d="M468.72 386.427C461.487 386.427 455.617 394.045 455.617 403.401C455.617 412.757 461.487 420.375 468.72 420.375C475.953 420.375 481.823 412.757 481.823 403.401C481.823 394.045 475.953 386.427 468.72 386.427Z" fill="#1454AE"/>
<path d="M468.72 388.083C467.935 388.083 467.273 388.952 467.273 389.946C467.273 390.981 467.935 391.809 468.72 391.809C469.505 391.809 470.167 390.981 470.167 389.946C470.167 388.952 469.505 388.083 468.72 388.083Z" fill="#0B3053"/>
<path d="M460.371 411.598C459.792 412.343 459.792 413.503 460.371 414.248C460.619 414.579 460.991 414.786 461.363 414.786C461.776 414.786 462.107 414.579 462.396 414.248C462.975 413.503 462.975 412.343 462.396 411.598C462.107 411.267 461.735 411.06 461.363 411.06C460.991 411.06 460.619 411.267 460.371 411.598Z" fill="#0B3053"/>
<path d="M460.371 392.596C459.792 393.299 459.792 394.5 460.371 395.204C460.619 395.576 460.991 395.742 461.363 395.742C461.776 395.742 462.107 395.576 462.396 395.204C462.975 394.5 462.975 393.299 462.396 392.596C462.107 392.223 461.735 392.057 461.363 392.057C460.991 392.057 460.619 392.223 460.371 392.596Z" fill="#0B3053"/>
<path d="M458.345 401.538C457.56 401.538 456.899 402.366 456.899 403.401C456.899 404.436 457.56 405.264 458.345 405.264C459.131 405.264 459.792 404.436 459.792 403.401C459.792 402.366 459.131 401.538 458.345 401.538Z" fill="#0B3053"/>
<path d="M475.044 411.598C474.465 412.343 474.465 413.503 475.044 414.248C475.333 414.62 475.705 414.786 476.036 414.786C476.408 414.786 476.78 414.62 477.069 414.248C477.648 413.503 477.648 412.343 477.069 411.598C476.78 411.226 476.408 411.06 476.036 411.06C475.705 411.06 475.333 411.226 475.044 411.598Z" fill="#0B3053"/>
<path d="M475.044 392.596C474.465 393.299 474.465 394.5 475.044 395.204C475.333 395.576 475.705 395.742 476.036 395.742C476.408 395.742 476.78 395.576 477.069 395.204C477.648 394.5 477.648 393.299 477.069 392.596C476.78 392.223 476.408 392.057 476.036 392.057C475.705 392.057 475.333 392.223 475.044 392.596Z" fill="#0B3053"/>
<path d="M468.72 414.993C467.935 414.993 467.273 415.821 467.273 416.856C467.273 417.891 467.935 418.719 468.72 418.719C469.505 418.719 470.167 417.891 470.167 416.856C470.167 415.821 469.505 414.993 468.72 414.993Z" fill="#0B3053"/>
<path d="M479.095 401.538C478.309 401.538 477.648 402.366 477.648 403.401C477.648 404.436 478.309 405.264 479.095 405.264C479.88 405.264 480.541 404.436 480.541 403.401C480.541 402.366 479.88 401.538 479.095 401.538Z" fill="#0B3053"/>
<path d="M468.72 393.424C464.463 393.424 460.991 397.895 460.991 403.401C460.991 408.907 464.463 413.42 468.72 413.42C472.977 413.42 476.449 408.907 476.449 403.401C476.449 397.895 472.977 393.424 468.72 393.424Z" fill="#072035"/>
<path d="M435.157 371.15H463.967C452.269 371.233 442.763 386.22 442.763 404.643C442.763 404.671 442.763 404.684 442.763 404.684C442.763 405.761 441.895 406.672 440.779 406.672H438.919C438.919 406.672 413.871 405.347 413.871 404.684C413.871 386.179 423.419 371.15 435.157 371.15Z" fill="#0B3053"/>
<path d="M433.463 370.819L461.941 371.15C450.203 371.233 440.696 386.22 440.696 404.643C440.696 405.333 440.71 406.009 440.737 406.672H413.788C412.713 406.672 411.804 405.761 411.804 404.684C411.804 386.179 421.724 370.819 433.463 370.819Z" fill="#010F19"/>
<path d="M544.525 336.664V370.819L533.448 356.039L531.464 358.027L543.203 373.717C544.029 374.835 545.352 375.497 546.799 375.497H551.263C552.172 375.497 552.916 374.752 552.916 373.841V338.32C552.916 337.368 552.172 336.664 551.263 336.664H544.525Z" fill="#05151E"/>
<path d="M334.635 357.82L544.525 359.807V157.775L334.635 146.348V357.82Z" fill="#1473FA"/>
<path d="M334.635 357.82L544.525 359.807V168.539L334.635 157.112V357.82Z" fill="#6EB6FF"/>
<path d="M173.931 355.336V151.316L334.635 146.348V357.82L173.931 355.336Z" fill="#1473FA"/>
<path d="M173.931 355.336V162.08L334.635 157.112V357.82L173.931 355.336Z" fill="#8EC3F7"/>
<g style="mix-blend-mode:multiply" opacity="0.3">
<path d="M292.888 347.138H334.635V357.82L292.061 357.157L292.888 347.138Z" fill="#8EC3F7"/>
</g>
<g style="mix-blend-mode:multiply" opacity="0.3">
<path d="M334.635 146.348V157.112L544.525 168.539V157.775L334.635 146.348Z" fill="#1473FA"/>
</g>
<path d="M334.635 347.138L544.525 349.167V168.539L334.635 157.112V347.138Z" fill="#8EC3F7"/>
<g style="mix-blend-mode:screen" opacity="0.2">
<path d="M334.8 347.056V158.603L544.525 170.029V349.043L334.8 347.056Z" fill="#8EC3F7"/>
</g>
<g style="mix-blend-mode:screen" opacity="0.1">
<path d="M474.755 166.22L428.007 163.695L334.8 315.923V347.056L370.636 347.387L474.755 166.22Z" fill="#8EC3F7"/>
</g>
<g style="mix-blend-mode:screen" opacity="0.1">
<path d="M413.581 347.801L502.531 348.629L544.525 275.599V170.029L523.156 168.87L413.581 347.801Z" fill="#8EC3F7"/>
</g>
<g style="mix-blend-mode:screen" opacity="0.3">
<path d="M334.635 349.622V356.164L544.525 358.151V351.651L334.635 349.622Z" fill="#8EC3F7"/>
</g>
<path d="M384.607 353.39C384.607 355.211 386.053 356.66 387.831 356.66L391.303 356.702C393.121 356.702 394.609 355.253 394.609 353.431C394.609 351.651 393.163 350.202 391.385 350.161H387.913C386.095 350.119 384.607 351.61 384.607 353.39Z" fill="#FC6A64"/>
<path d="M404.612 353.597C404.612 355.377 406.059 356.826 407.836 356.867L411.308 356.909C413.127 356.909 414.615 355.46 414.615 353.638C414.615 351.858 413.168 350.368 411.391 350.368L407.877 350.326C406.059 350.326 404.612 351.775 404.612 353.597Z" fill="#FC6A64"/>
<path d="M424.576 353.804C424.576 355.584 426.023 357.033 427.8 357.033L431.313 357.074C433.091 357.116 434.579 355.625 434.579 353.804C434.579 352.024 433.132 350.575 431.355 350.575L427.883 350.533C426.064 350.492 424.576 351.982 424.576 353.804Z" fill="#FC6A64"/>
<path d="M344.637 353.017C344.637 354.797 346.084 356.246 347.861 356.288L351.333 356.329C353.152 356.329 354.64 354.88 354.64 353.059C354.64 351.278 353.193 349.829 351.416 349.788L347.903 349.747C346.125 349.747 344.637 351.196 344.637 353.017Z" fill="#FC6A64"/>
<path d="M364.643 353.224C364.643 355.004 366.048 356.453 367.867 356.495H371.339C373.157 356.536 374.604 355.046 374.604 353.266C374.604 351.444 373.199 349.995 371.38 349.995L367.908 349.954C366.089 349.954 364.643 351.403 364.643 353.224Z" fill="#FC6A64"/>
<path d="M484.551 354.342V354.383C484.551 356.164 485.997 357.613 487.775 357.613L491.288 357.654C493.065 357.695 494.553 356.205 494.553 354.383C494.553 352.603 493.107 351.154 491.329 351.154L487.857 351.113C486.039 351.071 484.551 352.562 484.551 354.342Z" fill="#FC6A64"/>
<path d="M504.556 354.549C504.556 356.329 506.003 357.82 507.78 357.82L511.252 357.861C513.071 357.861 514.559 356.412 514.559 354.59C514.559 352.81 513.112 351.361 511.335 351.32L507.821 351.278C506.044 351.278 504.556 352.727 504.556 354.549Z" fill="#FC6A64"/>
<path d="M524.52 354.756C524.52 356.536 525.967 357.985 527.744 358.027H531.257C533.076 358.068 534.523 356.578 534.523 354.797C534.523 352.976 533.076 351.527 531.299 351.527L527.827 351.485C526.008 351.485 524.52 352.934 524.52 354.756Z" fill="#FC6A64"/>
<path d="M444.581 353.969C444.581 355.75 446.028 357.24 447.805 357.24L451.277 357.281C453.096 357.281 454.584 355.832 454.584 354.011C454.584 352.231 453.137 350.782 451.36 350.74L447.888 350.699C446.069 350.699 444.581 352.148 444.581 353.969Z" fill="#FC6A64"/>
<path d="M464.587 354.176C464.587 355.957 465.992 357.406 467.811 357.447H471.283C473.101 357.488 474.548 356.039 474.548 354.218C474.548 352.396 473.143 350.947 471.324 350.947L467.852 350.906C466.033 350.906 464.587 352.355 464.587 354.176Z" fill="#FC6A64"/>
<g style="mix-blend-mode:screen" opacity="0.4">
<path d="M387.913 350.161C386.095 350.119 384.607 351.61 384.607 353.39C384.607 354.052 384.813 354.632 385.103 355.129C385.268 355.156 385.433 355.17 385.599 355.17L389.071 355.211C390.889 355.211 392.377 353.762 392.377 351.941C392.377 351.32 392.171 350.74 391.881 350.243C391.716 350.216 391.551 350.188 391.385 350.161H387.913Z" fill="#FC6A64"/>
<path d="M407.877 350.326C406.1 350.326 404.612 351.775 404.612 353.597C404.612 354.218 404.777 354.797 405.108 355.294C405.246 355.322 405.411 355.349 405.604 355.377H409.076C410.895 355.418 412.341 353.928 412.341 352.148C412.341 351.485 412.176 350.906 411.845 350.409C411.708 350.381 411.556 350.368 411.391 350.368L407.877 350.326Z" fill="#FC6A64"/>
<path d="M427.883 350.533C426.064 350.492 424.576 351.982 424.576 353.804C424.576 354.425 424.783 355.004 425.072 355.501C425.237 355.529 425.403 355.543 425.568 355.543L429.04 355.584C430.859 355.584 432.347 354.135 432.347 352.313C432.347 351.692 432.14 351.113 431.851 350.616C431.685 350.588 431.52 350.575 431.355 350.575L427.883 350.533Z" fill="#FC6A64"/>
<path d="M347.903 349.747C346.125 349.747 344.637 351.196 344.637 353.017C344.637 353.638 344.803 354.218 345.133 354.715C345.299 354.742 345.464 354.77 345.629 354.797L349.101 354.839C350.92 354.839 352.408 353.39 352.408 351.568C352.408 350.947 352.201 350.368 351.912 349.829C351.747 349.802 351.581 349.788 351.416 349.788L347.903 349.747Z" fill="#FC6A64"/>
<path d="M367.908 349.954C366.089 349.954 364.643 351.403 364.643 353.224C364.643 353.845 364.808 354.425 365.097 354.922C365.263 354.949 365.428 354.963 365.593 354.963L369.107 355.004C370.884 355.046 372.372 353.555 372.372 351.734C372.372 351.113 372.207 350.533 371.876 350.036C371.711 350.009 371.545 349.995 371.38 349.995L367.908 349.954Z" fill="#FC6A64"/>
<path d="M487.857 351.113C486.039 351.071 484.551 352.562 484.551 354.342V354.383C484.551 355.004 484.757 355.584 485.047 356.081C485.212 356.108 485.377 356.122 485.543 356.122L489.015 356.164C490.833 356.164 492.321 354.715 492.321 352.893C492.321 352.272 492.115 351.692 491.825 351.196C491.66 351.168 491.495 351.154 491.329 351.154L487.857 351.113Z" fill="#FC6A64"/>
<path d="M507.821 351.278C506.044 351.278 504.556 352.727 504.556 354.549C504.556 355.17 504.721 355.75 505.052 356.246C505.217 356.302 505.383 356.329 505.548 356.329L509.02 356.371C510.839 356.371 512.285 354.922 512.285 353.1C512.285 352.479 512.12 351.858 511.789 351.361C511.652 351.334 511.5 351.32 511.335 351.32L507.821 351.278Z" fill="#FC6A64"/>
<path d="M527.827 351.485C526.008 351.485 524.52 352.934 524.52 354.756C524.52 355.377 524.727 355.957 525.016 356.453C525.181 356.481 525.347 356.495 525.512 356.495L528.984 356.536C530.803 356.578 532.291 355.087 532.291 353.266C532.291 352.645 532.125 352.065 531.795 351.568C531.629 351.541 531.464 351.527 531.299 351.527L527.827 351.485Z" fill="#FC6A64"/>
<path d="M447.888 350.699C446.069 350.699 444.581 352.148 444.581 353.969C444.581 354.59 444.747 355.211 445.077 355.708C445.243 355.736 445.408 355.75 445.573 355.75L449.045 355.791C450.864 355.791 452.352 354.342 452.352 352.52C452.352 351.899 452.145 351.32 451.856 350.823C451.691 350.768 451.525 350.74 451.36 350.74L447.888 350.699Z" fill="#FC6A64"/>
<path d="M467.852 350.906C466.033 350.906 464.587 352.355 464.587 354.176C464.587 354.797 464.752 355.377 465.083 355.874C465.22 355.901 465.372 355.929 465.537 355.957H469.051C470.828 355.998 472.316 354.508 472.316 352.727V352.686C472.316 352.065 472.151 351.485 471.82 350.989C471.655 350.961 471.489 350.947 471.324 350.947L467.852 350.906Z" fill="#FC6A64"/>
</g>
<path d="M296.732 348.836V408.907C296.732 414.786 292.02 419.506 286.151 419.506H243.329L241.428 360.842L271.105 342.129L296.732 348.836Z" fill="#072035"/>
<path d="M262.26 358.316C244.817 358.316 235.311 375.332 235.311 396.28C235.311 417.27 244.817 420.209 262.26 420.209C279.703 420.209 293.921 417.27 293.921 396.28C293.921 375.332 279.703 358.316 262.26 358.316Z" fill="#010F19"/>
<path d="M256.597 371.15C242.875 371.15 231.756 385.64 231.756 403.401C231.756 421.203 242.875 435.652 256.597 435.652H266.889V371.15H256.597Z" fill="#072035"/>
<path d="M266.889 434.575C253.745 434.575 243.081 420.582 243.081 403.401C243.081 386.22 253.745 372.227 266.889 372.227C280.033 372.227 290.697 386.22 290.697 403.401C290.697 420.582 280.033 434.575 266.889 434.575Z" fill="#0B3053"/>
<path fill-rule="evenodd" clip-rule="evenodd" d="M291.772 403.401C291.772 421.203 280.612 435.652 266.889 435.652C253.167 435.652 242.007 421.203 242.007 403.401C242.007 385.64 253.167 371.15 266.889 371.15C280.612 371.15 291.772 385.64 291.772 403.401ZM244.156 403.401C244.156 420.002 254.324 433.54 266.889 433.54C279.455 433.54 289.664 420.002 289.664 403.401C289.664 386.8 279.455 373.303 266.889 373.303C254.324 373.303 244.156 386.8 244.156 403.401Z" fill="#072035"/>
<path d="M266.889 386.427C259.656 386.427 253.787 394.045 253.787 403.401C253.787 412.757 259.656 420.375 266.889 420.375C274.123 420.375 279.992 412.757 279.992 403.401C279.992 394.045 274.123 386.427 266.889 386.427Z" fill="#1454AE"/>
<path d="M266.889 388.083C266.104 388.083 265.443 388.952 265.443 389.946C265.443 390.981 266.104 391.809 266.889 391.809C267.675 391.809 268.336 390.981 268.336 389.946C268.336 388.952 267.675 388.083 266.889 388.083Z" fill="#0B3053"/>
<path d="M258.54 411.598C257.961 412.343 257.961 413.503 258.54 414.248C258.788 414.579 259.16 414.786 259.573 414.786C259.945 414.786 260.317 414.579 260.565 414.248C261.144 413.503 261.144 412.343 260.565 411.598C260.317 411.267 259.945 411.06 259.573 411.06C259.201 411.06 258.829 411.267 258.54 411.598Z" fill="#0B3053"/>
<path d="M258.54 392.596C257.961 393.299 257.961 394.5 258.54 395.204C258.788 395.576 259.16 395.742 259.573 395.742C259.945 395.742 260.317 395.576 260.565 395.204C261.144 394.5 261.144 393.299 260.565 392.596C260.317 392.223 259.945 392.057 259.573 392.057C259.201 392.057 258.829 392.223 258.54 392.596Z" fill="#0B3053"/>
<path d="M256.515 401.538C255.729 401.538 255.068 402.366 255.068 403.401C255.068 404.436 255.729 405.264 256.515 405.264C257.3 405.264 257.961 404.436 257.961 403.401C257.961 402.366 257.3 401.538 256.515 401.538Z" fill="#0B3053"/>
<path d="M273.213 411.598C272.635 412.343 272.635 413.503 273.213 414.248C273.503 414.62 273.875 414.786 274.247 414.786C274.577 414.786 274.949 414.62 275.239 414.248C275.817 413.503 275.817 412.343 275.239 411.598C274.949 411.226 274.577 411.06 274.247 411.06C273.875 411.06 273.503 411.226 273.213 411.598Z" fill="#0B3053"/>
<path d="M273.213 392.596C272.635 393.299 272.635 394.5 273.213 395.204C273.503 395.576 273.875 395.742 274.247 395.742C274.577 395.742 274.949 395.576 275.239 395.204C275.817 394.5 275.817 393.299 275.239 392.596C274.949 392.223 274.577 392.057 274.247 392.057C273.875 392.057 273.503 392.223 273.213 392.596Z" fill="#0B3053"/>
<path d="M266.889 414.993C266.104 414.993 265.443 415.821 265.443 416.856C265.443 417.891 266.104 418.719 266.889 418.719C267.675 418.719 268.336 417.891 268.336 416.856C268.336 415.821 267.675 414.993 266.889 414.993Z" fill="#0B3053"/>
<path d="M277.264 401.538C276.479 401.538 275.817 402.366 275.817 403.401C275.817 404.436 276.479 405.264 277.264 405.264C278.049 405.264 278.711 404.436 278.711 403.401C278.711 402.366 278.049 401.538 277.264 401.538Z" fill="#0B3053"/>
<path d="M266.889 393.424C262.632 393.424 259.16 397.895 259.16 403.401C259.16 408.907 262.632 413.42 266.889 413.42C271.147 413.42 274.619 408.907 274.619 403.401C274.619 397.895 271.147 393.424 266.889 393.424Z" fill="#072035"/>
<path d="M146.237 365.686C132.556 365.686 121.396 380.134 121.396 397.895C121.396 415.697 132.556 430.145 146.237 430.145H156.529V365.686H146.237Z" fill="#010F19"/>
<path d="M156.529 428.903C143.509 428.903 132.887 414.993 132.887 397.895C132.887 380.838 143.509 366.928 156.529 366.928C169.549 366.928 180.172 380.838 180.172 397.895C180.172 414.993 169.549 428.903 156.529 428.903Z" fill="#05151E"/>
<path fill-rule="evenodd" clip-rule="evenodd" d="M181.412 397.895C181.412 415.697 170.252 430.145 156.529 430.145C142.807 430.145 131.647 415.697 131.647 397.895C131.647 380.134 142.807 365.686 156.529 365.686C170.252 365.686 181.412 380.134 181.412 397.895ZM134.127 397.895C134.127 414.331 144.171 427.661 156.529 427.661C168.888 427.661 178.932 414.331 178.932 397.895C178.932 381.5 168.888 368.17 156.529 368.17C144.171 368.17 134.127 381.5 134.127 397.895Z" fill="#010F19"/>
<path d="M199.061 298.576C194.597 301.019 186.992 302.923 173.765 302.923C170.335 302.923 165.912 302.965 160.787 303.047C156.695 303.13 152.313 303.172 147.767 303.213C146.582 303.241 145.369 303.254 144.129 303.254C143.165 303.254 142.187 303.254 141.195 303.254C140.203 303.254 139.197 303.254 138.177 303.254C134.678 303.254 131.412 303.241 128.381 303.213C128.078 303.213 127.775 303.199 127.472 303.172C126.838 303.172 126.218 303.158 125.612 303.13C123.904 303.103 122.278 303.061 120.735 303.006C119.825 302.978 118.944 302.951 118.089 302.923C115.485 302.84 113.129 302.716 110.98 302.551C110.594 302.551 110.236 302.537 109.905 302.509C109.189 302.454 108.514 302.399 107.88 302.344H107.839C107.177 302.288 106.557 302.247 105.979 302.219C105.868 302.192 105.758 302.178 105.648 302.178C104.601 302.095 103.609 301.999 102.672 301.888C102.617 301.888 102.562 301.888 102.507 301.888C101.708 301.778 100.95 301.681 100.233 301.598C98.7867 301.433 97.5053 301.226 96.348 301.019C91.3053 300.149 89.2387 299.156 88.3707 298.369L88.288 298.286L88.2053 298.204C88.0951 298.121 87.9849 298.024 87.8747 297.914C123.917 292.076 161.903 295.802 199.061 298.576Z" fill="#0B3053"/>
<path fill-rule="evenodd" clip-rule="evenodd" d="M157.191 287.729C158.1 292.532 150.536 298.079 140.285 300.108C137.723 300.605 135.284 300.853 132.969 300.853C125.984 300.853 120.652 298.659 119.949 295.016C118.999 290.172 126.563 284.624 136.855 282.637C139.376 282.14 141.856 281.892 144.129 281.892C151.115 281.892 156.447 284.086 157.191 287.729ZM144.129 285.204C141.98 285.204 139.748 285.411 137.475 285.866C127.968 287.729 122.801 292.449 123.215 294.353C123.463 295.637 126.728 297.541 132.969 297.541C135.119 297.541 137.351 297.293 139.624 296.837C144.088 295.968 148.221 294.312 150.991 292.283C153.223 290.669 154.091 289.137 153.925 288.35C153.677 287.067 150.412 285.204 144.129 285.204Z" fill="#0B3053"/>
<path d="M126.893 288.061C130.696 289.054 134.829 290.793 137.681 294.312C142.393 291.911 150.205 289.841 155.537 289.675" stroke="#0B3053" stroke-width="8"/>
<path d="M192.613 293.236V300.274C191.167 300.315 146.32 303.254 143.551 303.213V291.994C143.551 284.624 147.973 278.456 154.173 275.972C152.603 273.902 151.611 271.294 151.611 268.478C151.611 262.144 156.571 257.052 162.688 257.052C162.853 257.052 162.977 257.052 163.101 257.052L173.063 257.425C179.387 257.632 184.512 263.138 184.512 269.555C184.512 272.329 183.561 274.854 181.991 276.841C188.191 279.615 192.613 285.991 192.613 293.236Z" fill="#0B3053"/>
<path d="M210.635 257.88C208.816 267.899 206.667 280.567 205.468 289.51C205.137 291.911 204.435 296.92 195.631 300.067V291.994C195.631 284.624 200.053 278.456 206.253 275.972C204.683 273.902 203.691 271.294 203.691 268.478C203.691 263.676 206.543 259.577 210.593 257.88H210.635Z" fill="#0B3053"/>
<path d="M74.8547 291.662H71.424C69.0267 291.662 67.084 289.717 67.084 287.315V261.233C67.084 258.832 69.0267 256.886 71.424 256.886H74.8547C77.252 256.886 79.1947 258.832 79.1947 261.233V287.315C79.1947 289.717 77.252 291.662 74.8547 291.662Z" fill="#05151E"/>
<path d="M73.656 289.717V308.843C73.656 310.955 75.268 312.735 77.3347 312.942L88.2467 314.06" stroke="#05151E" stroke-width="4.7"/>
<path d="M88.9907 317.496H86.1387C85.2293 317.496 84.5267 316.792 84.5267 315.923V311.866C84.5267 310.955 85.2293 310.251 86.1387 310.251H88.9907C89.8587 310.251 90.6027 310.955 90.6027 311.866V315.923C90.6027 316.792 89.8587 317.496 88.9907 317.496Z" fill="#05151E"/>
<path fill-rule="evenodd" clip-rule="evenodd" d="M296.732 348.836L274.247 350.409C261.02 351.32 249.984 360.718 246.925 373.634L243.619 387.545C243.247 389.035 241.924 390.07 240.395 390.07H212.867L81.22 382.163C77.872 357.488 77.4587 331.862 80.104 307.146C82.4187 285.742 86.3453 263.883 95.4387 244.342C97.7533 239.416 103.829 233.868 108.913 231.964C114.948 229.687 123.132 227.451 136.607 226.664C151.28 225.878 206.832 226.333 230.351 226.085C237.005 226.002 272.552 227.244 272.552 227.244C277.677 227.658 282.596 229.645 286.316 233.164C289.664 236.311 292.103 240.616 293.384 247.364C295.368 258.004 295.657 323.499 296.732 348.836ZM211.627 238.836C210.428 237.18 208.279 236.849 206.212 236.642L205.675 236.6C200.177 235.938 149.544 236.807 134.581 237.718C127.1 238.215 120.652 238.629 116.023 238.753C109.823 238.96 106.103 240.078 104.036 240.989C102.465 241.651 101.184 242.935 100.44 244.508C99.0347 247.571 96.2653 253.781 93.992 260.819C90.272 272.411 87.3373 286.487 86.2213 292.987C85.8907 294.974 86.6347 296.962 88.2053 298.204L88.288 298.286L88.3707 298.369C90.396 300.191 99.5307 303.254 138.177 303.254C146.196 303.254 153.967 303.172 160.787 303.047C165.912 302.965 170.335 302.923 173.765 302.923C203.608 302.923 204.972 293.153 205.468 289.51C207.163 277.297 210.511 258.004 212.371 248.234C213.197 243.845 212.949 240.616 211.627 238.836ZM224.027 315.509L257.837 297.334C263.004 294.56 268.46 292.366 274.123 290.834C274.619 290.696 275.101 290.558 275.569 290.42C278.008 289.758 279.785 287.729 280.116 285.204C281.769 272.37 280.901 255.644 280.157 245.957C279.785 241.154 276.107 237.304 271.312 236.725C258.788 235.317 244.528 236.311 236.055 237.18C231.26 237.677 227.292 240.989 225.887 245.626C219.521 266.74 218.819 291.331 219.232 312.694C219.273 315.136 221.877 316.668 224.027 315.509Z" fill="#FCBF38"/>
<path d="M244.693 293.236V304.414L224.027 315.509C221.877 316.668 219.273 315.136 219.232 312.694C218.901 295.181 219.315 275.516 222.993 257.342L225.143 257.425C231.467 257.632 236.592 263.138 236.592 269.555C236.592 272.329 235.641 274.854 234.071 276.841C240.271 279.615 244.693 285.991 244.693 293.236Z" fill="#0B3053"/>
<g style="mix-blend-mode:multiply" opacity="0.3">
<path fill-rule="evenodd" clip-rule="evenodd" d="M296.732 348.836L274.247 350.409C261.02 351.32 249.984 360.718 246.925 373.634L243.619 387.545C243.247 389.035 241.924 390.07 240.395 390.07H212.867L210.717 389.905C210.717 364.237 213.115 261.151 220.761 239.623C222.704 234.241 227.995 228.983 232.541 227.948C241.511 225.919 272.552 227.244 272.552 227.244C277.677 227.658 282.596 229.645 286.316 233.164C289.664 236.311 292.103 240.616 293.384 247.364C295.368 258.004 295.657 323.499 296.732 348.836ZM280.157 245.957C279.785 241.154 276.107 237.304 271.312 236.725C258.788 235.317 244.528 236.311 236.055 237.18C231.26 237.677 227.292 240.989 225.887 245.626C219.521 266.74 218.819 291.331 219.232 312.694C219.273 315.136 221.877 316.668 224.027 315.509L257.837 297.334C263.004 294.56 268.46 292.366 274.123 290.834C274.619 290.696 275.101 290.558 275.569 290.42C278.008 289.758 279.785 287.729 280.116 285.204C281.769 272.37 280.901 255.644 280.157 245.957Z" fill="#FCBF38"/>
</g>
<path fill-rule="evenodd" clip-rule="evenodd" d="M271.312 236.725C276.107 237.304 279.785 241.154 280.157 245.957C280.901 255.644 281.769 272.37 280.116 285.204C279.785 287.729 278.008 289.758 275.569 290.42C275.101 290.558 274.619 290.696 274.123 290.834C268.46 292.366 263.004 294.56 257.837 297.334L224.027 315.509C223.531 315.799 223.035 315.923 222.497 315.923C220.803 315.923 219.273 314.557 219.232 312.694C218.819 291.331 219.521 266.74 225.887 245.626C227.292 240.989 231.26 237.677 236.055 237.18C241.428 236.6 249.157 236.021 257.259 236.021V237.677C249.075 237.677 241.304 238.298 236.22 238.836C232.128 239.25 228.697 242.107 227.499 246.081C220.927 267.816 220.513 293.07 220.885 312.694C220.927 313.646 221.712 314.267 222.497 314.267C222.773 314.267 223.021 314.198 223.241 314.06L257.052 295.885C262.343 293.07 267.923 290.793 273.709 289.22L275.115 288.847C276.933 288.35 278.256 286.819 278.463 284.997C280.116 272.122 279.207 255.106 278.504 246.081C278.215 242.065 275.115 238.836 271.147 238.381C267.013 237.925 262.343 237.677 257.259 237.677V236.021C261.929 236.021 266.724 236.228 271.312 236.725Z" fill="#072035"/>
<path d="M280.157 245.957C279.951 242.893 278.339 240.202 275.983 238.546C276.603 239.747 277.016 241.072 277.14 242.521C277.884 252.167 278.711 268.934 277.057 281.768C276.768 284.252 274.949 286.322 272.511 286.984C272.07 287.095 271.601 287.219 271.105 287.357C265.443 288.93 259.945 291.124 254.779 293.898L221.009 312.073C220.431 312.362 219.811 312.487 219.232 312.445C219.232 312.528 219.232 312.611 219.232 312.694C219.273 315.136 221.877 316.668 224.027 315.509L257.837 297.334C263.004 294.56 268.46 292.366 274.123 290.834C274.619 290.696 275.101 290.558 275.569 290.42C278.008 289.758 279.785 287.729 280.116 285.204C281.769 272.37 280.901 255.644 280.157 245.957Z" fill="#072035"/>
<path opacity="0.9" d="M219.232 312.694C218.819 291.331 219.521 266.74 225.887 245.626C227.292 240.989 231.26 237.677 236.055 237.18C244.528 236.311 258.788 235.317 271.312 236.725C276.107 237.304 279.785 241.154 280.157 245.957C280.901 255.644 281.769 272.37 280.116 285.204C279.785 287.729 278.008 289.758 275.569 290.42C275.101 290.558 274.619 290.696 274.123 290.834C268.46 292.366 263.004 294.56 257.837 297.334L224.027 315.509C221.877 316.668 219.273 315.136 219.232 312.694Z" fill="#81BCF7"/>
<g style="mix-blend-mode:screen" opacity="0.2">
<path d="M240.147 236.807L219.563 286.363C219.108 295.347 219.067 304.289 219.232 312.694C219.273 315.136 221.877 316.668 224.027 315.509L226.755 314.06L252.299 236.104C247.876 236.228 243.743 236.476 240.147 236.807Z" fill="#81BCF7"/>
</g>
<g style="mix-blend-mode:screen" opacity="0.2">
<path d="M265.443 293.774L277.719 240.119C276.107 238.298 273.875 237.014 271.312 236.725C268.625 236.435 265.897 236.228 263.128 236.145L240.891 304.414C241.359 304.883 241.869 305.297 242.42 305.656L257.837 297.334C260.317 296.009 262.852 294.823 265.443 293.774Z" fill="#81BCF7"/>
</g>
<path fill-rule="evenodd" clip-rule="evenodd" d="M271.312 236.725C276.107 237.304 279.785 241.154 280.157 245.957C280.901 255.644 281.769 272.37 280.116 285.204C279.785 287.729 278.008 289.758 275.569 290.42C275.101 290.558 274.619 290.696 274.123 290.834C268.46 292.366 263.004 294.56 257.837 297.334L224.027 315.509C223.531 315.799 223.035 315.923 222.497 315.923C220.803 315.923 219.273 314.557 219.232 312.694C218.819 291.331 219.521 266.74 225.887 245.626C227.292 240.989 231.26 237.677 236.055 237.18C241.428 236.6 249.157 236.021 257.259 236.021C261.929 236.021 266.724 236.228 271.312 236.725ZM257.259 238.505C249.116 238.505 241.345 239.126 236.303 239.664C232.541 240.037 229.4 242.645 228.284 246.329C221.753 267.94 221.34 293.111 221.712 312.652C221.712 313.19 222.167 313.439 222.497 313.439C222.635 313.439 222.759 313.397 222.869 313.315L256.639 295.14C261.971 292.283 267.633 290.048 273.461 288.433L274.908 288.019C276.396 287.647 277.471 286.405 277.636 284.914C279.289 272.08 278.38 255.106 277.719 246.164C277.429 242.521 274.619 239.623 271.023 239.209C266.931 238.753 262.301 238.505 257.259 238.505Z" fill="#072035"/>
<path d="M280.157 245.957C279.951 242.893 278.339 240.202 275.983 238.546C276.603 239.747 277.016 241.072 277.14 242.521C277.884 252.167 278.711 268.934 277.057 281.768C276.768 284.252 274.949 286.322 272.511 286.984C272.07 287.095 271.601 287.219 271.105 287.357C265.443 288.93 259.945 291.124 254.779 293.898L221.009 312.073C220.431 312.362 219.811 312.487 219.232 312.445C219.232 312.528 219.232 312.611 219.232 312.694C219.273 315.136 221.877 316.668 224.027 315.509L257.837 297.334C263.004 294.56 268.46 292.366 274.123 290.834C274.619 290.696 275.101 290.558 275.569 290.42C278.008 289.758 279.785 287.729 280.116 285.204C281.769 272.37 280.901 255.644 280.157 245.957Z" fill="#072035"/>
<path d="M243.908 295.927H248.289C251.389 295.927 253.869 293.443 253.869 290.379V256.969C253.869 253.906 251.389 251.422 248.289 251.422H243.908C240.808 251.422 238.328 253.906 238.328 256.969V290.379C238.328 293.443 240.808 295.927 243.908 295.927Z" fill="#05151E"/>
<path d="M245.437 293.443V317.91C245.437 320.642 243.412 322.878 240.725 323.168L226.755 324.617" stroke="#05151E" stroke-width="6"/>
<path d="M225.804 329.005H229.483C230.64 329.005 231.549 328.094 231.549 326.977V321.76C231.549 320.642 230.64 319.732 229.483 319.732H225.804C224.688 319.732 223.779 320.642 223.779 321.76V326.977C223.779 328.094 224.688 329.005 225.804 329.005Z" fill="#05151E"/>
<path fill-rule="evenodd" clip-rule="evenodd" d="M216.463 249.02C214.437 259.577 211.172 278.373 209.56 290.048C208.775 295.72 205.964 307.063 173.765 307.063C152.933 307.063 94.488 309.547 85.6014 301.433C82.8734 299.239 81.5507 295.761 82.1707 292.283C83.2867 285.742 86.2213 271.418 90.0653 259.536C92.38 252.374 95.1493 246.081 96.72 242.769C97.8773 240.285 99.8613 238.298 102.383 237.18C105.111 235.979 109.409 234.862 115.899 234.613C133.713 234.034 180.172 231.177 206.171 232.46C209.064 232.626 219.48 233.04 216.463 249.02ZM211.627 238.836C210.428 237.18 208.279 236.849 206.212 236.642L205.675 236.6C200.177 235.938 149.544 236.807 134.581 237.718C127.1 238.215 120.652 238.629 116.023 238.753C109.823 238.96 106.103 240.078 104.036 240.989C102.465 241.651 101.184 242.935 100.44 244.508C99.0347 247.571 96.2653 253.781 93.992 260.819C90.272 272.411 87.3374 286.487 86.2214 292.987C85.8907 294.974 86.6347 296.962 88.2053 298.204L88.288 298.286L88.3707 298.369C90.396 300.191 99.5307 303.254 138.177 303.254C146.196 303.254 153.967 303.172 160.787 303.047C165.912 302.965 170.335 302.923 173.765 302.923C203.608 302.923 204.972 293.153 205.468 289.51C207.163 277.297 210.511 258.004 212.371 248.234C213.197 243.845 212.949 240.616 211.627 238.836Z" fill="#0B3053"/>
<path opacity="0.9" d="M212.371 248.234C210.511 258.004 207.163 277.297 205.468 289.51C204.972 293.153 203.608 302.923 173.807 302.923C170.335 302.923 165.912 302.965 160.787 303.047C156.736 303.13 152.355 303.172 147.767 303.213C146.582 303.241 145.369 303.254 144.129 303.254C143.165 303.254 142.187 303.254 141.195 303.254C140.203 303.254 139.197 303.254 138.177 303.254C134.678 303.254 131.412 303.241 128.381 303.213C128.078 303.213 127.775 303.199 127.472 303.172C126.838 303.172 126.218 303.158 125.612 303.13C123.904 303.103 122.278 303.061 120.735 303.006C119.825 302.978 118.944 302.951 118.089 302.923C115.485 302.84 113.129 302.716 110.98 302.551C110.622 302.551 110.264 302.537 109.905 302.509C109.189 302.454 108.514 302.399 107.88 302.344H107.839C107.177 302.288 106.557 302.247 105.979 302.219C105.868 302.192 105.758 302.178 105.648 302.178C104.601 302.095 103.609 301.999 102.672 301.888C102.617 301.888 102.562 301.888 102.507 301.888C101.708 301.778 100.95 301.681 100.233 301.598C98.7867 301.433 97.5053 301.226 96.348 301.019C91.3467 300.149 89.2387 299.156 88.412 298.369L88.288 298.286L88.2053 298.204C86.6347 296.962 85.8907 294.974 86.2213 292.987C87.3787 286.487 90.272 272.411 93.992 260.819C96.2653 253.781 99.0347 247.571 100.44 244.508C101.225 242.935 102.465 241.651 104.036 240.989C106.103 240.078 109.823 238.96 116.023 238.753C120.652 238.629 127.1 238.215 134.623 237.718C137.185 237.594 140.781 237.428 145.039 237.263C158.017 236.807 176.989 236.476 190.34 236.393C198.111 236.352 204.021 236.393 205.716 236.6L206.212 236.642C208.279 236.849 210.428 237.18 211.627 238.836C212.949 240.616 213.197 243.845 212.371 248.234Z" fill="#81BCF7"/>
<g style="mix-blend-mode:screen" opacity="0.2">
<path d="M190.34 236.393L147.767 303.213C146.582 303.241 145.369 303.254 144.129 303.254C143.165 303.254 142.187 303.254 141.195 303.254C140.203 303.254 139.197 303.254 138.177 303.254C134.678 303.254 131.412 303.241 128.381 303.213C128.078 303.213 127.775 303.199 127.472 303.172C126.838 303.172 126.218 303.158 125.612 303.13C123.904 303.103 122.278 303.061 120.735 303.006C119.825 303.006 118.957 302.965 118.089 302.923C115.485 302.84 113.129 302.716 110.98 302.551C110.594 302.551 110.236 302.537 109.905 302.509C109.203 302.468 108.541 302.426 107.88 302.344H107.839C107.177 302.288 106.557 302.247 105.979 302.219C105.868 302.192 105.758 302.178 105.648 302.178C104.601 302.095 103.609 301.999 102.672 301.888C102.617 301.888 102.562 301.888 102.507 301.888C101.708 301.805 100.95 301.709 100.233 301.598C98.7867 301.433 97.5054 301.226 96.348 301.019L145.039 237.263C158.017 236.807 176.989 236.476 190.34 236.393Z" fill="#81BCF7"/>
</g>
<path d="M94.2813 369.08C93.6613 369.039 93.2067 368.584 93.2067 368.004V346.89C93.2067 346.269 93.7027 345.772 94.3227 345.772L171.451 347.428C172.029 347.47 172.525 347.925 172.525 348.546V371.937C172.525 372.558 172.029 373.055 171.409 373.055L94.2813 369.08Z" fill="#0B3053"/>
<path fill-rule="evenodd" clip-rule="evenodd" d="M94.364 344.654L171.451 346.31C172.691 346.352 173.641 347.345 173.641 348.546V371.937C173.641 373.179 172.649 374.131 171.409 374.131C171.382 374.131 171.354 374.131 171.327 374.131L94.1987 370.198C93.0413 370.157 92.0907 369.163 92.0907 368.004V346.89C92.0907 345.648 93.0827 344.654 94.3227 344.654C94.3502 344.654 94.364 344.654 94.364 344.654ZM94.3227 346.89V368.004L171.409 371.937V348.546L94.3227 346.89Z" fill="#072035"/>
<path d="M113.997 344.654V371.316" stroke="#FCBF38" stroke-width="12.5"/>
<path d="M151.735 345.524V373.427" stroke="#FCBF38" stroke-width="12.5"/>
<path d="M90.6853 352.52L175.047 355.211" stroke="#FCBF38" stroke-width="12.5"/>
<path d="M90.6853 363.574L175.047 366.265" stroke="#FCBF38" stroke-width="12.5"/>
<path d="M79.8973 372.351L71.2587 374.711C69.4813 375.208 68.2827 376.822 68.2827 378.644V387.131C68.2827 389.946 69.6053 392.596 71.796 394.293C73.2013 395.328 74.8547 395.949 76.5493 396.073L166.325 402.573C167.62 402.656 168.929 402.683 170.252 402.656L208.32 402.076C209.643 402.035 210.841 400.958 210.841 399.634V378.478L176.865 379.679C176.121 379.706 175.391 379.706 174.675 379.679L83.5347 375.001C81.9227 374.918 80.476 373.883 79.8973 372.351Z" fill="#81BCF7"/>
<g style="mix-blend-mode:multiply" opacity="0.4">
<path d="M174.675 379.679L83.5347 375.001C81.9227 374.918 80.476 373.883 79.8973 372.351L71.2587 374.711C70.2667 375.001 69.4813 375.622 68.944 376.408H69.1093L83.7 378.271C84.444 378.354 85.188 378.409 85.932 378.437L166.284 381.997C166.284 381.997 206.791 382.287 210.841 378.478L176.865 379.679C176.121 379.706 175.391 379.706 174.675 379.679Z" fill="#81BCF7"/>
</g>
<g style="mix-blend-mode:multiply" opacity="0.6">
<path d="M94.612 394.169L86.5107 393.796C84.2373 393.672 82.46 391.809 82.46 389.532V385.185C82.46 382.742 84.4853 380.797 86.924 380.921L95.0253 381.335C97.2987 381.459 99.076 383.322 99.076 385.599V389.905C99.076 392.347 97.0507 394.293 94.612 394.169Z" fill="#81BCF7"/>
<path d="M156.157 397.481L148.056 397.108C145.783 396.984 144.005 395.121 144.005 392.844V388.497C144.005 386.054 146.031 384.109 148.469 384.233L156.571 384.647C158.844 384.771 160.621 386.634 160.621 388.911V393.217C160.621 395.659 158.596 397.605 156.157 397.481Z" fill="#81BCF7"/>
</g>
<g style="mix-blend-mode:multiply" opacity="0.6">
<path d="M96.8853 381.873C97.216 382.494 97.4226 383.198 97.4226 383.943V388.249C97.4226 390.691 95.3973 392.637 92.9586 392.513L84.8573 392.14C84.196 392.099 83.576 391.892 82.9973 391.602C83.7 392.844 84.9813 393.713 86.5106 393.796L94.612 394.169C97.0506 394.293 99.076 392.347 99.076 389.905V385.599C99.076 383.984 98.208 382.618 96.8853 381.873Z" fill="#81BCF7"/>
<path d="M158.431 385.185C158.761 385.806 158.968 386.51 158.968 387.255V391.561C158.968 394.003 156.943 395.949 154.504 395.825L146.403 395.452C145.7 395.411 145.08 395.204 144.543 394.914C145.245 396.156 146.527 397.025 148.056 397.108L156.157 397.481C158.596 397.605 160.621 395.659 160.621 393.217V388.911C160.621 387.296 159.712 385.93 158.431 385.185Z" fill="#81BCF7"/>
</g>
<path d="M178.767 343.619V373.883C178.767 375.622 180.172 377.071 181.949 377.071H202.079C203.815 377.071 205.261 375.622 205.261 373.883V329.999C205.261 327.887 203.236 326.397 201.169 326.977C198.069 327.929 193.523 330.413 190.671 332.152C186.496 334.636 183.685 336.457 181.867 337.741C179.924 339.065 178.767 341.26 178.767 343.619Z" fill="#D6E6FD"/>
<path d="M181.247 370.405V358.855C181.247 356.992 182.776 355.46 184.636 355.501L199.475 355.708C201.293 355.75 202.781 357.24 202.781 359.062V370.405C202.781 372.227 201.293 373.759 199.433 373.759H184.553C182.735 373.759 181.247 372.227 181.247 370.405Z" fill="#B7D7FD"/>
<path d="M181.247 349.664V345.938C181.247 343.951 182.197 342.129 183.851 341.053C185.628 339.811 188.232 338.155 191.952 335.919C195.011 334.097 199.227 331.82 201.913 331.034C201.968 331.006 202.037 330.992 202.12 330.992C202.409 330.992 202.781 331.241 202.781 331.655V349.871C202.781 351.775 201.252 353.266 199.392 353.224L184.512 353.017C182.693 352.976 181.247 351.485 181.247 349.664Z" fill="#B7D7FD"/>
<g style="mix-blend-mode:multiply" opacity="0.3">
<path d="M200.756 355.998C200.88 356.371 200.963 356.743 200.963 357.157V368.501C200.963 370.322 199.475 371.854 197.615 371.854H182.776C182.28 371.854 181.867 371.73 181.453 371.564C181.908 372.848 183.148 373.759 184.553 373.759H199.433C201.293 373.759 202.781 372.227 202.781 370.405V359.062C202.781 357.695 201.955 356.495 200.756 355.998Z" fill="#B7D7FD"/>
<path d="M202.12 330.992C202.037 330.992 201.968 331.006 201.913 331.034C201.61 331.117 201.293 331.213 200.963 331.324V347.966C200.963 349.829 199.433 351.361 197.573 351.32L182.735 351.113C182.266 351.085 181.839 350.989 181.453 350.823C181.908 352.065 183.107 352.976 184.512 353.017L199.392 353.224C201.252 353.266 202.781 351.775 202.781 349.871V331.655C202.781 331.241 202.409 330.992 202.12 330.992Z" fill="#B7D7FD"/>
</g>
<g style="mix-blend-mode:multiply" opacity="0.4">
<path d="M199.185 332.069L192.365 340.68C189.968 343.702 186.331 345.482 182.487 345.482H181.247C181.371 343.661 182.321 342.046 183.851 341.053C185.628 339.811 188.232 338.155 191.952 335.919C194.101 334.636 196.829 333.145 199.185 332.069Z" fill="#B7D7FD"/>
</g>
<g style="mix-blend-mode:multiply" opacity="0.4">
<path d="M189.183 355.584V359.434C189.183 361.214 187.777 362.622 186 362.622H181.247V358.855C181.247 356.992 182.776 355.46 184.636 355.501L189.183 355.584Z" fill="#B7D7FD"/>
</g>
<path d="M87.792 338.527V368.791C87.792 370.529 86.3453 371.978 84.6093 371.978H80.0213C78.5747 357.695 78.0787 343.123 78.5747 328.715C81.3027 330.371 83.2867 331.696 84.692 332.648C86.6347 333.973 87.792 336.167 87.792 338.527Z" fill="#D6E6FD"/>
<path d="M85.312 353.762V365.313C85.312 367.176 83.824 368.666 81.964 368.666H79.6907C79.1396 362.622 78.7676 356.55 78.5747 350.45L81.9227 350.409C83.7827 350.368 85.312 351.899 85.312 353.762Z" fill="#B7D7FD"/>
<path d="M85.312 340.846V344.572C85.312 346.393 83.8653 347.884 82.0053 347.925L78.492 347.966C78.3542 343.054 78.3405 338.141 78.4507 333.228C80.228 334.304 81.592 335.215 82.708 335.96C84.32 337.037 85.312 338.9 85.312 340.846Z" fill="#B7D7FD"/>
<g style="mix-blend-mode:multiply" opacity="0.3">
<path d="M85.1054 366.472C84.6094 367.756 83.4107 368.666 81.964 368.666H79.6907C79.6356 368.032 79.5805 367.397 79.5254 366.762H83.7827C84.2374 366.762 84.692 366.638 85.1054 366.472Z" fill="#B7D7FD"/>
<path d="M85.1053 345.731C84.6093 346.973 83.452 347.884 82.0053 347.925L78.492 347.966C78.492 347.332 78.4782 346.711 78.4507 346.103L83.824 346.021C84.2787 346.021 84.692 345.896 85.1053 345.731Z" fill="#B7D7FD"/>
</g>
<g style="mix-blend-mode:multiply" opacity="0.4">
<path d="M85.312 340.39H84.072C82.088 340.39 80.1453 339.893 78.4093 339.024C78.4093 337.092 78.4231 335.16 78.4507 333.228C80.228 334.304 81.592 335.215 82.708 335.96C84.196 336.954 85.1467 338.569 85.312 340.39Z" fill="#B7D7FD"/>
</g>
<g style="mix-blend-mode:multiply" opacity="0.4">
<path d="M85.312 353.762V357.53H80.5173C79.9387 357.53 79.36 357.364 78.864 357.074C78.7262 354.866 78.6298 352.658 78.5747 350.45L81.9227 350.409C83.7827 350.368 85.312 351.899 85.312 353.762Z" fill="#B7D7FD"/>
</g>
<path d="M279.785 337.699C277.471 337.699 275.611 335.836 275.611 333.518V319.318C275.611 316.999 277.471 315.095 279.785 315.095C282.1 315.095 284.001 316.999 284.001 319.318V333.518C284.001 335.836 282.1 337.699 279.785 337.699Z" fill="#0B3053"/>
<path d="M279.165 232.874C283.009 235.772 283.836 241.072 284.332 245.874C286.357 265.746 287.349 285.742 287.225 305.738" stroke="#FC9A38" stroke-width="2" stroke-linecap="round" stroke-linejoin="round"/>
<path d="M287.349 309.92C287.267 320.711 287.17 331.517 287.06 342.336" stroke="#FC9A38" stroke-width="2" stroke-linecap="round" stroke-linejoin="round"/>
<path d="M238.369 382.825L241.883 368.294C245.024 354.963 256.473 345.275 270.072 344.323L283.175 343.412" stroke="#FC9A38" stroke-width="2" stroke-linecap="round" stroke-linejoin="round"/>
<path d="M153.595 225.588H147.147V222.359C147.147 220.579 148.593 219.13 150.371 219.13C152.148 219.13 153.595 220.579 153.595 222.359V225.588Z" fill="#FC6A64"/>
<path d="M154.339 226.25H146.444V225.464C146.444 224.926 146.857 224.512 147.395 224.512H153.347C153.884 224.512 154.339 224.926 154.339 225.464V226.25Z" fill="#0B3053"/>
<g style="mix-blend-mode:screen" opacity="0.4">
<path d="M148.8 223.063C150.577 223.063 152.024 221.655 152.024 219.875C152.024 219.764 152.01 219.654 151.983 219.544C151.528 219.295 150.991 219.13 150.371 219.13C148.593 219.13 147.147 220.579 147.147 222.359V223.063H148.8Z" fill="#FC6A64"/>
</g>
<path d="M168.681 225.588H162.275V222.359C162.275 220.579 163.68 219.13 165.457 219.13C167.235 219.13 168.681 220.579 168.681 222.359V225.588Z" fill="#FC6A64"/>
<path d="M169.425 226.25H161.531V225.464C161.531 224.926 161.985 224.512 162.481 224.512H168.475C168.971 224.512 169.425 224.926 169.425 225.464V226.25Z" fill="#0B3053"/>
<g style="mix-blend-mode:screen" opacity="0.4">
<path d="M163.887 223.063C165.664 223.063 167.111 221.655 167.111 219.875C167.111 219.764 167.097 219.654 167.069 219.544C166.615 219.295 166.077 219.13 165.457 219.13C163.68 219.13 162.275 220.579 162.275 222.359V223.063H163.887Z" fill="#FC6A64"/>
</g>
<path d="M183.768 225.588H177.361V222.359C177.361 220.579 178.767 219.13 180.544 219.13C182.321 219.13 183.768 220.579 183.768 222.359V225.588Z" fill="#FC6A64"/>
<path d="M184.512 226.25H176.617V225.464C176.617 224.926 177.072 224.512 177.568 224.512H183.561C184.057 224.512 184.512 224.926 184.512 225.464V226.25Z" fill="#0B3053"/>
<g style="mix-blend-mode:screen" opacity="0.4">
<path d="M178.973 223.063C180.751 223.063 182.197 221.655 182.197 219.875C182.197 219.764 182.184 219.654 182.156 219.544C181.701 219.295 181.164 219.13 180.544 219.13C178.767 219.13 177.361 220.579 177.361 222.359V223.063H178.973Z" fill="#FC6A64"/>
</g>
</g>
<defs>
<filter id="filter0_f_21_2337" x="0.473328" y="353.356" width="619.053" height="158.878" filterUnits="userSpaceOnUse" color-interpolation-filters="sRGB">
<feFlood flood-opacity="0" result="BackgroundImageFix"/>
<feBlend mode="normal" in="SourceGraphic" in2="BackgroundImageFix" result="shape"/>
<feGaussianBlur stdDeviation="35" result="effect1_foregroundBlur_21_2337"/>
</filter>
<clipPath id="clip0_21_2337">
<rect width="620" height="414" fill="white" transform="translate(0 84)"/>
</clipPath>
</defs>
</svg>
