<svg width="82" height="82" viewBox="0 0 82 82" fill="none" xmlns="http://www.w3.org/2000/svg">
<g filter="url(#filter0_d_65_2191)">
<circle cx="41" cy="41" r="29" fill="white"/>
</g>
<g clip-path="url(#clip0_65_2191)">
<path d="M21 40.375C21.0594 40.1239 21.1127 39.8709 21.1803 39.6219C21.4741 38.5219 22.1138 37.5497 23.0018 36.8539C23.8897 36.158 24.9772 35.7765 26.0984 35.7677C26.377 35.7677 26.4898 35.6761 26.5912 35.4209C28.2422 31.2805 31.1055 28.3695 35.1814 26.6875C35.4344 26.5833 35.5195 26.4677 35.5215 26.1865C35.5302 24.9517 35.9692 23.76 36.7605 22.8232C37.5517 21.8865 38.644 21.2652 39.8432 21.0698C39.9162 21.0519 39.9878 21.0286 40.0574 21H41.2869C41.7264 21.1281 42.1814 21.2198 42.6035 21.3906C43.5502 21.772 44.3628 22.4328 44.9368 23.2879C45.5108 24.143 45.8197 25.1533 45.8238 26.1885C45.8238 26.4438 45.8832 26.5687 46.1311 26.6708C50.2233 28.35 53.1011 31.2695 54.7643 35.4292C54.8074 35.5333 54.8555 35.6375 54.9027 35.7531C56.4692 35.7063 57.8279 36.2063 58.8873 37.3667C60.3863 39.0094 60.7797 40.9375 59.9303 43.0031C59.0809 45.0687 57.4785 46.1479 55.2685 46.2323C54.9467 46.2437 54.8381 46.3594 54.7315 46.6323C53.5523 49.6531 51.6229 52.0489 48.9683 53.8511C48.583 54.1125 48.2746 54.1 48.039 53.8271C47.7736 53.5198 47.8535 53.1052 48.253 52.8375C49.4198 52.0549 50.4677 51.1032 51.3637 50.0125C52.3033 48.8729 53.2346 47.2531 53.6311 46.0448C51.3422 45.1073 49.9898 43.4489 50.039 40.8791C50.0861 38.4333 51.4211 36.8563 53.6527 35.9521C52.111 32.0889 49.4416 29.3722 45.6445 27.8021C44.6803 30.2083 43.001 31.5521 40.4016 31.4781C38.3012 31.4167 36.8228 30.2354 35.706 27.8011C31.9078 29.3635 29.251 32.0719 27.6896 35.9427C30.0871 36.9396 31.4416 38.6781 31.292 41.3489C31.1619 43.6844 29.8361 45.1854 27.6322 46.0687C28.0789 46.9177 28.4795 47.7833 28.9723 48.5917C29.9938 50.2542 31.357 51.6724 32.9683 52.7489C33.043 52.8 33.1189 52.8479 33.1885 52.9052C33.4765 53.1396 33.539 53.4844 33.3473 53.7687C33.304 53.8381 33.2471 53.8975 33.1801 53.9434C33.1131 53.9893 33.0376 54.0207 32.9582 54.0355C32.8787 54.0504 32.7971 54.0485 32.7184 54.0298C32.6398 54.0111 32.5658 53.9761 32.501 53.9271C31.9744 53.5594 31.4508 53.1875 30.958 52.7708C29.0077 51.1246 27.5055 48.997 26.5953 46.5917C26.5 46.3417 26.3904 46.2375 26.1055 46.2354C24.8976 46.227 23.7312 45.7863 22.811 44.9906C21.8909 44.1949 21.2758 43.0952 21.0738 41.8844C21.0537 41.7967 21.0291 41.7101 21 41.625V40.375ZM40.6844 30.2448C41.4622 30.2429 42.222 30.0065 42.8676 29.5655C43.5132 29.1245 44.0157 28.4987 44.3114 27.7673C44.6071 27.0359 44.6827 26.2318 44.5287 25.4567C44.3748 24.6816 43.998 23.9703 43.4464 23.4129C42.8946 22.8555 42.1927 22.477 41.4293 22.3253C40.666 22.1736 39.8755 22.2555 39.158 22.5607C38.4404 22.8659 37.828 23.3806 37.3983 24.0397C36.9686 24.6989 36.7408 25.4728 36.7439 26.2635C36.7445 26.7883 36.8471 27.3077 37.0456 27.7921C37.2442 28.2764 37.5349 28.7161 37.901 29.0861C38.2671 29.4559 38.7014 29.7487 39.1791 29.9475C39.6567 30.1464 40.1683 30.2474 40.6844 30.2448ZM30.0943 41.0104C30.0971 40.2195 29.8691 39.4454 29.4391 38.7862C29.009 38.127 28.3964 37.6123 27.6786 37.3073C26.9608 37.0022 26.1701 36.9205 25.4066 37.0724C24.643 37.2243 23.941 37.6031 23.3893 38.1608C22.8376 38.7185 22.461 39.4301 22.3072 40.2054C22.1533 40.9808 22.2292 41.7851 22.5251 42.5166C22.8211 43.2481 23.3238 43.8739 23.9697 44.3149C24.6156 44.7559 25.3757 44.9921 26.1537 44.9937C26.67 44.9963 27.1817 44.8953 27.6595 44.6963C28.1372 44.4973 28.5717 44.2044 28.9378 43.8343C29.3039 43.4641 29.5946 43.0242 29.793 42.5396C29.9915 42.055 30.0938 41.5353 30.0943 41.0104ZM51.251 41.0104C51.2529 41.8012 51.4854 42.5737 51.9191 43.23C52.3529 43.8864 52.9685 44.3972 53.6879 44.6978C54.4073 44.9985 55.1982 45.0753 55.9607 44.9188C56.7231 44.7622 57.4227 44.3793 57.971 43.8184C58.5192 43.2575 58.8915 42.5438 59.0407 41.7677C59.1899 40.9917 59.1093 40.188 58.8092 39.4585C58.509 38.729 58.0027 38.1064 57.3544 37.6695C56.706 37.2326 55.9448 37.0011 55.167 37.0042C54.6506 37.0044 54.1393 37.1085 53.6626 37.3103C53.1858 37.5122 52.753 37.8079 52.3891 38.1804C52.0252 38.5529 51.7373 38.9949 51.542 39.4809C51.3467 39.967 51.2478 40.4875 51.251 41.0125V41.0104Z" fill="#87C332"/>
<path d="M37.3859 60.9997C37.0703 60.8029 36.976 60.5175 36.976 60.1446C36.9873 57.2935 36.9821 54.4425 36.9821 51.5914V51.1841C36.5805 50.9758 36.2055 50.8331 35.8838 50.6091C35.5164 50.3657 35.2154 50.0317 35.0089 49.6384C34.8023 49.245 34.6969 48.805 34.7025 48.3591C34.687 46.1852 34.6912 44.0112 34.7025 41.8373C34.7025 40.9153 35.1553 40.2331 35.8828 39.7196C36.6502 39.1779 37.5385 38.9903 38.4329 38.8154L38.8807 38.7279C38.0047 37.7727 37.6512 36.68 37.6922 35.4435C37.7485 33.681 38.9278 32.5154 40.6737 32.505C42.4196 32.4946 43.6338 33.6768 43.6861 35.454C43.7219 36.6894 43.3664 37.782 42.4944 38.729C42.9289 38.8175 43.3141 38.8894 43.6983 38.9748C44.4299 39.1383 45.1245 39.3914 45.7158 39.8789C46.0216 40.118 46.268 40.4267 46.435 40.7802C46.6022 41.1337 46.6853 41.5222 46.6779 41.9143C46.6779 43.9845 46.6779 46.0543 46.6779 48.1237C46.6779 49.5883 45.9606 50.5956 44.603 51.0581L44.3981 51.1279V51.5914C44.3981 54.4425 44.393 57.2935 44.4043 60.1446C44.4043 60.5175 44.3131 60.8018 43.9945 60.9997H37.3859ZM44.3941 49.7758C44.4814 49.7512 44.5667 49.7194 44.6491 49.681C45.2055 49.3445 45.4535 48.8404 45.4524 48.1862C45.4524 46.1946 45.4238 44.2029 45.4627 42.2123C45.4791 41.3373 45.103 40.8092 44.3531 40.4956C44.0943 40.3847 43.8274 40.2945 43.5549 40.2258C42.0728 39.8502 40.5334 39.7692 39.0211 39.9873C38.185 40.1112 37.35 40.2518 36.6143 40.7164C36.1564 41.0081 35.9165 41.4185 35.9268 41.982C35.9402 42.6456 35.9268 43.3091 35.9268 43.9737C35.9268 45.4049 35.9268 46.8373 35.9268 48.2685C35.9268 49.007 36.3602 49.6039 36.9801 49.7268V49.3029C36.9801 47.6362 36.9801 45.9696 36.9801 44.3029C36.9787 44.1737 36.9859 44.0446 37.0016 43.9164C37.0118 43.7786 37.0716 43.6493 37.1694 43.5532C37.2672 43.4572 37.3964 43.4011 37.5324 43.3956C37.8325 43.3644 38.0682 43.4914 38.1604 43.7914C38.2059 43.9667 38.2252 44.1478 38.2178 44.329C38.2178 49.3018 38.2178 54.2744 38.2178 59.2466V59.7185H40.1645C40.1645 57.6206 40.1645 55.5518 40.1645 53.482C40.1548 53.3132 40.1588 53.1439 40.1768 52.9758C40.1956 52.8232 40.2696 52.6832 40.3844 52.5831C40.4992 52.483 40.6465 52.4298 40.7977 52.4341C40.9489 52.4384 41.0931 52.4998 41.2022 52.6063C41.3113 52.7128 41.3775 52.8568 41.3879 53.0102C41.3992 53.1268 41.3879 53.2446 41.3879 53.3623C41.3879 55.3407 41.3879 57.3199 41.3879 59.2997V59.7268H43.1655V59.206C43.1655 54.2463 43.1655 49.2869 43.1655 44.3279C43.1582 44.1595 43.1737 43.9909 43.2116 43.8268C43.3019 43.507 43.5405 43.3685 43.8582 43.404C43.9945 43.4114 44.1232 43.4698 44.2199 43.5678C44.3165 43.6658 44.3741 43.7966 44.3817 43.9351C44.3934 44.0647 44.3968 44.1948 44.392 44.3247C44.392 45.9914 44.392 47.6581 44.392 49.3247L44.3941 49.7758ZM42.4596 35.8644C42.4596 34.1581 41.3407 33.3644 39.932 33.8852C39.7377 33.9518 39.5602 34.0609 39.412 34.2049C39.2638 34.3489 39.1485 34.5242 39.0744 34.7185C38.7004 35.656 38.9904 37.0675 39.7014 37.7727C40.3059 38.3727 41.0846 38.3768 41.6799 37.7727C42.1685 37.2602 42.4473 36.578 42.4596 35.8644Z" fill="#87C332"/>
</g>
<defs>
<filter id="filter0_d_65_2191" x="0" y="0" width="82" height="82" filterUnits="userSpaceOnUse" color-interpolation-filters="sRGB">
<feFlood flood-opacity="0" result="BackgroundImageFix"/>
<feColorMatrix in="SourceAlpha" type="matrix" values="0 0 0 0 0 0 0 0 0 0 0 0 0 0 0 0 0 0 127 0" result="hardAlpha"/>
<feOffset/>
<feGaussianBlur stdDeviation="6"/>
<feComposite in2="hardAlpha" operator="out"/>
<feColorMatrix type="matrix" values="0 0 0 0 0.438333 0 0 0 0 0.438333 0 0 0 0 0.438333 0 0 0 0.13 0"/>
<feBlend mode="normal" in2="BackgroundImageFix" result="effect1_dropShadow_65_2191"/>
<feBlend mode="normal" in="SourceGraphic" in2="effect1_dropShadow_65_2191" result="shape"/>
</filter>
<clipPath id="clip0_65_2191">
<rect width="40" height="40" fill="white" transform="translate(21 21)"/>
</clipPath>
</defs>
</svg>
