<svg width="82" height="82" viewBox="0 0 82 82" fill="none" xmlns="http://www.w3.org/2000/svg">
<g filter="url(#filter0_d_65_2119)">
<circle cx="41" cy="41" r="29" fill="white"/>
</g>
<g clip-path="url(#clip0_65_2119)">
<path d="M51.2663 25.433L41.2663 21.0557C41.1822 21.0189 41.0914 21 40.9997 21C40.9079 21 40.8171 21.0189 40.733 21.0557L30.733 25.433C30.6142 25.4849 30.513 25.5702 30.442 25.6787C30.3709 25.7872 30.3331 25.914 30.333 26.0437V36.5103C30.3363 38.8623 31.4663 41.0703 33.373 42.449L40.2843 47.4337C40.4924 47.5843 40.7428 47.6654 40.9997 47.6654C41.2566 47.6654 41.5069 47.5843 41.715 47.4337L48.6263 42.4497C49.566 41.7701 50.3314 40.8777 50.8598 39.8455C51.3882 38.8133 51.6646 37.6706 51.6663 36.511V26.0437C51.6663 25.914 51.6284 25.7872 51.5574 25.6787C51.4863 25.5702 51.3852 25.4849 51.2663 25.433ZM50.333 36.511C50.3315 37.4595 50.1054 38.3941 49.6732 39.2384C49.2409 40.0826 48.6149 40.8125 47.8463 41.3683L40.9997 46.3063L34.153 41.3683C33.3844 40.8125 32.7584 40.0826 32.3262 39.2384C31.894 38.3941 31.6678 37.4595 31.6663 36.511V26.4797L40.9997 22.3943L50.333 26.4797V36.511Z" fill="#87C332"/>
<path d="M40.7334 23.9668L33.4001 27.1775C33.2812 27.2293 33.1801 27.3147 33.1091 27.4232C33.038 27.5316 33.0001 27.6585 33.0001 27.7881V36.5115C33.0011 37.2488 33.1768 37.9755 33.5129 38.6318C33.8489 39.2882 34.3358 39.8556 34.9334 40.2875L40.6101 44.3821C40.7236 44.464 40.8601 44.5081 41.0001 44.5081C41.1401 44.5081 41.2765 44.464 41.3901 44.3821L47.0667 40.2875C47.6644 39.8556 48.1512 39.2882 48.4873 38.6318C48.8233 37.9755 48.9991 37.2488 49.0001 36.5115V27.7881C49 27.6585 48.9621 27.5316 48.8911 27.4232C48.8201 27.3147 48.7189 27.2293 48.6001 27.1775L41.2668 23.9668C41.1826 23.9301 41.0919 23.9111 41.0001 23.9111C40.9083 23.9111 40.8175 23.9301 40.7334 23.9668ZM47.6668 28.2235V36.5115C47.6657 37.0377 47.5402 37.5561 47.3003 38.0245C47.0605 38.4929 46.7131 38.8978 46.2868 39.2061L41.0001 43.0195L35.7134 39.2061C35.287 38.8978 34.9397 38.4929 34.6998 38.0245C34.46 37.5561 34.3344 37.0377 34.3334 36.5115V28.2235L41.0001 25.3055L47.6668 28.2235ZM26.5234 43.1335L25.0814 39.7641C24.9687 39.5088 24.8068 39.2782 24.6049 39.0854C24.4031 38.8926 24.1653 38.7415 23.905 38.6407C23.6447 38.5398 23.3672 38.4912 23.0881 38.4977C22.8091 38.5041 22.5341 38.5654 22.2787 38.6781C22.0234 38.7908 21.7928 38.9527 21.6 39.1546C21.4073 39.3564 21.2561 39.5943 21.1553 39.8545C21.0545 40.1148 21.0059 40.3924 21.0123 40.6714C21.0187 40.9504 21.08 41.2255 21.1927 41.4808L23.8054 47.2281C24.1579 48.0062 24.6482 48.714 25.2527 49.3175L29.3614 53.4268C29.1301 53.6721 29.0014 53.9961 29.0001 54.3335V59.6668C29.0001 60.0204 29.1406 60.3596 29.3906 60.6096C29.6407 60.8596 29.9798 61.0001 30.3334 61.0001H37.6667C38.0204 61.0001 38.3595 60.8596 38.6096 60.6096C38.8596 60.3596 39.0001 60.0204 39.0001 59.6668V54.3335C39.0001 53.9798 38.8596 53.6407 38.6096 53.3906C38.3595 53.1406 38.0204 53.0001 37.6667 53.0001V51.7595C37.6872 50.1806 37.1721 48.6413 36.2054 47.3928C35.6387 46.6474 34.8663 46.0841 33.9834 45.7721C32.5793 45.1822 31.288 44.3535 30.1667 43.3228C29.6598 42.9053 29.0322 42.6615 28.3763 42.6274C27.7204 42.5933 27.0709 42.7707 26.5234 43.1335ZM37.6667 59.6668H30.3334V54.3335H37.6667V59.6668ZM35.1647 48.2255C35.9418 49.2379 36.3537 50.4833 36.3334 51.7595V53.0001H30.8208L26.1954 48.3748C25.7042 47.8842 25.3056 47.309 25.0187 46.6768L22.4061 40.9295C22.3597 40.8337 22.3331 40.7295 22.3278 40.6232C22.3225 40.5169 22.3387 40.4106 22.3754 40.3107C22.4121 40.2107 22.4685 40.1192 22.5414 40.0416C22.6142 39.964 22.7019 39.9018 22.7993 39.8588C22.8967 39.8158 23.0017 39.7929 23.1081 39.7913C23.2146 39.7898 23.3202 39.8097 23.4188 39.8499C23.5173 39.8901 23.6068 39.9498 23.6818 40.0253C23.7568 40.1008 23.8159 40.1906 23.8554 40.2895L25.3467 43.7675C25.7428 44.6954 26.3136 45.5385 27.0281 46.2508L30.0734 49.2968C30.1349 49.3605 30.2085 49.4113 30.2898 49.4462C30.3711 49.4811 30.4586 49.4995 30.5471 49.5003C30.6357 49.5011 30.7235 49.4842 30.8054 49.4507C30.8873 49.4172 30.9618 49.3676 31.0243 49.3051C31.0869 49.2425 31.1364 49.168 31.17 49.0861C31.2035 49.0042 31.2204 48.9164 31.2196 48.8279C31.2188 48.7393 31.2004 48.6519 31.1655 48.5705C31.1305 48.4892 31.0798 48.4156 31.0161 48.3541L27.9707 45.3081C27.6645 45.0026 27.3892 44.6677 27.1487 44.3081C27.4596 44.0689 27.8425 43.9422 28.2347 43.9487C28.6269 43.9553 29.0053 44.0947 29.3081 44.3441C30.5543 45.4878 31.9947 46.3999 33.5614 47.0375C34.1998 47.2696 34.7568 47.6823 35.1647 48.2255Z" fill="#87C332"/>
<path d="M35.6663 56.3334H34.9997C34.8229 56.3334 34.6533 56.4037 34.5283 56.5287C34.4032 56.6537 34.333 56.8233 34.333 57.0001C34.333 57.1769 34.4032 57.3465 34.5283 57.4715C34.6533 57.5965 34.8229 57.6668 34.9997 57.6668H35.6663C35.8432 57.6668 36.0127 57.5965 36.1377 57.4715C36.2628 57.3465 36.333 57.1769 36.333 57.0001C36.333 56.8233 36.2628 56.6537 36.1377 56.5287C36.0127 56.4037 35.8432 56.3334 35.6663 56.3334ZM58.1943 47.2281L60.807 41.4808C60.925 41.2247 60.9909 40.9477 61.0008 40.6659C61.0108 40.3841 60.9645 40.1031 60.8647 39.8393C60.765 39.5756 60.6138 39.3343 60.4198 39.1296C60.2259 38.9249 59.9932 38.7608 59.7353 38.6469C59.4773 38.533 59.1993 38.4716 58.9173 38.4662C58.6354 38.4608 58.3552 38.5116 58.0931 38.6156C57.831 38.7196 57.5922 38.8747 57.3906 39.0718C57.1891 39.269 57.0287 39.5044 56.919 39.7641L55.4803 43.1208C54.9309 42.7598 54.2802 42.5844 53.6238 42.6204C52.9673 42.6564 52.3397 42.9019 51.833 43.3208C50.7118 44.3515 49.4205 45.1802 48.0163 45.7701C47.1335 46.082 46.3611 46.6454 45.7943 47.3908C44.8273 48.6399 44.3121 50.1799 44.333 51.7594V53.0001C43.9794 53.0001 43.6402 53.1406 43.3902 53.3906C43.1401 53.6407 42.9997 53.9798 42.9997 54.3334V59.6668C42.9997 60.0204 43.1401 60.3595 43.3902 60.6096C43.6402 60.8596 43.9794 61.0001 44.333 61.0001H51.6663C52.02 61.0001 52.3591 60.8596 52.6092 60.6096C52.8592 60.3595 52.9997 60.0204 52.9997 59.6668V54.3334C52.999 53.9963 52.8697 53.672 52.6383 53.4268L56.747 49.3174C57.3515 48.714 57.8419 48.0061 58.1943 47.2281ZM51.6663 59.6668H44.333V54.3334H51.6663V59.6668ZM51.179 53.0001H45.6663V51.7594C45.6462 50.4836 46.0581 49.2384 46.835 48.2261C47.242 47.6834 47.7979 47.2704 48.435 47.0374C50.002 46.4001 51.4427 45.488 52.689 44.3441C52.9914 44.0928 53.3702 43.9517 53.7633 43.9441C54.1564 43.9365 54.5404 44.0627 54.8523 44.3021C54.6112 44.6643 54.3345 45.0015 54.0263 45.3088L50.981 48.3548C50.8596 48.4805 50.7924 48.6489 50.7939 48.8237C50.7954 48.9985 50.8655 49.1657 50.9891 49.2893C51.1127 49.4129 51.2799 49.483 51.4547 49.4846C51.6295 49.4861 51.7979 49.4189 51.9237 49.2974L54.969 46.2514C55.6835 45.5391 56.2543 44.696 56.6503 43.7681L58.1417 40.2894C58.1981 40.1571 58.2896 40.0427 58.4062 39.9585C58.5228 39.8742 58.6602 39.8234 58.8035 39.8114C58.9469 39.7994 59.0908 39.8267 59.2198 39.8904C59.3488 39.954 59.458 40.0517 59.5357 40.1728C59.6823 40.3994 59.7023 40.6848 59.591 40.9301L56.9783 46.6774C56.6915 47.3097 56.2929 47.8849 55.8017 48.3754L51.179 53.0001Z" fill="#87C332"/>
<path d="M46.9997 56.3334H46.333C46.1562 56.3334 45.9866 56.4037 45.8616 56.5287C45.7366 56.6537 45.6663 56.8233 45.6663 57.0001C45.6663 57.1769 45.7366 57.3465 45.8616 57.4715C45.9866 57.5965 46.1562 57.6668 46.333 57.6668H46.9997C47.1765 57.6668 47.3461 57.5965 47.4711 57.4715C47.5961 57.3465 47.6663 57.1769 47.6663 57.0001C47.6663 56.8233 47.5961 56.6537 47.4711 56.5287C47.3461 56.4037 47.1765 56.3334 46.9997 56.3334ZM37.3997 35.1334C37.2582 35.0273 37.0804 34.9818 36.9054 35.0068C36.7304 35.0318 36.5724 35.1253 36.4663 35.2668C36.3603 35.4082 36.3147 35.586 36.3397 35.761C36.3647 35.9361 36.4582 36.094 36.5997 36.2001L39.2663 38.2001C39.3389 38.2545 39.4217 38.2935 39.5098 38.3148C39.5979 38.3361 39.6895 38.3392 39.7788 38.3239C39.8682 38.3086 39.9535 38.2753 40.0295 38.2259C40.1055 38.1765 40.1707 38.1122 40.221 38.0368L45.5543 30.0368C45.6525 29.8896 45.6881 29.7096 45.6535 29.5362C45.6189 29.3628 45.5168 29.2102 45.3697 29.1121C45.2226 29.014 45.0425 28.9783 44.8691 29.0129C44.6957 29.0475 44.5431 29.1496 44.445 29.2968L39.5023 36.7108L37.3997 35.1334Z" fill="#87C332"/>
</g>
<defs>
<filter id="filter0_d_65_2119" x="0" y="0" width="82" height="82" filterUnits="userSpaceOnUse" color-interpolation-filters="sRGB">
<feFlood flood-opacity="0" result="BackgroundImageFix"/>
<feColorMatrix in="SourceAlpha" type="matrix" values="0 0 0 0 0 0 0 0 0 0 0 0 0 0 0 0 0 0 127 0" result="hardAlpha"/>
<feOffset/>
<feGaussianBlur stdDeviation="6"/>
<feComposite in2="hardAlpha" operator="out"/>
<feColorMatrix type="matrix" values="0 0 0 0 0.438333 0 0 0 0 0.438333 0 0 0 0 0.438333 0 0 0 0.13 0"/>
<feBlend mode="normal" in2="BackgroundImageFix" result="effect1_dropShadow_65_2119"/>
<feBlend mode="normal" in="SourceGraphic" in2="effect1_dropShadow_65_2119" result="shape"/>
</filter>
<clipPath id="clip0_65_2119">
<rect width="40" height="40" fill="white" transform="translate(21 21)"/>
</clipPath>
</defs>
</svg>
