<svg width="82" height="82" viewBox="0 0 82 82" fill="none" xmlns="http://www.w3.org/2000/svg">
<g filter="url(#filter0_d_65_2184)">
<circle cx="41" cy="41" r="29" fill="white"/>
</g>
<g clip-path="url(#clip0_65_2184)">
<path d="M59.7216 51.5436L51.8566 43.5918C52.1406 42.4957 52.719 41.4982 53.5294 40.7074L54.5358 39.701C54.9498 39.286 55.1823 38.7238 55.1823 38.1377C55.1823 37.5515 54.9498 36.9893 54.5358 36.5743L53.5294 35.5679C52.2863 34.3249 51.6561 32.8032 51.6561 31.0454V29.6218C51.6554 29.0357 51.4222 28.4737 51.0077 28.0592C50.5932 27.6448 50.0313 27.4116 49.4451 27.4109H48.0217C46.2639 27.4109 44.7422 26.7806 43.4992 25.5375L42.4927 24.5313C42.0775 24.1179 41.5154 23.8857 40.9294 23.8857C40.3434 23.8857 39.7813 24.1179 39.3661 24.5313L38.3596 25.5377C37.1165 26.7807 35.5949 27.411 33.8371 27.411H32.4136C31.8274 27.4116 31.2654 27.6448 30.8509 28.0593C30.4364 28.4738 30.2033 29.0357 30.2026 29.6219V31.0453C30.2026 32.8031 29.5724 34.3249 28.3293 35.5679L27.323 36.5743C26.9096 36.9896 26.6775 37.5517 26.6775 38.1377C26.6775 38.7236 26.9096 39.2857 27.323 39.701L28.3294 40.7074C28.9176 41.2864 29.3876 41.9743 29.7133 42.7328L21.7413 50.6875C21.604 50.8248 21.5075 50.9975 21.4628 51.1864C21.418 51.3753 21.4267 51.5729 21.4879 51.7572C21.549 51.9414 21.6603 52.105 21.8092 52.2296C21.958 52.3542 22.1386 52.435 22.3308 52.4628L26.5597 53.0747L27.1717 57.3037C27.1989 57.4961 27.2794 57.6769 27.4041 57.8259C27.5287 57.9749 27.6926 58.086 27.8772 58.1466C27.9847 58.1824 28.0974 58.2008 28.2108 58.2009C28.3483 58.2009 28.4844 58.1735 28.6112 58.1203C28.738 58.067 28.8528 57.989 28.9491 57.8908L37.0255 49.7015C37.5128 49.9882 37.9612 50.3364 38.3597 50.7375L39.3661 51.7441C39.781 52.1581 40.3432 52.3906 40.9294 52.3906C41.5155 52.3906 42.0777 52.1581 42.4927 51.7441L43.4991 50.7377C43.6715 50.5657 43.8528 50.4028 44.0422 50.2498L52.5135 58.7465C52.6101 58.8439 52.7249 58.9212 52.8515 58.974C52.9781 59.0268 53.1139 59.054 53.251 59.054C53.364 59.054 53.4762 59.0357 53.5834 59C53.7679 58.9394 53.9318 58.8283 54.0565 58.6793C54.1811 58.5304 54.2616 58.3495 54.2888 58.1572L54.9008 53.9282L59.1297 53.3162C59.3215 53.2885 59.5019 53.208 59.6506 53.0837C59.7993 52.9594 59.9106 52.7962 59.972 52.6123C60.0334 52.4285 60.0425 52.2312 59.9983 52.0425C59.9541 51.8537 59.8583 51.681 59.7216 51.5436ZM28.2404 57.0518L27.5836 52.5136C27.5667 52.3969 27.5124 52.2887 27.429 52.2053C27.3456 52.1219 27.2374 52.0677 27.1207 52.0508L22.5816 51.394L30.0758 43.9159C30.161 44.3487 30.2035 44.7889 30.2026 45.23V46.6534C30.2032 47.2396 30.4364 47.8016 30.8509 48.216C31.2653 48.6305 31.8273 48.8637 32.4135 48.8643H33.8369C34.5627 48.8597 35.2841 48.9778 35.9706 49.2136L28.2404 57.0518ZM42.7258 49.9643L41.7193 50.9707C41.5097 51.1799 41.2256 51.2973 40.9294 51.2973C40.6332 51.2973 40.3491 51.1799 40.1394 50.9707L39.133 49.9643C37.6774 48.5086 35.8956 47.7705 33.837 47.7705H32.4136C32.1175 47.7702 31.8335 47.6524 31.624 47.4429C31.4146 47.2335 31.2968 46.9495 31.2965 46.6533V45.23C31.2965 43.1714 30.5583 41.3896 29.1027 39.934L28.0965 38.9276C27.8873 38.7179 27.7698 38.4339 27.7698 38.1377C27.7698 37.8415 27.8873 37.5574 28.0965 37.3477L29.1028 36.3413C30.5584 34.8857 31.2965 33.1039 31.2965 31.0453V29.6219C31.2969 29.3257 31.4147 29.0418 31.6241 28.8323C31.8336 28.6229 32.1175 28.5051 32.4137 28.5047H33.8372C35.8956 28.5047 37.6774 27.7667 39.1331 26.3111L40.1395 25.3047C40.3496 25.0964 40.6335 24.9795 40.9294 24.9795C41.2253 24.9795 41.5092 25.0964 41.7193 25.3047L42.7258 26.3112C44.1815 27.7668 45.9633 28.5048 48.0218 28.5049H49.4452C49.7414 28.5052 50.0254 28.6231 50.2348 28.8325C50.4442 29.0419 50.562 29.3259 50.5624 29.6221V31.0455C50.5624 33.104 51.3004 34.8858 52.756 36.3415L53.7625 37.3479C53.9708 37.558 54.0876 37.8419 54.0876 38.1378C54.0876 38.4337 53.9708 38.7176 53.7625 38.9277L52.7561 39.9341C51.3004 41.3898 50.5623 43.1717 50.5624 45.2303V46.6536C50.562 46.9497 50.4442 47.2337 50.2348 47.4431C50.0253 47.6526 49.7414 47.7704 49.4452 47.7707H48.0219C45.9633 47.7706 44.1815 48.5086 42.7258 49.9643ZM54.3395 52.9043C54.2227 52.9212 54.1145 52.9754 54.0311 53.0588C53.9477 53.1422 53.8934 53.2504 53.8765 53.3672L53.2197 57.9062L44.965 49.6265C45.9018 49.1148 46.9545 48.8525 48.0219 48.8647H49.4451C50.0313 48.864 50.5932 48.6308 51.0077 48.2163C51.4222 47.8018 51.6554 47.2399 51.6561 46.6537V45.2301C51.6561 45.1364 51.6587 45.0432 51.6623 44.9507L58.8794 52.2475L54.3395 52.9043ZM44.3506 35.5822C44.4014 35.633 44.4417 35.6933 44.4692 35.7597C44.4966 35.826 44.5108 35.8971 44.5108 35.969C44.5108 36.0408 44.4966 36.1119 44.4692 36.1782C44.4417 36.2446 44.4014 36.3049 44.3506 36.3557L40.5772 40.1291C40.5264 40.1799 40.4661 40.2202 40.3997 40.2477C40.3334 40.2752 40.2623 40.2893 40.1904 40.2893C40.1186 40.2893 40.0475 40.2752 39.9812 40.2477C39.9148 40.2202 39.8545 40.1799 39.8037 40.1291L37.9467 38.2722C37.8441 38.1696 37.7865 38.0305 37.7865 37.8854C37.7865 37.7404 37.8441 37.6013 37.9467 37.4987C38.0493 37.3962 38.1884 37.3385 38.3334 37.3385C38.4785 37.3385 38.6176 37.3962 38.7201 37.4987L40.1904 38.969L43.5769 35.5824C43.6277 35.5316 43.688 35.4912 43.7544 35.4637C43.8207 35.4362 43.8919 35.422 43.9637 35.422C44.0356 35.422 44.1067 35.4361 44.1731 35.4636C44.2395 35.4911 44.2998 35.5314 44.3506 35.5822ZM40.9294 31.2593C39.5689 31.2593 38.239 31.6627 37.1078 32.4186C35.9766 33.1745 35.0949 34.2488 34.5743 35.5058C34.0537 36.7627 33.9175 38.1458 34.183 39.4802C34.4484 40.8145 35.1036 42.0402 36.0657 43.0022C37.0277 43.9642 38.2534 44.6193 39.5878 44.8846C40.9222 45.15 42.3053 45.0137 43.5622 44.493C44.8191 43.9723 45.8934 43.0906 46.6492 41.9594C47.405 40.8281 47.8083 39.4981 47.8083 38.1376C47.8061 36.314 47.0806 34.5656 45.7911 33.2761C44.5015 31.9866 42.7531 31.2613 40.9294 31.2593ZM40.9294 43.9233C39.7853 43.9233 38.6669 43.584 37.7155 42.9484C36.7642 42.3127 36.0228 41.4093 35.5849 40.3523C35.147 39.2952 35.0325 38.1321 35.2556 37.0099C35.4788 35.8878 36.0297 34.857 36.8387 34.0479C37.6477 33.2389 38.6784 32.6879 39.8005 32.4646C40.9226 32.2413 42.0858 32.3557 43.1429 32.7935C44.1999 33.2312 45.1035 33.9726 45.7392 34.9239C46.375 35.8751 46.7144 36.9935 46.7145 38.1376C46.7128 39.6714 46.1027 41.1418 45.0182 42.2263C43.9336 43.3109 42.4632 43.9209 40.9294 43.9226V43.9233Z" fill="#87C332"/>
</g>
<defs>
<filter id="filter0_d_65_2184" x="0" y="0" width="82" height="82" filterUnits="userSpaceOnUse" color-interpolation-filters="sRGB">
<feFlood flood-opacity="0" result="BackgroundImageFix"/>
<feColorMatrix in="SourceAlpha" type="matrix" values="0 0 0 0 0 0 0 0 0 0 0 0 0 0 0 0 0 0 127 0" result="hardAlpha"/>
<feOffset/>
<feGaussianBlur stdDeviation="6"/>
<feComposite in2="hardAlpha" operator="out"/>
<feColorMatrix type="matrix" values="0 0 0 0 0.438333 0 0 0 0 0.438333 0 0 0 0 0.438333 0 0 0 0.13 0"/>
<feBlend mode="normal" in2="BackgroundImageFix" result="effect1_dropShadow_65_2184"/>
<feBlend mode="normal" in="SourceGraphic" in2="effect1_dropShadow_65_2184" result="shape"/>
</filter>
<clipPath id="clip0_65_2184">
<rect width="40" height="40" fill="white" transform="translate(20.7305 21.4697)"/>
</clipPath>
</defs>
</svg>
