<svg width="82" height="82" viewBox="0 0 82 82" fill="none" xmlns="http://www.w3.org/2000/svg">
<g filter="url(#filter0_d_65_2110)">
<circle cx="41" cy="41" r="29" fill="white"/>
</g>
<path d="M56.4034 44.7583C55.8783 44.6527 55.3372 44.654 54.8126 44.7622C54.2879 44.8703 53.7904 45.0831 53.3498 45.3877L47.9846 49.07C47.7996 47.9274 46.8751 46.9402 45.3778 46.8745L40.2962 46.9123C38.9423 46.8851 37.6532 46.4021 36.6849 45.4481C35.4533 44.228 33.7884 43.5455 32.0547 43.55H32.0034L28.5332 43.5757C28.4082 43.2351 28.182 42.941 27.8849 42.7328C27.5878 42.5246 27.2341 42.4123 26.8713 42.4111H26.8585L23.6359 42.436C23.4357 42.4367 23.244 42.5169 23.103 42.659C22.9619 42.801 22.8831 42.9932 22.8838 43.1934C22.8845 43.3936 22.9647 43.5852 23.1067 43.7263C23.2487 43.8673 23.441 43.9462 23.6412 43.9455H23.6464L26.8713 43.9206C27.0185 43.9206 27.1385 44.0406 27.14 44.187L27.2155 54.3409C27.2158 54.3761 27.2092 54.411 27.196 54.4436C27.1828 54.4763 27.1633 54.506 27.1386 54.5311C27.114 54.5561 27.0846 54.5761 27.0522 54.5899C27.0198 54.6036 26.985 54.6108 26.9498 54.6111L23.7272 54.6353C23.527 54.636 23.3353 54.7162 23.1943 54.8582C23.0533 55.0002 22.9744 55.1925 22.9751 55.3926C22.9758 55.5928 23.056 55.7845 23.198 55.9255C23.3401 56.0666 23.5323 56.1454 23.7325 56.1447H23.7378L26.9612 56.1206C27.3269 56.1194 27.6832 56.0042 27.9804 55.791C28.2776 55.5778 28.5009 55.2772 28.6193 54.9311L31.374 54.9108C32.4395 54.8999 33.4811 55.2265 34.3498 55.8436L36.7061 57.5077C38.287 58.6224 40.1918 59.1838 42.1246 59.1046C44.0574 59.0255 45.9099 58.3102 47.3944 57.07L58.8427 47.4926C58.9844 47.3739 59.0776 47.2072 59.1046 47.0243C59.1316 46.8413 59.0905 46.6548 58.9891 46.5002C58.6972 46.0512 58.3178 45.6657 57.8737 45.3664C57.4297 45.0671 56.9291 44.8603 56.4034 44.7583ZM46.4261 55.9123C45.197 56.9394 43.6631 57.5317 42.0627 57.5972C40.4623 57.6628 38.8851 57.1978 37.5762 56.2745L35.2208 54.6104C34.1083 53.8215 32.7777 53.3989 31.414 53.4013L28.7189 53.4209L28.6562 45.0843L32.0147 45.0594C32.6836 45.0521 33.3472 45.1777 33.967 45.4291C34.5868 45.6805 35.1505 46.0525 35.6253 46.5236C36.8575 47.7444 38.5232 48.4272 40.2578 48.4225L45.3891 48.3847C46.057 48.4074 46.5053 48.9017 46.5098 49.4881C46.5118 49.7831 46.3967 50.0668 46.1897 50.277C45.9826 50.4871 45.7007 50.6065 45.4057 50.6089L38.6162 50.6594C38.4161 50.6601 38.2244 50.7403 38.0834 50.8824C37.9423 51.0244 37.8635 51.2166 37.8642 51.4168C37.8649 51.617 37.9451 51.8086 38.0871 51.9497C38.2291 52.0907 38.4214 52.1696 38.6215 52.1689H38.6268L45.417 52.1183C45.9587 52.1159 46.4862 51.9444 46.9257 51.6277L54.2042 46.6323C54.6661 46.3149 55.2209 46.1613 55.7803 46.1957C56.3397 46.2302 56.8715 46.4508 57.291 46.8225L46.4261 55.9123Z" fill="#87C332"/>
<path d="M54.3894 26.806L53.0777 25.4905C52.8129 25.2217 52.4597 25.0577 52.0833 25.0288C51.707 25 51.333 25.1082 51.0302 25.3335L49.8362 26.2128C49.4301 26.0035 49.0075 25.8275 48.5728 25.6867L48.3464 24.2211C48.2907 23.8487 48.1028 23.5089 47.817 23.2639C47.5312 23.0188 47.1667 22.885 46.7902 22.8867H44.9291C44.5531 22.8853 44.1891 23.0191 43.9037 23.2638C43.6182 23.5085 43.4303 23.8478 43.3743 24.2196L43.1472 25.6852C42.7094 25.8271 42.2876 26.0022 41.8838 26.2113L40.6898 25.332C40.3868 25.1072 40.0128 24.9991 39.6365 25.0278C39.2602 25.0565 38.9069 25.22 38.6415 25.4882L37.3313 26.806C37.0646 27.0708 36.9022 27.4227 36.8736 27.7974C36.8451 28.1721 36.9523 28.5446 37.1759 28.8467L38.0551 30.0467C37.8488 30.4526 37.6747 30.874 37.5343 31.3071L36.0604 31.535C35.6886 31.591 35.3493 31.7789 35.1046 32.0644C34.8599 32.3498 34.7261 32.7138 34.7276 33.0898V34.9501C34.7276 35.732 35.2883 36.3864 36.0619 36.5048L37.5366 36.7328C37.674 37.1652 37.8491 37.5879 38.0604 37.9962L37.1796 39.1909C36.9549 39.4934 36.8469 39.8668 36.8754 40.2426C36.904 40.6183 37.0672 40.9711 37.3351 41.2362L38.6438 42.5456C38.9088 42.8135 39.2616 42.9767 39.6374 43.0053C40.0131 43.0338 40.3866 42.9258 40.6891 42.7011L41.8792 41.8264C42.2921 42.0384 42.717 42.2158 43.1472 42.3554L43.3743 43.8203C43.4303 44.1922 43.6183 44.5316 43.9039 44.7763C44.1896 45.021 44.5537 45.1548 44.9298 45.1532H46.7909C47.1669 45.1546 47.5309 45.0208 47.8163 44.7761C48.1018 44.5314 48.2897 44.1921 48.3457 43.8203L48.5728 42.3562C49.0091 42.2135 49.4334 42.0364 49.8415 41.8264L51.0317 42.7011C51.3339 42.9262 51.7072 43.0345 52.0829 43.0061C52.4586 42.9776 52.8114 42.8144 53.0762 42.5464L54.3849 41.2369C54.6528 40.9719 54.816 40.6191 54.8446 40.2433C54.8731 39.8676 54.7651 39.4941 54.5404 39.1916L53.6604 37.9962C53.8717 37.5886 54.0468 37.166 54.1834 36.7328L55.6589 36.5056C56.0309 36.4499 56.3704 36.2622 56.6153 35.9767C56.8602 35.6912 56.9941 35.327 56.9925 34.9509V33.0905C56.9941 32.7144 56.8603 32.3503 56.6156 32.0646C56.3709 31.779 56.0315 31.591 55.6596 31.535L54.1872 31.3071C54.0466 30.874 53.8722 30.4526 53.6657 30.0467L54.5442 28.8467C54.7676 28.5446 54.8749 28.1722 54.8465 27.7976C54.8181 27.4229 54.6559 27.0709 54.3894 26.806ZM55.4287 33.0264C55.4439 33.0287 55.4578 33.0365 55.4678 33.0483C55.4778 33.0601 55.4832 33.0751 55.483 33.0905V34.9501C55.483 34.9818 55.4604 35.009 55.4287 35.0135L53.474 35.3154C53.3269 35.3381 53.1898 35.4039 53.0799 35.5043C52.9701 35.6048 52.8924 35.7355 52.8566 35.8799C52.7 36.5087 52.451 37.1107 52.1177 37.6664C52.0416 37.7939 52.0048 37.941 52.0119 38.0894C52.019 38.2377 52.0698 38.3807 52.1577 38.5003L53.3245 40.0852C53.334 40.0976 53.3386 40.1131 53.3375 40.1286C53.3363 40.1442 53.3296 40.1588 53.3185 40.1698L52.0083 41.4792C51.9975 41.49 51.9832 41.4966 51.9679 41.4977C51.9527 41.4989 51.9375 41.4944 51.9253 41.4852L50.3479 40.326C50.2293 40.239 50.0878 40.1885 49.9409 40.1808C49.7939 40.173 49.6479 40.2082 49.5208 40.2822C48.9396 40.6218 48.3306 40.8754 47.7117 41.0354C47.5689 41.0723 47.4401 41.1502 47.3411 41.2595C47.2421 41.3689 47.1773 41.5048 47.1547 41.6505L46.8543 43.5886C46.8522 43.6039 46.8446 43.6179 46.8329 43.628C46.8213 43.6381 46.8064 43.6437 46.7909 43.6437H44.9298C44.9144 43.6437 44.8995 43.6381 44.8878 43.628C44.8762 43.6179 44.8686 43.6039 44.8664 43.5886L44.566 41.6505C44.5434 41.5048 44.4787 41.3689 44.3797 41.2595C44.2807 41.1502 44.1518 41.0723 44.0091 41.0354C43.3742 40.8688 42.7655 40.6153 42.2 40.2822C42.0729 40.208 41.9269 40.1726 41.7799 40.1803C41.6329 40.1881 41.4914 40.2387 41.3728 40.326L39.7947 41.4852C39.7824 41.4943 39.7672 41.4986 39.7519 41.4974C39.7367 41.4961 39.7224 41.4894 39.7117 41.4784L38.4008 40.1698C38.3902 40.1588 38.3838 40.1445 38.3827 40.1293C38.3816 40.1142 38.3858 40.0991 38.3947 40.0867L39.5623 38.5018C39.6504 38.3821 39.7012 38.239 39.7083 38.0905C39.7155 37.942 39.6786 37.7947 39.6023 37.6671C39.2687 37.1115 39.0194 36.5095 38.8626 35.8807C38.827 35.7361 38.7494 35.6052 38.6395 35.5046C38.5297 35.404 38.3925 35.3382 38.2453 35.3154L36.2906 35.0143C36.2754 35.0119 36.2616 35.0043 36.2517 34.9926C36.2417 34.981 36.2362 34.9662 36.2362 34.9509V33.0905C36.2362 33.0581 36.2589 33.0316 36.2906 33.0264L38.2377 32.726C38.3833 32.7035 38.5191 32.6389 38.6284 32.5402C38.7376 32.4415 38.8157 32.313 38.8528 32.1705C39.0174 31.5396 39.2679 30.9328 39.5977 30.3682C39.6718 30.2413 39.7072 30.0954 39.6996 29.9486C39.692 29.8018 39.6416 29.6604 39.5547 29.5418L38.3925 27.9547C38.3835 27.9422 38.3793 27.927 38.3807 27.9117C38.3821 27.8965 38.3889 27.8822 38.4 27.8716L39.7109 26.5554C39.7216 26.5441 39.736 26.5371 39.7514 26.5357C39.7668 26.5344 39.7822 26.5387 39.7947 26.5479L41.3796 27.7147C41.6249 27.8958 41.9532 27.9109 42.2143 27.7547C42.7743 27.4211 43.3788 27.1687 44.0098 27.0052C44.1522 26.9681 44.2807 26.8902 44.3794 26.7811C44.478 26.6719 44.5427 26.5363 44.5653 26.3909L44.8657 24.4513C44.868 24.4361 44.8757 24.4223 44.8873 24.4124C44.8989 24.4024 44.9137 24.3969 44.9291 24.3969H46.7902C46.8219 24.3969 46.8483 24.4196 46.8536 24.4513L47.154 26.3909C47.1766 26.5363 47.2412 26.6719 47.3399 26.7811C47.4386 26.8902 47.567 26.9681 47.7094 27.0052C48.3472 27.1713 48.9517 27.4241 49.5057 27.7547C49.6331 27.831 49.7803 27.8679 49.9287 27.8608C50.0771 27.8537 50.2201 27.8028 50.3396 27.7147L51.9245 26.5486C51.9369 26.5397 51.9521 26.5355 51.9673 26.5367C51.9825 26.538 51.9968 26.5446 52.0075 26.5554L53.32 27.8716C53.3426 27.8943 53.3449 27.929 53.326 27.9547L52.1638 29.5418C52.077 29.6605 52.0268 29.8019 52.0193 29.9487C52.0118 30.0955 52.0473 30.2413 52.1215 30.3682C52.4508 30.9323 52.7017 31.5387 52.8672 32.1705C52.9043 32.3129 52.9822 32.4414 53.0913 32.54C53.2005 32.6387 53.3361 32.7034 53.4815 32.726L55.4287 33.0264Z" fill="#87C332"/>
<path d="M45.8551 33.266C45.5752 33.264 45.3075 33.1511 45.1108 32.9521C44.914 32.753 44.8041 32.4841 44.8053 32.2041C44.8075 31.9479 44.9026 31.7012 45.073 31.5099C45.2434 31.3186 45.4775 31.1956 45.7317 31.1639C45.9859 31.1321 46.243 31.1938 46.4552 31.3374C46.6674 31.481 46.8203 31.6967 46.8853 31.9445C46.9099 32.0405 46.9532 32.1307 47.0126 32.21C47.072 32.2893 47.1465 32.3561 47.2318 32.4066C47.317 32.457 47.4114 32.4903 47.5095 32.5043C47.6076 32.5183 47.7075 32.5129 47.8034 32.4883C47.8994 32.4637 47.9896 32.4205 48.0689 32.361C48.1482 32.3016 48.215 32.2271 48.2655 32.1419C48.316 32.0566 48.3492 31.9622 48.3632 31.8641C48.3772 31.7661 48.3718 31.6662 48.3472 31.5702C48.2373 31.145 48.0197 30.7554 47.7154 30.4388C47.4111 30.1222 47.0303 29.8893 46.6099 29.7626V29.3377C46.6099 29.1376 46.5303 28.9456 46.3888 28.8041C46.2473 28.6625 46.0553 28.583 45.8551 28.583C45.655 28.583 45.463 28.6625 45.3215 28.8041C45.1799 28.9456 45.1004 29.1376 45.1004 29.3377V29.7709C44.0589 30.0955 43.2959 31.057 43.2959 32.2041C43.2951 32.8843 43.5641 33.5369 44.0439 34.019C44.5236 34.501 45.175 34.7731 45.8551 34.7755C46.4408 34.7755 46.917 35.2472 46.917 35.826C46.917 36.4117 46.4408 36.8879 45.8551 36.8879C45.6207 36.8874 45.3932 36.8085 45.2087 36.6638C45.0242 36.5192 44.8934 36.317 44.837 36.0894C44.782 35.9022 44.6566 35.7435 44.4871 35.6466C44.3176 35.5498 44.1172 35.5223 43.9279 35.5699C43.7386 35.6175 43.5751 35.7365 43.4717 35.902C43.3682 36.0676 43.3328 36.2667 43.3729 36.4577C43.4802 36.884 43.6957 37.2754 43.9984 37.5942C44.3012 37.9129 44.681 38.1482 45.1012 38.2773V38.7038C45.1012 38.9039 45.1807 39.0959 45.3222 39.2374C45.4638 39.379 45.6557 39.4585 45.8559 39.4585C46.0561 39.4585 46.248 39.379 46.3896 39.2374C46.5311 39.0959 46.6106 38.9039 46.6106 38.7038V38.2713C47.6582 37.9468 48.4265 36.9792 48.4265 35.826C48.4243 35.1458 48.1523 34.4942 47.6702 34.0143C47.1882 33.5343 46.5354 33.2652 45.8551 33.266Z" fill="#87C332"/>
<defs>
<filter id="filter0_d_65_2110" x="0" y="0" width="82" height="82" filterUnits="userSpaceOnUse" color-interpolation-filters="sRGB">
<feFlood flood-opacity="0" result="BackgroundImageFix"/>
<feColorMatrix in="SourceAlpha" type="matrix" values="0 0 0 0 0 0 0 0 0 0 0 0 0 0 0 0 0 0 127 0" result="hardAlpha"/>
<feOffset/>
<feGaussianBlur stdDeviation="6"/>
<feComposite in2="hardAlpha" operator="out"/>
<feColorMatrix type="matrix" values="0 0 0 0 0.438333 0 0 0 0 0.438333 0 0 0 0 0.438333 0 0 0 0.13 0"/>
<feBlend mode="normal" in2="BackgroundImageFix" result="effect1_dropShadow_65_2110"/>
<feBlend mode="normal" in="SourceGraphic" in2="effect1_dropShadow_65_2110" result="shape"/>
</filter>
</defs>
</svg>
