<svg width="74" height="74" viewBox="0 0 74 74" fill="none" xmlns="http://www.w3.org/2000/svg">
<g id="Frame" clip-path="url(#clip0_119_1045)">
<g id="Group">
<path id="Vector" d="M37.123 25.8176C38.1416 25.8176 38.9664 24.9923 38.9664 23.9742C38.9664 22.9563 38.1416 22.1309 37.123 22.1309C28.9791 22.1309 22.377 28.733 22.377 36.8775C22.377 45.0216 28.9791 51.6238 37.123 51.6238C45.2677 51.6238 51.8699 45.0216 51.8699 36.8775C51.8699 35.8592 51.0444 35.0343 50.0265 35.0343C49.0086 35.0343 48.1832 35.8592 48.1832 36.8775C48.1832 42.9857 43.2318 47.9376 37.123 47.9376C31.015 47.9376 26.0631 42.9857 26.0631 36.8775C26.0631 30.7689 31.015 25.8176 37.123 25.8176Z" fill="#87C332"/>
<path id="Vector_2" d="M72.2944 25.9281C71.9741 24.9609 70.9309 24.4366 69.9631 24.7566C69.018 25.0693 68.4918 26.0754 68.7736 27.03C74.286 44.5845 64.5245 63.2836 46.9702 68.7962C29.4165 74.3086 10.7172 64.5472 5.20482 46.993C-0.308312 29.4387 9.45374 10.7394 27.0075 5.22683C33.5053 3.18646 40.4724 3.18646 46.9702 5.22683C47.9458 5.52095 48.975 4.96884 49.2693 3.99326C49.5589 3.03227 49.0276 2.01665 48.0729 1.7062C28.581 -4.40934 7.82155 6.43453 1.70616 25.927C-4.40938 45.4189 6.43492 66.1783 25.9269 72.2937C45.4194 78.4092 66.1782 67.5653 72.2936 48.0729C74.5552 40.8646 74.5554 33.1366 72.2942 25.9281H72.2944Z" fill="#87C332"/>
<path id="Vector_3" d="M40.6341 13.1693C40.6436 12.1198 39.8374 11.2424 38.7908 11.164C38.2402 11.1171 37.6893 11.0703 37.124 11.0703C22.8714 11.0703 11.3174 22.6243 11.3174 36.8769C11.3174 51.1292 22.8714 62.6831 37.124 62.6831C51.3762 62.6831 62.9302 51.1292 62.9302 36.8771C62.9302 36.2102 62.8896 35.5441 62.8078 34.8824C62.6604 33.8707 61.7209 33.17 60.7092 33.3174C59.6975 33.4641 58.9968 34.4043 59.1436 35.416C59.1493 35.4543 59.1561 35.492 59.1639 35.5305C59.2041 35.9771 59.2435 36.4196 59.2435 36.8759C59.2441 49.0927 49.341 58.9959 37.1246 58.997C24.9078 58.9976 15.0045 49.0937 15.0041 36.8775C15.0035 24.6613 24.9061 14.7574 37.123 14.757H37.1234C37.5809 14.757 38.0239 14.7965 38.4695 14.8359L38.8149 14.8648C39.7782 14.906 40.5922 14.1585 40.6329 13.1954C40.6335 13.1862 40.6335 13.1779 40.6341 13.1693Z" fill="#87C332"/>
<path id="Vector_4" d="M48.1837 16.6V23.2101L35.8205 35.5732C35.0883 36.2805 35.068 37.4476 35.7754 38.1798C36.4828 38.912 37.6499 38.9324 38.382 38.2251C38.3973 38.2103 38.4125 38.1951 38.4272 38.1798L50.7904 25.8168H57.4003C57.8892 25.8168 58.3578 25.6225 58.7039 25.2765L69.7635 14.2164C70.4832 13.4966 70.4832 12.3297 69.7635 11.6098C69.5924 11.4387 69.3892 11.3029 69.1656 11.2103C68.942 11.1177 68.7024 11.0701 68.4604 11.0701H62.9303V5.54004C62.9303 4.52211 62.1051 3.69669 61.0864 3.69727C60.5979 3.69738 60.1294 3.8915 59.784 4.23695L48.7239 15.2971C48.5526 15.4681 48.4167 15.6712 48.324 15.8947C48.2313 16.1183 48.1836 16.358 48.1837 16.6ZM51.8704 17.3634L59.2436 9.99001V12.9134C59.2436 13.9314 60.069 14.7568 61.087 14.7568H64.0104L56.637 22.1301H51.8704V17.3634Z" fill="#87C332"/>
</g>
</g>
<defs>
<clipPath id="clip0_119_1045">
<rect width="74" height="74" fill="white"/>
</clipPath>
</defs>
</svg>
