<svg width="123" height="35" viewBox="0 0 123 35" fill="none" xmlns="http://www.w3.org/2000/svg">
<path opacity="0.33" d="M26.64 16.4373L12.3218 0.528181C12.0163 0.190909 11.59 0 11.1382 0H1.5927C1.28538 0.00033302 0.98469 0.0893818 0.726749 0.256451C0.468808 0.42352 0.264583 0.661505 0.138607 0.941818C-0.115938 1.51773 -0.0109381 2.18909 0.409062 2.65364L13.7695 17.5L0.409062 32.3432C-0.0109381 32.8109 -0.11912 33.4823 0.138607 34.055C0.396334 34.6309 0.965881 35 1.5927 35H11.1382C11.59 35 12.0163 34.8059 12.3218 34.475L26.64 18.5659C27.1841 17.9614 27.1841 17.0386 26.64 16.4373Z" fill="#87C332"/>
<path d="M50.5052 16.4373L36.187 0.528181C35.8816 0.190909 35.4552 0 35.0034 0H25.4579C25.1506 0.00033302 24.8499 0.0893818 24.592 0.256451C24.334 0.42352 24.1298 0.661505 24.0038 0.941818C23.7493 1.51773 23.8543 2.18909 24.2743 2.65364L37.6347 17.5L24.2743 32.3432C23.8543 32.8109 23.7461 33.4823 24.0038 34.055C24.2616 34.6309 24.8311 35 25.4579 35H35.0034C35.4552 35 35.8816 34.8059 36.187 34.475L50.5052 18.5659C51.0493 17.9614 51.0493 17.0386 50.5052 16.4373Z" fill="#87C332"/>
<path opacity="0.33" d="M74.3695 16.4373L60.0513 0.528181C59.7458 0.190909 59.3195 0 58.8676 0H49.3222C49.0149 0.00033302 48.7142 0.0893818 48.4562 0.256451C48.1983 0.42352 47.9941 0.661505 47.8681 0.941818C47.6136 1.51773 47.7186 2.18909 48.1386 2.65364L61.499 17.5L48.1386 32.3432C47.7186 32.8109 47.6104 33.4823 47.8681 34.055C48.1258 34.6309 48.6954 35 49.3222 35H58.8676C59.3195 35 59.7458 34.8059 60.0513 34.475L74.3695 18.5659C74.9136 17.9614 74.9136 17.0386 74.3695 16.4373Z" fill="#87C332"/>
<path d="M98.2347 16.4373L83.9165 0.528181C83.6111 0.190909 83.1847 0 82.7329 0H73.1874C72.8801 0.00033302 72.5794 0.0893818 72.3215 0.256451C72.0635 0.42352 71.8593 0.661505 71.7333 0.941818C71.4788 1.51773 71.5838 2.18909 72.0038 2.65364L85.3642 17.5L72.0038 32.3432C71.5838 32.8109 71.4756 33.4823 71.7333 34.055C71.9911 34.6309 72.5606 35 73.1874 35H82.7329C83.1847 35 83.6111 34.8059 83.9165 34.475L98.2347 18.5659C98.7788 17.9614 98.7788 17.0386 98.2347 16.4373Z" fill="#87C332"/>
<path opacity="0.33" d="M122.1 16.4373L107.782 0.528181C107.476 0.190909 107.05 0 106.598 0H97.0527C96.7453 0.00033302 96.4447 0.0893818 96.1867 0.256451C95.9288 0.42352 95.7245 0.661505 95.5986 0.941818C95.344 1.51773 95.449 2.18909 95.869 2.65364L109.229 17.5L95.869 32.3432C95.449 32.8109 95.3408 33.4823 95.5986 34.055C95.8563 34.6309 96.4258 35 97.0527 35H106.598C107.05 35 107.476 34.8059 107.782 34.475L122.1 18.5659C122.644 17.9614 122.644 17.0386 122.1 16.4373Z" fill="#87C332"/>
</svg>
