<svg width="82" height="82" viewBox="0 0 82 82" fill="none" xmlns="http://www.w3.org/2000/svg">
<g filter="url(#filter0_d_65_2093)">
<circle cx="41" cy="41" r="29" fill="white"/>
</g>
<path d="M56.7503 36.9666C56.7504 36.9635 56.7504 36.9605 56.7503 36.9575V32.4844C56.7503 32.4017 56.7316 32.3201 56.6955 32.2458C56.6595 32.1714 56.607 32.1062 56.5421 32.055L52.5828 28.93C52.4863 28.8539 52.3669 28.8125 52.244 28.8125H49.494V24.9062C49.4933 24.2642 49.2379 23.6486 48.7839 23.1945C48.3298 22.7405 47.7142 22.4851 47.0721 22.4844H29.3987C28.7566 22.4851 28.141 22.7405 27.687 23.1945C27.233 23.6486 26.9776 24.2642 26.9768 24.9062V56.5469H25.7959C25.6509 56.5469 25.5118 56.6045 25.4092 56.7071C25.3066 56.8096 25.249 56.9487 25.249 57.0938V58.9688C25.249 59.1138 25.3066 59.2529 25.4092 59.3554C25.5118 59.458 25.6509 59.5156 25.7959 59.5156H50.6759C50.7477 59.5157 50.8189 59.5015 50.8852 59.4741C50.9516 59.4466 51.0119 59.4063 51.0627 59.3555C51.1135 59.3048 51.1538 59.2444 51.1812 59.1781C51.2087 59.1117 51.2228 59.0406 51.2228 58.9688V57.0938C51.2228 57.0219 51.2087 56.9508 51.1812 56.8844C51.1538 56.8181 51.1135 56.7577 51.0627 56.707C51.0119 56.6562 50.9516 56.6159 50.8852 56.5884C50.8189 56.561 50.7477 56.5468 50.6759 56.5469H49.494V46.2687H50.1784C50.2347 46.2688 50.2887 46.2912 50.3286 46.3311C50.3684 46.3709 50.3908 46.4249 50.3909 46.4813V51.3531C50.3909 52.1964 50.7259 53.0052 51.3222 53.6015C51.9185 54.1978 52.7273 54.5328 53.5706 54.5328C54.4139 54.5328 55.2227 54.1978 55.819 53.6015C56.4153 53.0052 56.7503 52.1964 56.7503 51.3531V38.8506C56.7504 38.8476 56.7504 38.8446 56.7503 38.8416V36.9666ZM55.6565 37.6497V38.2947H54.8753V37.5134H55.6565V37.6406V37.6497ZM55.6565 32.7497V36.4197H54.8753V33.3938C54.8717 33.3095 54.8504 33.227 54.8127 33.1516C54.775 33.0762 54.7218 33.0096 54.6565 32.9562C54.5588 32.8755 54.4361 32.8313 54.3093 32.8313H51.6284V31.2647C51.6284 31.2544 51.6315 31.2447 51.6315 31.2334V29.9062H52.0543L55.6565 32.7497ZM50.1784 43.3H49.494V31.7812H50.5346V33.3781C50.5346 33.45 50.5487 33.5211 50.5762 33.5875C50.6037 33.6538 50.6439 33.7141 50.6947 33.7649C50.7455 33.8157 50.8058 33.856 50.8722 33.8835C50.9386 33.9109 51.0097 33.925 51.0815 33.925H51.5378V34.75C51.5383 35.1435 51.6948 35.5208 51.9731 35.7991C52.2514 36.0773 52.6286 36.2339 53.0221 36.2344H53.7815V51.3531C53.7815 51.4091 53.7593 51.4627 53.7197 51.5023C53.6802 51.5418 53.6265 51.5641 53.5706 51.5641C53.5146 51.5641 53.461 51.5418 53.4214 51.5023C53.3819 51.4627 53.3596 51.4091 53.3596 51.3531V46.4813C53.3587 45.6378 53.0232 44.8292 52.4268 44.2329C51.8304 43.6365 51.0218 43.301 50.1784 43.3ZM53.7815 33.925V35.1406H53.0221C52.9186 35.1405 52.8193 35.0994 52.746 35.0261C52.6728 34.9529 52.6316 34.8536 52.6315 34.75V33.925H53.7815ZM50.5378 29.9062V30.6875H49.495V29.9062H50.5378ZM29.3987 23.5781H47.0731C47.4252 23.5785 47.7628 23.7186 48.0118 23.9676C48.2607 24.2166 48.4008 24.5541 48.4012 24.9062V35.1006C48.3986 35.4511 48.2576 35.7863 48.0091 36.0333C47.7605 36.2803 47.4245 36.4192 47.074 36.4197H29.3987C29.0495 36.4191 28.7145 36.2811 28.4663 36.0355C28.218 35.7899 28.0764 35.4564 28.0721 35.1072V24.9062C28.0726 24.5544 28.2124 24.2171 28.4611 23.9681C28.7097 23.7192 29.0469 23.579 29.3987 23.5781ZM50.129 58.4219H26.344V57.6406H50.129V58.4219ZM28.0721 56.5469V37.1153C28.4658 37.3752 28.9271 37.5136 29.3987 37.5134H47.0731C47.545 37.5135 48.0065 37.375 48.4003 37.115V56.5469H28.0721ZM53.5721 53.4406C53.0187 53.44 52.4881 53.2198 52.0968 52.8285C51.7055 52.4371 51.4853 51.9066 51.4846 51.3531V46.4813C51.4842 46.1349 51.3465 45.8029 51.1016 45.558C50.8567 45.3132 50.5247 45.1754 50.1784 45.175H49.494V44.3937H50.1784C50.7319 44.3943 51.2625 44.6144 51.6538 45.0058C52.0452 45.3972 52.2653 45.9278 52.2659 46.4813V51.3531C52.2659 51.5245 52.2996 51.6941 52.3652 51.8524C52.4308 52.0107 52.5269 52.1545 52.648 52.2757C52.7692 52.3968 52.913 52.4929 53.0713 52.5585C53.2296 52.6241 53.3993 52.6578 53.5706 52.6578C53.7419 52.6578 53.9116 52.6241 54.0699 52.5585C54.2282 52.4929 54.372 52.3968 54.4931 52.2757C54.6143 52.1545 54.7104 52.0107 54.776 51.8524C54.8415 51.6941 54.8753 51.5245 54.8753 51.3531V39.3884H55.6565V51.3531C55.6563 51.9061 55.4367 52.4365 55.0459 52.8278C54.6552 53.2192 54.1252 53.4395 53.5721 53.4406Z" fill="#87C332"/>
<path d="M29.3984 45.1272C29.2534 45.1272 29.1143 45.1848 29.0117 45.2874C28.9092 45.3899 28.8516 45.529 28.8516 45.6741V47.8616C28.8516 48.0066 28.9092 48.1457 29.0117 48.2483C29.1143 48.3508 29.2534 48.4084 29.3984 48.4084C29.5435 48.4084 29.6826 48.3508 29.7851 48.2483C29.8877 48.1457 29.9453 48.0066 29.9453 47.8616V45.6741C29.9454 45.6022 29.9312 45.5311 29.9038 45.4647C29.8763 45.3984 29.836 45.3381 29.7852 45.2873C29.7344 45.2365 29.6741 45.1962 29.6078 45.1687C29.5414 45.1413 29.4703 45.1271 29.3984 45.1272ZM31.2734 33.7634H45.1978C45.3429 33.7634 45.482 33.7058 45.5845 33.6033C45.6871 33.5007 45.7447 33.3616 45.7447 33.2166V26.7812C45.7447 26.6362 45.6871 26.4971 45.5845 26.3946C45.482 26.292 45.3429 26.2344 45.1978 26.2344H31.2734C31.1284 26.2344 30.9893 26.292 30.8867 26.3946C30.7842 26.4971 30.7266 26.6362 30.7266 26.7812V33.2166C30.7266 33.3616 30.7842 33.5007 30.8867 33.6033C30.9893 33.7058 31.1284 33.7634 31.2734 33.7634ZM31.8203 27.3281H44.6509V32.6697H31.8203V27.3281ZM38.2356 42.9044C37.2681 42.9044 36.3223 43.1913 35.5178 43.7288C34.7134 44.2663 34.0864 45.0303 33.7161 45.9242C33.3459 46.8181 33.249 47.8017 33.4377 48.7506C33.6265 49.6995 34.0924 50.5712 34.7765 51.2553C35.4607 51.9395 36.3323 52.4054 37.2813 52.5941C38.2302 52.7829 39.2138 52.686 40.1077 52.3158C41.0015 51.9455 41.7655 51.3185 42.3031 50.514C42.8406 49.7096 43.1275 48.7638 43.1275 47.7962C43.1261 46.4993 42.6102 45.2558 41.6931 44.3387C40.776 43.4216 39.5326 42.9058 38.2356 42.9044ZM38.2356 51.5941C37.4844 51.5941 36.7501 51.3713 36.1255 50.9539C35.5009 50.5366 35.014 49.9434 34.7266 49.2493C34.4391 48.5553 34.3639 47.7916 34.5105 47.0548C34.6571 46.3181 35.0188 45.6413 35.5501 45.1101C36.0813 44.579 36.7581 44.2173 37.4948 44.0708C38.2316 43.9242 38.9953 43.9995 39.6893 44.287C40.3833 44.5745 40.9765 45.0614 41.3938 45.686C41.8111 46.3107 42.0338 47.045 42.0337 47.7962C42.0325 48.8031 41.6319 49.7684 40.9199 50.4803C40.2079 51.1923 39.2425 51.593 38.2356 51.5941Z" fill="#87C332"/>
<line x1="41.4243" y1="44.9243" x2="35.4243" y2="50.9243" stroke="#87C332" stroke-width="1.2"/>
<defs>
<filter id="filter0_d_65_2093" x="0" y="0" width="82" height="82" filterUnits="userSpaceOnUse" color-interpolation-filters="sRGB">
<feFlood flood-opacity="0" result="BackgroundImageFix"/>
<feColorMatrix in="SourceAlpha" type="matrix" values="0 0 0 0 0 0 0 0 0 0 0 0 0 0 0 0 0 0 127 0" result="hardAlpha"/>
<feOffset/>
<feGaussianBlur stdDeviation="6"/>
<feComposite in2="hardAlpha" operator="out"/>
<feColorMatrix type="matrix" values="0 0 0 0 0.438333 0 0 0 0 0.438333 0 0 0 0 0.438333 0 0 0 0.13 0"/>
<feBlend mode="normal" in2="BackgroundImageFix" result="effect1_dropShadow_65_2093"/>
<feBlend mode="normal" in="SourceGraphic" in2="effect1_dropShadow_65_2093" result="shape"/>
</filter>
</defs>
</svg>
