<svg width="28" height="28" viewBox="0 0 28 28" fill="none" xmlns="http://www.w3.org/2000/svg">
<path d="M13.1987 22.0962C13.415 22.3124 13.6895 22.4173 14.0026 22.4173C14.3157 22.4173 14.5902 22.3124 14.8065 22.0962C15.0227 21.88 15.1276 21.6054 15.1276 21.2923V15.1256H21.2943C21.6074 15.1256 21.8819 15.0207 22.0981 14.8045C22.3143 14.5883 22.4193 14.3138 22.4193 14.0006C22.4193 13.6875 22.3143 13.413 22.0981 13.1968C21.8819 12.9806 21.6074 12.8756 21.2943 12.8756H15.1276V6.70898C15.1276 6.39586 15.0227 6.12134 14.8065 5.90512C14.5902 5.68891 14.3157 5.58398 14.0026 5.58398C13.6895 5.58398 13.415 5.68891 13.1987 5.90512C12.9825 6.12134 12.8776 6.39586 12.8776 6.70898V12.8756H6.71094C6.39782 12.8756 6.12329 12.9806 5.90708 13.1968C5.69086 13.413 5.58594 13.6875 5.58594 14.0006C5.58594 14.3138 5.69086 14.5883 5.90708 14.8045C6.12329 15.0207 6.39782 15.1256 6.71094 15.1256H12.8776V21.2923C12.8776 21.6054 12.9825 21.88 13.1987 22.0962Z" fill="#87C332" stroke="#87C332" stroke-width="0.5"/>
</svg>
