<svg width="35" height="123" viewBox="0 0 35 123" fill="none" xmlns="http://www.w3.org/2000/svg">
<path opacity="0.33" d="M16.4373 26.64L0.528181 12.3218C0.190909 12.0163 0 11.59 0 11.1382L0 1.5927C0.00033302 1.28538 0.0893818 0.98469 0.256451 0.726749C0.42352 0.468808 0.661505 0.264583 0.941818 0.138607C1.51773 -0.115938 2.18909 -0.0109381 2.65364 0.409062L17.5 13.7695L32.3432 0.409062C32.8109 -0.0109381 33.4823 -0.11912 34.055 0.138607C34.6309 0.396334 35 0.965881 35 1.5927V11.1382C35 11.59 34.8059 12.0163 34.475 12.3218L18.5659 26.64C17.9614 27.1841 17.0386 27.1841 16.4373 26.64Z" fill="#87C332"/>
<path d="M16.4373 50.5052L0.528181 36.187C0.190909 35.8816 0 35.4552 0 35.0034L0 25.4579C0.00033302 25.1506 0.0893818 24.8499 0.256451 24.592C0.42352 24.334 0.661505 24.1298 0.941818 24.0038C1.51773 23.7493 2.18909 23.8543 2.65364 24.2743L17.5 37.6347L32.3432 24.2743C32.8109 23.8543 33.4823 23.7461 34.055 24.0038C34.6309 24.2616 35 24.8311 35 25.4579V35.0034C35 35.4552 34.8059 35.8816 34.475 36.187L18.5659 50.5052C17.9614 51.0493 17.0386 51.0493 16.4373 50.5052Z" fill="#87C332"/>
<path opacity="0.33" d="M16.4373 74.3704L0.528181 60.0523C0.190909 59.7468 0 59.3204 0 58.8686L0 49.3232C0.00033302 49.0158 0.0893818 48.7152 0.256451 48.4572C0.42352 48.1993 0.661505 47.9951 0.941818 47.8691C1.51773 47.6145 2.18909 47.7195 2.65364 48.1395L17.5 61.5L32.3432 48.1395C32.8109 47.7195 33.4823 47.6113 34.055 47.8691C34.6309 48.1268 35 48.6963 35 49.3232V58.8686C35 59.3204 34.8059 59.7468 34.475 60.0523L18.5659 74.3704C17.9614 74.9145 17.0386 74.9145 16.4373 74.3704Z" fill="#87C332"/>
<path d="M16.4373 98.2357L0.528181 83.9175C0.190909 83.612 0 83.1857 0 82.7339L0 73.1884C0.00033302 72.8811 0.0893818 72.5804 0.256451 72.3225C0.42352 72.0645 0.661505 71.8603 0.941818 71.7343C1.51773 71.4798 2.18909 71.5848 2.65364 72.0048L17.5 85.3652L32.3432 72.0048C32.8109 71.5848 33.4823 71.4766 34.055 71.7343C34.6309 71.992 35 72.5616 35 73.1884V82.7339C35 83.1857 34.8059 83.612 34.475 83.9175L18.5659 98.2357C17.9614 98.7798 17.0386 98.7798 16.4373 98.2357Z" fill="#87C332"/>
<path opacity="0.33" d="M16.4373 122.099L0.528181 107.781C0.190909 107.475 0 107.049 0 106.597L0 97.0517C0.00033302 96.7444 0.0893818 96.4437 0.256451 96.1857C0.42352 95.9278 0.661505 95.7236 0.941818 95.5976C1.51773 95.343 2.18909 95.448 2.65364 95.868L17.5 109.228L32.3432 95.868C32.8109 95.448 33.4823 95.3399 34.055 95.5976C34.6309 95.8553 35 96.4249 35 97.0517V106.597C35 107.049 34.8059 107.475 34.475 107.781L18.5659 122.099C17.9614 122.643 17.0386 122.643 16.4373 122.099Z" fill="#87C332"/>
</svg>
