<svg width="74" height="74" viewBox="0 0 74 74" fill="none" xmlns="http://www.w3.org/2000/svg">
<g filter="url(#filter0_d_73_11152)">
<circle cx="37" cy="37" r="25" fill="white"/>
</g>
<path d="M36.7488 48.1712C37.6934 48.1714 38.635 48.064 39.5559 47.8512C39.6225 47.836 39.6854 47.8076 39.7411 47.7677C39.7968 47.7279 39.8441 47.6773 39.8804 47.6189C39.9167 47.5606 39.9413 47.4956 39.9527 47.4277C39.9641 47.3597 39.9621 47.2902 39.947 47.2231C39.9318 47.1559 39.9036 47.0924 39.8641 47.0362C39.8246 46.98 39.7745 46.9322 39.7167 46.8956C39.6588 46.8589 39.5944 46.8342 39.527 46.8228C39.4597 46.8114 39.3908 46.8135 39.3243 46.8291C38.4794 47.0242 37.6154 47.1227 36.7487 47.1226C30.4052 47.1226 25.2433 41.9 25.2433 35.4796C25.2433 29.0591 30.4052 23.8366 36.7487 23.8366C43.0923 23.8366 48.2542 29.0591 48.2542 35.4796C48.2542 36.1301 48.2005 36.7831 48.0946 37.4206L48.1439 37.4288L48.0946 37.4206C48.0719 37.5576 48.1038 37.6981 48.1835 37.8114C48.2633 37.9246 48.3843 38.0014 48.5201 38.0245C48.5874 38.036 48.6562 38.0339 48.7227 38.0185C48.7892 38.003 48.8519 37.9744 48.9074 37.9344C48.9629 37.8944 49.0101 37.8438 49.0461 37.7854C49.0822 37.7271 49.1066 37.6621 49.1178 37.5943C49.2336 36.8954 49.2917 36.1881 49.2917 35.4796C49.2917 28.4819 43.6656 22.7879 36.7488 22.7879C29.832 22.7879 24.2059 28.4819 24.2059 35.4796C24.2059 42.4772 29.832 48.1712 36.7488 48.1712Z" fill="#87C332" stroke="#87C332" stroke-width="0.1"/>
<mask id="path-3-outside-1_73_11152" maskUnits="userSpaceOnUse" x="25.2598" y="23.8652" width="27" height="30" fill="black">
<rect fill="white" x="25.2598" y="23.8652" width="27" height="30"/>
<path d="M45.7668 35.9534H46.7688C46.8931 35.9534 47.0124 35.9034 47.1003 35.8144C47.1882 35.7255 47.2376 35.6048 47.2376 35.479C47.2376 35.3532 47.1882 35.2326 47.1003 35.1436C47.0124 35.0547 46.8931 35.0047 46.7688 35.0047H45.7668C45.6425 35.0047 45.5233 35.0547 45.4354 35.1436C45.3475 35.2326 45.2981 35.3532 45.2981 35.479C45.2981 35.6048 45.3475 35.7255 45.4354 35.8144C45.5233 35.9034 45.6425 35.9534 45.7668 35.9534ZM28.1993 35.479C28.1993 35.3532 28.1499 35.2326 28.062 35.1436C27.9741 35.0547 27.8549 35.0047 27.7306 35.0047H26.7285C26.6042 35.0047 26.485 35.0547 26.3971 35.1436C26.3092 35.2326 26.2598 35.3532 26.2598 35.479C26.2598 35.6048 26.3092 35.7255 26.3971 35.8144C26.485 35.9034 26.6042 35.9534 26.7285 35.9534H27.7305C27.7921 35.9534 27.853 35.9411 27.9099 35.9173C27.9668 35.8934 28.0185 35.8585 28.062 35.8145C28.1055 35.7704 28.1401 35.7181 28.1636 35.6606C28.1872 35.603 28.1993 35.5413 28.1993 35.479ZM36.7487 44.1302C36.6244 44.1302 36.5052 44.1802 36.4172 44.2691C36.3293 44.3581 36.28 44.4787 36.28 44.6045V45.6185C36.28 45.7443 36.3293 45.8649 36.4172 45.9539C36.5052 46.0428 36.6244 46.0928 36.7487 46.0928C36.873 46.0928 36.9922 46.0428 37.0802 45.9539C37.1681 45.8649 37.2175 45.7443 37.2175 45.6185V44.6045C37.2175 44.4787 37.1681 44.3581 37.0802 44.2691C36.9922 44.1802 36.873 44.1302 36.7487 44.1302ZM37.2175 26.3535V25.3396C37.2175 25.2138 37.1681 25.0931 37.0802 25.0042C36.9922 24.9152 36.873 24.8652 36.7487 24.8652C36.6244 24.8652 36.5052 24.9152 36.4172 25.0042C36.3293 25.0931 36.28 25.2138 36.28 25.3396V26.3535C36.28 26.6155 36.4898 26.8278 36.7487 26.8278C37.0076 26.8278 37.2175 26.6155 37.2175 26.3535ZM41.2573 28.0505C41.3397 28.0506 41.4206 28.0287 41.492 27.9871C41.5633 27.9454 41.6225 27.8855 41.6637 27.8133L42.1647 26.9352C42.2259 26.8263 42.242 26.6974 42.2096 26.5765C42.1772 26.4556 42.0988 26.3526 41.9916 26.29C41.8844 26.2274 41.7571 26.2102 41.6374 26.2422C41.5177 26.2742 41.4154 26.3528 41.3528 26.4609L40.8518 27.339C40.8107 27.411 40.789 27.4928 40.789 27.576C40.789 27.6593 40.8106 27.741 40.8517 27.8131C40.8928 27.8852 40.9519 27.9451 41.0231 27.9868C41.0943 28.0285 41.1751 28.0504 41.2573 28.0505ZM32.474 42.9712C32.3664 42.9083 32.2384 42.8912 32.1183 42.9238C31.9982 42.9564 31.8959 43.0358 31.8337 43.1448L31.3327 44.0229C31.2715 44.1318 31.2554 44.2607 31.2878 44.3816C31.3203 44.5025 31.3986 44.6055 31.5058 44.6681C31.613 44.7307 31.7403 44.7479 31.86 44.7159C31.9797 44.6839 32.082 44.6053 32.1446 44.4972L32.6456 43.6191C32.7077 43.5102 32.7246 43.3807 32.6924 43.2592C32.6602 43.1377 32.5817 43.0341 32.474 42.9712ZM29.1731 30.5055L28.3054 29.9985C28.2521 29.9669 28.1931 29.9462 28.1318 29.9377C28.0706 29.9293 28.0083 29.9331 27.9485 29.9491C27.8887 29.9651 27.8327 29.9929 27.7836 30.0309C27.7345 30.0689 27.6933 30.1164 27.6624 30.1705C27.6315 30.2247 27.6115 30.2845 27.6035 30.3466C27.5955 30.4086 27.5998 30.4716 27.6159 30.532C27.6321 30.5923 27.66 30.6489 27.6979 30.6983C27.7357 30.7478 27.7829 30.7891 27.8366 30.82L28.7044 31.3271C28.7577 31.3582 28.8165 31.3785 28.8776 31.3866C28.9386 31.3948 29.0006 31.3907 29.0601 31.3745C29.1196 31.3584 29.1753 31.3306 29.2241 31.2927C29.273 31.2547 29.3139 31.2074 29.3447 31.1535C29.4069 31.0445 29.4237 30.9151 29.3915 30.7935C29.3594 30.672 29.2808 30.5684 29.1731 30.5055ZM32.6456 27.3389L32.1446 26.4608C32.082 26.3528 31.9797 26.2741 31.86 26.2421C31.7403 26.2101 31.613 26.2273 31.5058 26.2899C31.3986 26.3526 31.3203 26.4556 31.2878 26.5764C31.2554 26.6973 31.2715 26.8263 31.3327 26.9351L31.8337 27.8132C31.8645 27.8672 31.9054 27.9145 31.9543 27.9524C32.0031 27.9904 32.0588 28.0182 32.1183 28.0343C32.1778 28.0504 32.2398 28.0545 32.3008 28.0464C32.3619 28.0382 32.4207 28.018 32.474 27.9868C32.5817 27.9239 32.6602 27.8203 32.6924 27.6988C32.7246 27.5773 32.7077 27.4478 32.6456 27.3389ZM28.0714 41.0231C28.1535 41.0231 28.2342 41.0012 28.3053 40.9595L29.1731 40.4526C29.2799 40.3892 29.3576 40.2857 29.3892 40.1646C29.4208 40.0435 29.4038 39.9147 29.342 39.8062C29.2801 39.6977 29.1783 39.6184 29.0588 39.5856C28.9394 39.5528 28.8119 39.5691 28.7043 39.631L27.8366 40.138C27.7472 40.1902 27.6773 40.2708 27.6378 40.3673C27.5983 40.4639 27.5914 40.5709 27.6181 40.6718C27.6449 40.7727 27.7038 40.8618 27.7858 40.9253C27.8678 40.9889 27.9681 41.0233 28.0714 41.0231ZM44.793 31.3271L45.6608 30.82C45.7675 30.7567 45.8452 30.6532 45.8769 30.5321C45.9085 30.411 45.8915 30.2821 45.8296 30.1737C45.7677 30.0652 45.666 29.9859 45.5465 29.9531C45.4271 29.9203 45.2996 29.9366 45.192 29.9985L44.3243 30.5055C44.2175 30.5689 44.1398 30.6724 44.1082 30.7935C44.0765 30.9146 44.0935 31.0434 44.1554 31.1519C44.2173 31.2604 44.3191 31.3397 44.4385 31.3725C44.558 31.4053 44.6854 31.389 44.793 31.3271ZM37.2175 36.8893C37.4323 36.8156 37.6275 36.6929 37.7879 36.5306C37.9483 36.3682 38.0696 36.1707 38.1425 35.9533H43.7628C43.8871 35.9533 44.0064 35.9033 44.0943 35.8144C44.1822 35.7254 44.2316 35.6048 44.2316 35.479C44.2316 35.3532 44.1822 35.2325 44.0943 35.1436C44.0064 35.0546 43.8871 35.0046 43.7628 35.0046H38.1425C37.9463 34.416 37.3958 33.9907 36.7487 33.9907C35.9377 33.9907 35.278 34.6584 35.278 35.479C35.278 36.1338 35.6982 36.6907 36.28 36.8893V42.5766C36.28 42.7024 36.3293 42.823 36.4172 42.912C36.5052 43.001 36.6244 43.0509 36.7487 43.0509C36.873 43.0509 36.9922 43.001 37.0802 42.912C37.1681 42.823 37.2175 42.7024 37.2175 42.5766V36.8893ZM36.7487 34.9394C37.0428 34.9394 37.282 35.1815 37.282 35.479C37.282 35.7765 37.0428 36.0186 36.7487 36.0186C36.4546 36.0186 36.2155 35.7765 36.2155 35.479C36.2155 35.1815 36.4546 34.9394 36.7487 34.9394ZM51.7024 46.4312C51.6646 46.3496 51.6046 46.2805 51.5294 46.2322C51.4542 46.1838 51.367 46.1581 51.2779 46.1581H49.2416V39.5348C49.2416 39.409 49.1922 39.2884 49.1043 39.1994C49.0164 39.1105 48.8971 39.0605 48.7728 39.0605H43.7628C43.6384 39.0605 43.5192 39.1105 43.4313 39.1994C43.3434 39.2884 43.294 39.409 43.294 39.5348V46.1581H41.2577C41.1686 46.1581 41.0814 46.1838 41.0062 46.2322C40.9311 46.2806 40.8711 46.3496 40.8333 46.4312C40.7955 46.5129 40.7815 46.6037 40.7928 46.6931C40.8042 46.7825 40.8406 46.8668 40.8976 46.936L45.9076 53.0197C45.9516 53.0731 46.0067 53.1161 46.0689 53.1456C46.1312 53.1751 46.199 53.1904 46.2678 53.1904C46.3365 53.1904 46.4044 53.1751 46.4666 53.1456C46.5288 53.1161 46.5839 53.0731 46.6279 53.0197L51.638 46.936C51.695 46.8668 51.7314 46.7825 51.7428 46.6931C51.7542 46.6037 51.7402 46.5128 51.7024 46.4312ZM46.2678 51.9752L42.2586 47.1068H43.7628C43.8871 47.1068 44.0064 47.0568 44.0943 46.9678C44.1822 46.8789 44.2316 46.7582 44.2316 46.6324V40.0091H48.3041V46.6324C48.3041 46.7582 48.3535 46.8789 48.4414 46.9678C48.5293 47.0568 48.6486 47.1068 48.7729 47.1068H50.2771L46.2678 51.9752Z"/>
</mask>
<path d="M45.7668 35.9534H46.7688C46.8931 35.9534 47.0124 35.9034 47.1003 35.8144C47.1882 35.7255 47.2376 35.6048 47.2376 35.479C47.2376 35.3532 47.1882 35.2326 47.1003 35.1436C47.0124 35.0547 46.8931 35.0047 46.7688 35.0047H45.7668C45.6425 35.0047 45.5233 35.0547 45.4354 35.1436C45.3475 35.2326 45.2981 35.3532 45.2981 35.479C45.2981 35.6048 45.3475 35.7255 45.4354 35.8144C45.5233 35.9034 45.6425 35.9534 45.7668 35.9534ZM28.1993 35.479C28.1993 35.3532 28.1499 35.2326 28.062 35.1436C27.9741 35.0547 27.8549 35.0047 27.7306 35.0047H26.7285C26.6042 35.0047 26.485 35.0547 26.3971 35.1436C26.3092 35.2326 26.2598 35.3532 26.2598 35.479C26.2598 35.6048 26.3092 35.7255 26.3971 35.8144C26.485 35.9034 26.6042 35.9534 26.7285 35.9534H27.7305C27.7921 35.9534 27.853 35.9411 27.9099 35.9173C27.9668 35.8934 28.0185 35.8585 28.062 35.8145C28.1055 35.7704 28.1401 35.7181 28.1636 35.6606C28.1872 35.603 28.1993 35.5413 28.1993 35.479ZM36.7487 44.1302C36.6244 44.1302 36.5052 44.1802 36.4172 44.2691C36.3293 44.3581 36.28 44.4787 36.28 44.6045V45.6185C36.28 45.7443 36.3293 45.8649 36.4172 45.9539C36.5052 46.0428 36.6244 46.0928 36.7487 46.0928C36.873 46.0928 36.9922 46.0428 37.0802 45.9539C37.1681 45.8649 37.2175 45.7443 37.2175 45.6185V44.6045C37.2175 44.4787 37.1681 44.3581 37.0802 44.2691C36.9922 44.1802 36.873 44.1302 36.7487 44.1302ZM37.2175 26.3535V25.3396C37.2175 25.2138 37.1681 25.0931 37.0802 25.0042C36.9922 24.9152 36.873 24.8652 36.7487 24.8652C36.6244 24.8652 36.5052 24.9152 36.4172 25.0042C36.3293 25.0931 36.28 25.2138 36.28 25.3396V26.3535C36.28 26.6155 36.4898 26.8278 36.7487 26.8278C37.0076 26.8278 37.2175 26.6155 37.2175 26.3535ZM41.2573 28.0505C41.3397 28.0506 41.4206 28.0287 41.492 27.9871C41.5633 27.9454 41.6225 27.8855 41.6637 27.8133L42.1647 26.9352C42.2259 26.8263 42.242 26.6974 42.2096 26.5765C42.1772 26.4556 42.0988 26.3526 41.9916 26.29C41.8844 26.2274 41.7571 26.2102 41.6374 26.2422C41.5177 26.2742 41.4154 26.3528 41.3528 26.4609L40.8518 27.339C40.8107 27.411 40.789 27.4928 40.789 27.576C40.789 27.6593 40.8106 27.741 40.8517 27.8131C40.8928 27.8852 40.9519 27.9451 41.0231 27.9868C41.0943 28.0285 41.1751 28.0504 41.2573 28.0505ZM32.474 42.9712C32.3664 42.9083 32.2384 42.8912 32.1183 42.9238C31.9982 42.9564 31.8959 43.0358 31.8337 43.1448L31.3327 44.0229C31.2715 44.1318 31.2554 44.2607 31.2878 44.3816C31.3203 44.5025 31.3986 44.6055 31.5058 44.6681C31.613 44.7307 31.7403 44.7479 31.86 44.7159C31.9797 44.6839 32.082 44.6053 32.1446 44.4972L32.6456 43.6191C32.7077 43.5102 32.7246 43.3807 32.6924 43.2592C32.6602 43.1377 32.5817 43.0341 32.474 42.9712ZM29.1731 30.5055L28.3054 29.9985C28.2521 29.9669 28.1931 29.9462 28.1318 29.9377C28.0706 29.9293 28.0083 29.9331 27.9485 29.9491C27.8887 29.9651 27.8327 29.9929 27.7836 30.0309C27.7345 30.0689 27.6933 30.1164 27.6624 30.1705C27.6315 30.2247 27.6115 30.2845 27.6035 30.3466C27.5955 30.4086 27.5998 30.4716 27.6159 30.532C27.6321 30.5923 27.66 30.6489 27.6979 30.6983C27.7357 30.7478 27.7829 30.7891 27.8366 30.82L28.7044 31.3271C28.7577 31.3582 28.8165 31.3785 28.8776 31.3866C28.9386 31.3948 29.0006 31.3907 29.0601 31.3745C29.1196 31.3584 29.1753 31.3306 29.2241 31.2927C29.273 31.2547 29.3139 31.2074 29.3447 31.1535C29.4069 31.0445 29.4237 30.9151 29.3915 30.7935C29.3594 30.672 29.2808 30.5684 29.1731 30.5055ZM32.6456 27.3389L32.1446 26.4608C32.082 26.3528 31.9797 26.2741 31.86 26.2421C31.7403 26.2101 31.613 26.2273 31.5058 26.2899C31.3986 26.3526 31.3203 26.4556 31.2878 26.5764C31.2554 26.6973 31.2715 26.8263 31.3327 26.9351L31.8337 27.8132C31.8645 27.8672 31.9054 27.9145 31.9543 27.9524C32.0031 27.9904 32.0588 28.0182 32.1183 28.0343C32.1778 28.0504 32.2398 28.0545 32.3008 28.0464C32.3619 28.0382 32.4207 28.018 32.474 27.9868C32.5817 27.9239 32.6602 27.8203 32.6924 27.6988C32.7246 27.5773 32.7077 27.4478 32.6456 27.3389ZM28.0714 41.0231C28.1535 41.0231 28.2342 41.0012 28.3053 40.9595L29.1731 40.4526C29.2799 40.3892 29.3576 40.2857 29.3892 40.1646C29.4208 40.0435 29.4038 39.9147 29.342 39.8062C29.2801 39.6977 29.1783 39.6184 29.0588 39.5856C28.9394 39.5528 28.8119 39.5691 28.7043 39.631L27.8366 40.138C27.7472 40.1902 27.6773 40.2708 27.6378 40.3673C27.5983 40.4639 27.5914 40.5709 27.6181 40.6718C27.6449 40.7727 27.7038 40.8618 27.7858 40.9253C27.8678 40.9889 27.9681 41.0233 28.0714 41.0231ZM44.793 31.3271L45.6608 30.82C45.7675 30.7567 45.8452 30.6532 45.8769 30.5321C45.9085 30.411 45.8915 30.2821 45.8296 30.1737C45.7677 30.0652 45.666 29.9859 45.5465 29.9531C45.4271 29.9203 45.2996 29.9366 45.192 29.9985L44.3243 30.5055C44.2175 30.5689 44.1398 30.6724 44.1082 30.7935C44.0765 30.9146 44.0935 31.0434 44.1554 31.1519C44.2173 31.2604 44.3191 31.3397 44.4385 31.3725C44.558 31.4053 44.6854 31.389 44.793 31.3271ZM37.2175 36.8893C37.4323 36.8156 37.6275 36.6929 37.7879 36.5306C37.9483 36.3682 38.0696 36.1707 38.1425 35.9533H43.7628C43.8871 35.9533 44.0064 35.9033 44.0943 35.8144C44.1822 35.7254 44.2316 35.6048 44.2316 35.479C44.2316 35.3532 44.1822 35.2325 44.0943 35.1436C44.0064 35.0546 43.8871 35.0046 43.7628 35.0046H38.1425C37.9463 34.416 37.3958 33.9907 36.7487 33.9907C35.9377 33.9907 35.278 34.6584 35.278 35.479C35.278 36.1338 35.6982 36.6907 36.28 36.8893V42.5766C36.28 42.7024 36.3293 42.823 36.4172 42.912C36.5052 43.001 36.6244 43.0509 36.7487 43.0509C36.873 43.0509 36.9922 43.001 37.0802 42.912C37.1681 42.823 37.2175 42.7024 37.2175 42.5766V36.8893ZM36.7487 34.9394C37.0428 34.9394 37.282 35.1815 37.282 35.479C37.282 35.7765 37.0428 36.0186 36.7487 36.0186C36.4546 36.0186 36.2155 35.7765 36.2155 35.479C36.2155 35.1815 36.4546 34.9394 36.7487 34.9394ZM51.7024 46.4312C51.6646 46.3496 51.6046 46.2805 51.5294 46.2322C51.4542 46.1838 51.367 46.1581 51.2779 46.1581H49.2416V39.5348C49.2416 39.409 49.1922 39.2884 49.1043 39.1994C49.0164 39.1105 48.8971 39.0605 48.7728 39.0605H43.7628C43.6384 39.0605 43.5192 39.1105 43.4313 39.1994C43.3434 39.2884 43.294 39.409 43.294 39.5348V46.1581H41.2577C41.1686 46.1581 41.0814 46.1838 41.0062 46.2322C40.9311 46.2806 40.8711 46.3496 40.8333 46.4312C40.7955 46.5129 40.7815 46.6037 40.7928 46.6931C40.8042 46.7825 40.8406 46.8668 40.8976 46.936L45.9076 53.0197C45.9516 53.0731 46.0067 53.1161 46.0689 53.1456C46.1312 53.1751 46.199 53.1904 46.2678 53.1904C46.3365 53.1904 46.4044 53.1751 46.4666 53.1456C46.5288 53.1161 46.5839 53.0731 46.6279 53.0197L51.638 46.936C51.695 46.8668 51.7314 46.7825 51.7428 46.6931C51.7542 46.6037 51.7402 46.5128 51.7024 46.4312ZM46.2678 51.9752L42.2586 47.1068H43.7628C43.8871 47.1068 44.0064 47.0568 44.0943 46.9678C44.1822 46.8789 44.2316 46.7582 44.2316 46.6324V40.0091H48.3041V46.6324C48.3041 46.7582 48.3535 46.8789 48.4414 46.9678C48.5293 47.0568 48.6486 47.1068 48.7729 47.1068H50.2771L46.2678 51.9752Z" fill="#87C332"/>
<path d="M45.7668 35.9534H46.7688C46.8931 35.9534 47.0124 35.9034 47.1003 35.8144C47.1882 35.7255 47.2376 35.6048 47.2376 35.479C47.2376 35.3532 47.1882 35.2326 47.1003 35.1436C47.0124 35.0547 46.8931 35.0047 46.7688 35.0047H45.7668C45.6425 35.0047 45.5233 35.0547 45.4354 35.1436C45.3475 35.2326 45.2981 35.3532 45.2981 35.479C45.2981 35.6048 45.3475 35.7255 45.4354 35.8144C45.5233 35.9034 45.6425 35.9534 45.7668 35.9534ZM28.1993 35.479C28.1993 35.3532 28.1499 35.2326 28.062 35.1436C27.9741 35.0547 27.8549 35.0047 27.7306 35.0047H26.7285C26.6042 35.0047 26.485 35.0547 26.3971 35.1436C26.3092 35.2326 26.2598 35.3532 26.2598 35.479C26.2598 35.6048 26.3092 35.7255 26.3971 35.8144C26.485 35.9034 26.6042 35.9534 26.7285 35.9534H27.7305C27.7921 35.9534 27.853 35.9411 27.9099 35.9173C27.9668 35.8934 28.0185 35.8585 28.062 35.8145C28.1055 35.7704 28.1401 35.7181 28.1636 35.6606C28.1872 35.603 28.1993 35.5413 28.1993 35.479ZM36.7487 44.1302C36.6244 44.1302 36.5052 44.1802 36.4172 44.2691C36.3293 44.3581 36.28 44.4787 36.28 44.6045V45.6185C36.28 45.7443 36.3293 45.8649 36.4172 45.9539C36.5052 46.0428 36.6244 46.0928 36.7487 46.0928C36.873 46.0928 36.9922 46.0428 37.0802 45.9539C37.1681 45.8649 37.2175 45.7443 37.2175 45.6185V44.6045C37.2175 44.4787 37.1681 44.3581 37.0802 44.2691C36.9922 44.1802 36.873 44.1302 36.7487 44.1302ZM37.2175 26.3535V25.3396C37.2175 25.2138 37.1681 25.0931 37.0802 25.0042C36.9922 24.9152 36.873 24.8652 36.7487 24.8652C36.6244 24.8652 36.5052 24.9152 36.4172 25.0042C36.3293 25.0931 36.28 25.2138 36.28 25.3396V26.3535C36.28 26.6155 36.4898 26.8278 36.7487 26.8278C37.0076 26.8278 37.2175 26.6155 37.2175 26.3535ZM41.2573 28.0505C41.3397 28.0506 41.4206 28.0287 41.492 27.9871C41.5633 27.9454 41.6225 27.8855 41.6637 27.8133L42.1647 26.9352C42.2259 26.8263 42.242 26.6974 42.2096 26.5765C42.1772 26.4556 42.0988 26.3526 41.9916 26.29C41.8844 26.2274 41.7571 26.2102 41.6374 26.2422C41.5177 26.2742 41.4154 26.3528 41.3528 26.4609L40.8518 27.339C40.8107 27.411 40.789 27.4928 40.789 27.576C40.789 27.6593 40.8106 27.741 40.8517 27.8131C40.8928 27.8852 40.9519 27.9451 41.0231 27.9868C41.0943 28.0285 41.1751 28.0504 41.2573 28.0505ZM32.474 42.9712C32.3664 42.9083 32.2384 42.8912 32.1183 42.9238C31.9982 42.9564 31.8959 43.0358 31.8337 43.1448L31.3327 44.0229C31.2715 44.1318 31.2554 44.2607 31.2878 44.3816C31.3203 44.5025 31.3986 44.6055 31.5058 44.6681C31.613 44.7307 31.7403 44.7479 31.86 44.7159C31.9797 44.6839 32.082 44.6053 32.1446 44.4972L32.6456 43.6191C32.7077 43.5102 32.7246 43.3807 32.6924 43.2592C32.6602 43.1377 32.5817 43.0341 32.474 42.9712ZM29.1731 30.5055L28.3054 29.9985C28.2521 29.9669 28.1931 29.9462 28.1318 29.9377C28.0706 29.9293 28.0083 29.9331 27.9485 29.9491C27.8887 29.9651 27.8327 29.9929 27.7836 30.0309C27.7345 30.0689 27.6933 30.1164 27.6624 30.1705C27.6315 30.2247 27.6115 30.2845 27.6035 30.3466C27.5955 30.4086 27.5998 30.4716 27.6159 30.532C27.6321 30.5923 27.66 30.6489 27.6979 30.6983C27.7357 30.7478 27.7829 30.7891 27.8366 30.82L28.7044 31.3271C28.7577 31.3582 28.8165 31.3785 28.8776 31.3866C28.9386 31.3948 29.0006 31.3907 29.0601 31.3745C29.1196 31.3584 29.1753 31.3306 29.2241 31.2927C29.273 31.2547 29.3139 31.2074 29.3447 31.1535C29.4069 31.0445 29.4237 30.9151 29.3915 30.7935C29.3594 30.672 29.2808 30.5684 29.1731 30.5055ZM32.6456 27.3389L32.1446 26.4608C32.082 26.3528 31.9797 26.2741 31.86 26.2421C31.7403 26.2101 31.613 26.2273 31.5058 26.2899C31.3986 26.3526 31.3203 26.4556 31.2878 26.5764C31.2554 26.6973 31.2715 26.8263 31.3327 26.9351L31.8337 27.8132C31.8645 27.8672 31.9054 27.9145 31.9543 27.9524C32.0031 27.9904 32.0588 28.0182 32.1183 28.0343C32.1778 28.0504 32.2398 28.0545 32.3008 28.0464C32.3619 28.0382 32.4207 28.018 32.474 27.9868C32.5817 27.9239 32.6602 27.8203 32.6924 27.6988C32.7246 27.5773 32.7077 27.4478 32.6456 27.3389ZM28.0714 41.0231C28.1535 41.0231 28.2342 41.0012 28.3053 40.9595L29.1731 40.4526C29.2799 40.3892 29.3576 40.2857 29.3892 40.1646C29.4208 40.0435 29.4038 39.9147 29.342 39.8062C29.2801 39.6977 29.1783 39.6184 29.0588 39.5856C28.9394 39.5528 28.8119 39.5691 28.7043 39.631L27.8366 40.138C27.7472 40.1902 27.6773 40.2708 27.6378 40.3673C27.5983 40.4639 27.5914 40.5709 27.6181 40.6718C27.6449 40.7727 27.7038 40.8618 27.7858 40.9253C27.8678 40.9889 27.9681 41.0233 28.0714 41.0231ZM44.793 31.3271L45.6608 30.82C45.7675 30.7567 45.8452 30.6532 45.8769 30.5321C45.9085 30.411 45.8915 30.2821 45.8296 30.1737C45.7677 30.0652 45.666 29.9859 45.5465 29.9531C45.4271 29.9203 45.2996 29.9366 45.192 29.9985L44.3243 30.5055C44.2175 30.5689 44.1398 30.6724 44.1082 30.7935C44.0765 30.9146 44.0935 31.0434 44.1554 31.1519C44.2173 31.2604 44.3191 31.3397 44.4385 31.3725C44.558 31.4053 44.6854 31.389 44.793 31.3271ZM37.2175 36.8893C37.4323 36.8156 37.6275 36.6929 37.7879 36.5306C37.9483 36.3682 38.0696 36.1707 38.1425 35.9533H43.7628C43.8871 35.9533 44.0064 35.9033 44.0943 35.8144C44.1822 35.7254 44.2316 35.6048 44.2316 35.479C44.2316 35.3532 44.1822 35.2325 44.0943 35.1436C44.0064 35.0546 43.8871 35.0046 43.7628 35.0046H38.1425C37.9463 34.416 37.3958 33.9907 36.7487 33.9907C35.9377 33.9907 35.278 34.6584 35.278 35.479C35.278 36.1338 35.6982 36.6907 36.28 36.8893V42.5766C36.28 42.7024 36.3293 42.823 36.4172 42.912C36.5052 43.001 36.6244 43.0509 36.7487 43.0509C36.873 43.0509 36.9922 43.001 37.0802 42.912C37.1681 42.823 37.2175 42.7024 37.2175 42.5766V36.8893ZM36.7487 34.9394C37.0428 34.9394 37.282 35.1815 37.282 35.479C37.282 35.7765 37.0428 36.0186 36.7487 36.0186C36.4546 36.0186 36.2155 35.7765 36.2155 35.479C36.2155 35.1815 36.4546 34.9394 36.7487 34.9394ZM51.7024 46.4312C51.6646 46.3496 51.6046 46.2805 51.5294 46.2322C51.4542 46.1838 51.367 46.1581 51.2779 46.1581H49.2416V39.5348C49.2416 39.409 49.1922 39.2884 49.1043 39.1994C49.0164 39.1105 48.8971 39.0605 48.7728 39.0605H43.7628C43.6384 39.0605 43.5192 39.1105 43.4313 39.1994C43.3434 39.2884 43.294 39.409 43.294 39.5348V46.1581H41.2577C41.1686 46.1581 41.0814 46.1838 41.0062 46.2322C40.9311 46.2806 40.8711 46.3496 40.8333 46.4312C40.7955 46.5129 40.7815 46.6037 40.7928 46.6931C40.8042 46.7825 40.8406 46.8668 40.8976 46.936L45.9076 53.0197C45.9516 53.0731 46.0067 53.1161 46.0689 53.1456C46.1312 53.1751 46.199 53.1904 46.2678 53.1904C46.3365 53.1904 46.4044 53.1751 46.4666 53.1456C46.5288 53.1161 46.5839 53.0731 46.6279 53.0197L51.638 46.936C51.695 46.8668 51.7314 46.7825 51.7428 46.6931C51.7542 46.6037 51.7402 46.5128 51.7024 46.4312ZM46.2678 51.9752L42.2586 47.1068H43.7628C43.8871 47.1068 44.0064 47.0568 44.0943 46.9678C44.1822 46.8789 44.2316 46.7582 44.2316 46.6324V40.0091H48.3041V46.6324C48.3041 46.7582 48.3535 46.8789 48.4414 46.9678C48.5293 47.0568 48.6486 47.1068 48.7729 47.1068H50.2771L46.2678 51.9752Z" stroke="#87C332" stroke-width="0.2" mask="url(#path-3-outside-1_73_11152)"/>
<path d="M49.9474 38.4093L49.9473 38.4101L41.1003 48.9889C41.1003 48.9889 41.1003 48.9889 41.1003 48.9889C41.0817 48.9227 41.0504 48.8609 41.0081 48.8069C40.9658 48.7529 40.9134 48.7079 40.8539 48.6743C40.7943 48.6408 40.7288 48.6194 40.6611 48.6115C40.5933 48.6036 40.5247 48.6093 40.4591 48.6282C39.2583 48.9745 38.0101 49.15 36.749 49.15C33.1405 49.15 29.7483 47.7282 27.1965 45.1461C24.6448 42.564 23.2395 39.131 23.2395 35.4792C23.2395 31.8273 24.6448 28.3943 27.1965 25.8122C29.7482 23.23 33.1405 21.8082 36.749 21.8082C40.3574 21.8082 43.7497 23.23 46.3014 25.8122C48.8531 28.3943 50.2584 31.8272 50.2584 35.4792C50.2584 36.4672 50.1538 37.4531 49.9474 38.4093Z" fill="#87C332" stroke="#87C332" stroke-width="0.1"/>
<defs>
<filter id="filter0_d_73_11152" x="0" y="0" width="74" height="74" filterUnits="userSpaceOnUse" color-interpolation-filters="sRGB">
<feFlood flood-opacity="0" result="BackgroundImageFix"/>
<feColorMatrix in="SourceAlpha" type="matrix" values="0 0 0 0 0 0 0 0 0 0 0 0 0 0 0 0 0 0 127 0" result="hardAlpha"/>
<feOffset/>
<feGaussianBlur stdDeviation="6"/>
<feComposite in2="hardAlpha" operator="out"/>
<feColorMatrix type="matrix" values="0 0 0 0 0.438333 0 0 0 0 0.438333 0 0 0 0 0.438333 0 0 0 0.17 0"/>
<feBlend mode="normal" in2="BackgroundImageFix" result="effect1_dropShadow_73_11152"/>
<feBlend mode="normal" in="SourceGraphic" in2="effect1_dropShadow_73_11152" result="shape"/>
</filter>
</defs>
</svg>
