<svg width="267" height="82" viewBox="0 0 267 82" fill="none" xmlns="http://www.w3.org/2000/svg">
<g filter="url(#filter0_d_65_2129)">
<path d="M70 41C70 57.0163 57.0163 70 41 70C24.9837 70 12 57.0163 12 41C12 24.9837 24.9837 12 41 12C57.0163 12 70 24.9837 70 41Z" fill="white"/>
</g>
<path d="M40.6865 54.7872C41.8662 54.7874 43.0422 54.655 44.1924 54.3923C44.2739 54.3739 44.3511 54.3395 44.4194 54.2912C44.4876 54.2429 44.5457 54.1816 44.5903 54.1108C44.6348 54.04 44.665 53.9611 44.679 53.8786C44.693 53.7962 44.6906 53.7117 44.672 53.6302C44.6533 53.5487 44.6187 53.4716 44.5703 53.4034C44.5218 53.3353 44.4603 53.2774 44.3894 53.233C44.3185 53.1886 44.2395 53.1587 44.1571 53.1448C44.0746 53.131 43.9902 53.1336 43.9088 53.1525C42.8516 53.3938 41.7707 53.5155 40.6864 53.5154C32.7494 53.5154 26.2921 47.058 26.2921 39.1211C26.2921 31.1841 32.7494 24.7268 40.6864 24.7268C48.6234 24.7268 55.0807 31.1841 55.0807 39.1211C55.0807 39.9252 55.0135 40.7326 54.8811 41.5207L54.9304 41.5289L54.8811 41.5207C54.8532 41.687 54.8924 41.8576 54.9903 41.995C55.0881 42.1324 55.2366 42.2253 55.4029 42.2533C55.4852 42.2671 55.5695 42.2646 55.6509 42.2459C55.7323 42.2272 55.8092 42.1926 55.8772 42.1442C55.9453 42.0957 56.0031 42.0343 56.0474 41.9635C56.0917 41.8927 56.1216 41.8139 56.1354 41.7315C56.28 40.8689 56.3527 39.9957 56.3527 39.1211C56.3527 30.4827 49.3249 23.4549 40.6865 23.4549C32.0481 23.4549 25.0203 30.4827 25.0203 39.1211C25.0203 47.7595 32.0481 54.7872 40.6865 54.7872Z" fill="#87C332" stroke="#87C332" stroke-width="0.1"/>
<mask id="path-3-outside-1_65_2129" maskUnits="userSpaceOnUse" x="26.5752" y="25.0098" width="33" height="37" fill="black">
<rect fill="white" x="26.5752" y="25.0098" width="33" height="37"/>
<path d="M51.959 39.7069H53.2115C53.3669 39.7069 53.516 39.6451 53.6258 39.5353C53.7357 39.4254 53.7975 39.2763 53.7975 39.1209C53.7975 38.9655 53.7357 38.8165 53.6258 38.7066C53.516 38.5967 53.3669 38.535 53.2115 38.535H51.959C51.8036 38.535 51.6546 38.5967 51.5447 38.7066C51.4348 38.8165 51.3731 38.9655 51.3731 39.1209C51.3731 39.2763 51.4348 39.4254 51.5447 39.5353C51.6546 39.6451 51.8036 39.7069 51.959 39.7069ZM29.9996 39.1209C29.9996 38.9655 29.9379 38.8165 29.828 38.7066C29.7181 38.5967 29.5691 38.535 29.4137 38.535H28.1611C28.0057 38.535 27.8567 38.5967 27.7468 38.7066C27.6369 38.8165 27.5752 38.9655 27.5752 39.1209C27.5752 39.2763 27.6369 39.4254 27.7468 39.5353C27.8567 39.6451 28.0057 39.7069 28.1611 39.7069H29.4136C29.4906 39.7069 29.5668 39.6917 29.6379 39.6623C29.709 39.6329 29.7736 39.5897 29.828 39.5353C29.8824 39.4809 29.9256 39.4163 29.955 39.3452C29.9845 39.2741 29.9996 39.1979 29.9996 39.1209ZM40.6864 49.8077C40.531 49.8077 40.3819 49.8694 40.272 49.9793C40.1622 50.0892 40.1004 50.2382 40.1004 50.3936V51.6461C40.1004 51.8015 40.1622 51.9505 40.272 52.0604C40.3819 52.1703 40.531 52.232 40.6864 52.232C40.8418 52.232 40.9908 52.1703 41.1007 52.0604C41.2106 51.9505 41.2723 51.8015 41.2723 51.6461V50.3936C41.2723 50.2382 41.2106 50.0892 41.1007 49.9793C40.9908 49.8694 40.8418 49.8077 40.6864 49.8077ZM41.2723 27.8482V26.5957C41.2723 26.4403 41.2106 26.2913 41.1007 26.1814C40.9908 26.0715 40.8418 26.0098 40.6864 26.0098C40.531 26.0098 40.3819 26.0715 40.272 26.1814C40.1622 26.2913 40.1004 26.4403 40.1004 26.5957V27.8482C40.1004 28.1719 40.3628 28.4341 40.6864 28.4341C41.01 28.4341 41.2723 28.1719 41.2723 27.8482ZM46.3221 29.9445C46.4251 29.9446 46.5263 29.9176 46.6155 29.8662C46.7046 29.8147 46.7787 29.7407 46.8301 29.6515L47.4564 28.5668C47.5328 28.4323 47.553 28.273 47.5125 28.1237C47.4719 27.9744 47.374 27.8471 47.24 27.7698C47.106 27.6924 46.9468 27.6712 46.7972 27.7107C46.6476 27.7503 46.5198 27.8474 46.4415 27.9809L45.8153 29.0655C45.7639 29.1546 45.7368 29.2556 45.7367 29.3584C45.7367 29.4612 45.7637 29.5622 45.8151 29.6513C45.8664 29.7404 45.9403 29.8144 46.0293 29.8658C46.1183 29.9173 46.2193 29.9444 46.3221 29.9445ZM35.343 48.3759C35.2084 48.2982 35.0485 48.2772 34.8984 48.3174C34.7483 48.3576 34.6203 48.4558 34.5426 48.5904L33.9164 49.6751C33.8399 49.8096 33.8197 49.9689 33.8603 50.1182C33.9008 50.2675 33.9988 50.3948 34.1328 50.4721C34.2668 50.5495 34.4259 50.5707 34.5755 50.5312C34.7251 50.4916 34.853 50.3945 34.9312 50.261L35.5575 49.1763C35.6352 49.0418 35.6562 48.8818 35.616 48.7317C35.5758 48.5816 35.4776 48.4536 35.343 48.3759ZM31.2169 32.9772L30.1322 32.3509C30.0656 32.3118 29.9918 32.2863 29.9153 32.2758C29.8387 32.2653 29.7608 32.2701 29.6861 32.2899C29.6114 32.3096 29.5414 32.3439 29.48 32.3909C29.4186 32.4378 29.3671 32.4964 29.3285 32.5634C29.2898 32.6303 29.2648 32.7042 29.2548 32.7808C29.2449 32.8574 29.2502 32.9353 29.2704 33.0099C29.2907 33.0844 29.3255 33.1543 29.3728 33.2153C29.4202 33.2764 29.4791 33.3275 29.5463 33.3657L30.631 33.992C30.6976 34.0305 30.7712 34.0555 30.8475 34.0656C30.9238 34.0756 31.0013 34.0706 31.0756 34.0507C31.1499 34.0307 31.2196 33.9964 31.2807 33.9495C31.3417 33.9027 31.3929 33.8442 31.4314 33.7776C31.5091 33.643 31.5301 33.4831 31.4899 33.333C31.4497 33.1829 31.3515 33.0549 31.2169 32.9772ZM35.5575 29.0655L34.9312 27.9808C34.853 27.8473 34.7251 27.7502 34.5755 27.7106C34.4259 27.6711 34.2668 27.6923 34.1328 27.7697C33.9988 27.847 33.9008 27.9743 33.8603 28.1236C33.8197 28.2729 33.8399 28.4322 33.9164 28.5667L34.5426 29.6514C34.5811 29.7181 34.6323 29.7765 34.6933 29.8233C34.7544 29.8702 34.824 29.9046 34.8984 29.9245C34.9727 29.9444 35.0502 29.9495 35.1265 29.9394C35.2028 29.9294 35.2764 29.9044 35.343 29.8659C35.4776 29.7882 35.5758 29.6602 35.616 29.5101C35.6562 29.36 35.6352 29.2 35.5575 29.0655ZM29.8397 45.9695C29.9424 45.9695 30.0433 45.9424 30.1321 45.8909L31.2168 45.2647C31.3503 45.1864 31.4474 45.0586 31.487 44.909C31.5265 44.7594 31.5053 44.6002 31.4279 44.4662C31.3506 44.3322 31.2233 44.2343 31.074 44.1937C30.9247 44.1532 30.7654 44.1734 30.6309 44.2498L29.5462 44.8761C29.4344 44.9406 29.3471 45.0402 29.2977 45.1594C29.2483 45.2787 29.2397 45.4109 29.2732 45.5355C29.3066 45.6601 29.3803 45.7702 29.4827 45.8487C29.5852 45.9272 29.7107 45.9697 29.8397 45.9695ZM50.7418 33.992L51.8264 33.3657C51.9599 33.2875 52.057 33.1596 52.0966 33.01C52.1361 32.8604 52.1149 32.7012 52.0375 32.5672C51.9602 32.4333 51.833 32.3353 51.6836 32.2948C51.5343 32.2542 51.375 32.2744 51.2405 32.3509L50.1558 32.9772C50.0223 33.0554 49.9252 33.1833 49.8857 33.3329C49.8461 33.4825 49.8674 33.6416 49.9447 33.7756C50.0221 33.9096 50.1493 34.0076 50.2986 34.0481C50.448 34.0887 50.6073 34.0685 50.7418 33.992ZM41.2723 40.863C41.5409 40.772 41.7849 40.6204 41.9854 40.4199C42.1859 40.2194 42.3376 39.9754 42.4286 39.7068H49.454C49.6094 39.7068 49.7585 39.6451 49.8683 39.5352C49.9782 39.4253 50.04 39.2763 50.04 39.1209C50.04 38.9655 49.9782 38.8164 49.8683 38.7065C49.7585 38.5967 49.6094 38.5349 49.454 38.5349H42.4286C42.1833 37.8077 41.4953 37.2824 40.6864 37.2824C39.6726 37.2824 38.8479 38.1072 38.8479 39.1209C38.8479 39.9298 39.3732 40.6177 40.1004 40.863V47.8885C40.1004 48.0439 40.1622 48.193 40.272 48.3028C40.3819 48.4127 40.531 48.4745 40.6864 48.4745C40.8418 48.4745 40.9908 48.4127 41.1007 48.3028C41.2106 48.193 41.2723 48.0439 41.2723 47.8885V40.863ZM40.6864 38.4543C41.0539 38.4543 41.353 38.7534 41.353 39.1209C41.353 39.4884 41.0539 39.7874 40.6864 39.7874C40.3188 39.7874 40.0198 39.4884 40.0198 39.1209C40.0198 38.7534 40.3188 38.4543 40.6864 38.4543ZM59.3785 52.6501C59.3312 52.5492 59.2562 52.4639 59.1622 52.4042C59.0683 52.3445 58.9592 52.3127 58.8479 52.3127H56.3025V44.131C56.3025 43.9756 56.2407 43.8266 56.1308 43.7167C56.021 43.6068 55.8719 43.5451 55.7165 43.5451H49.4539C49.2985 43.5451 49.1495 43.6068 49.0396 43.7167C48.9297 43.8266 48.868 43.9756 48.868 44.131V52.3127H46.3226C46.2113 52.3127 46.1022 52.3445 46.0083 52.4042C45.9143 52.464 45.8393 52.5493 45.7921 52.6501C45.7448 52.7509 45.7273 52.8631 45.7416 52.9736C45.7558 53.084 45.8012 53.1881 45.8725 53.2737L52.135 60.7888C52.19 60.8548 52.2589 60.9079 52.3366 60.9444C52.4144 60.9808 52.4993 60.9997 52.5852 60.9997C52.6711 60.9997 52.7559 60.9808 52.8337 60.9444C52.9115 60.9079 52.9804 60.8548 53.0354 60.7888L59.2979 53.2737C59.3693 53.1881 59.4147 53.0841 59.429 52.9736C59.4433 52.8632 59.4257 52.7509 59.3785 52.6501ZM52.5853 59.4985L47.5737 53.4846H49.454C49.6094 53.4846 49.7585 53.4229 49.8683 53.313C49.9782 53.2031 50.04 53.0541 50.04 52.8987V44.717H55.1307V52.8987C55.1307 53.0541 55.1924 53.2031 55.3023 53.313C55.4122 53.4229 55.5612 53.4846 55.7166 53.4846H57.5969L52.5853 59.4985Z"/>
</mask>
<path d="M51.959 39.7069H53.2115C53.3669 39.7069 53.516 39.6451 53.6258 39.5353C53.7357 39.4254 53.7975 39.2763 53.7975 39.1209C53.7975 38.9655 53.7357 38.8165 53.6258 38.7066C53.516 38.5967 53.3669 38.535 53.2115 38.535H51.959C51.8036 38.535 51.6546 38.5967 51.5447 38.7066C51.4348 38.8165 51.3731 38.9655 51.3731 39.1209C51.3731 39.2763 51.4348 39.4254 51.5447 39.5353C51.6546 39.6451 51.8036 39.7069 51.959 39.7069ZM29.9996 39.1209C29.9996 38.9655 29.9379 38.8165 29.828 38.7066C29.7181 38.5967 29.5691 38.535 29.4137 38.535H28.1611C28.0057 38.535 27.8567 38.5967 27.7468 38.7066C27.6369 38.8165 27.5752 38.9655 27.5752 39.1209C27.5752 39.2763 27.6369 39.4254 27.7468 39.5353C27.8567 39.6451 28.0057 39.7069 28.1611 39.7069H29.4136C29.4906 39.7069 29.5668 39.6917 29.6379 39.6623C29.709 39.6329 29.7736 39.5897 29.828 39.5353C29.8824 39.4809 29.9256 39.4163 29.955 39.3452C29.9845 39.2741 29.9996 39.1979 29.9996 39.1209ZM40.6864 49.8077C40.531 49.8077 40.3819 49.8694 40.272 49.9793C40.1622 50.0892 40.1004 50.2382 40.1004 50.3936V51.6461C40.1004 51.8015 40.1622 51.9505 40.272 52.0604C40.3819 52.1703 40.531 52.232 40.6864 52.232C40.8418 52.232 40.9908 52.1703 41.1007 52.0604C41.2106 51.9505 41.2723 51.8015 41.2723 51.6461V50.3936C41.2723 50.2382 41.2106 50.0892 41.1007 49.9793C40.9908 49.8694 40.8418 49.8077 40.6864 49.8077ZM41.2723 27.8482V26.5957C41.2723 26.4403 41.2106 26.2913 41.1007 26.1814C40.9908 26.0715 40.8418 26.0098 40.6864 26.0098C40.531 26.0098 40.3819 26.0715 40.272 26.1814C40.1622 26.2913 40.1004 26.4403 40.1004 26.5957V27.8482C40.1004 28.1719 40.3628 28.4341 40.6864 28.4341C41.01 28.4341 41.2723 28.1719 41.2723 27.8482ZM46.3221 29.9445C46.4251 29.9446 46.5263 29.9176 46.6155 29.8662C46.7046 29.8147 46.7787 29.7407 46.8301 29.6515L47.4564 28.5668C47.5328 28.4323 47.553 28.273 47.5125 28.1237C47.4719 27.9744 47.374 27.8471 47.24 27.7698C47.106 27.6924 46.9468 27.6712 46.7972 27.7107C46.6476 27.7503 46.5198 27.8474 46.4415 27.9809L45.8153 29.0655C45.7639 29.1546 45.7368 29.2556 45.7367 29.3584C45.7367 29.4612 45.7637 29.5622 45.8151 29.6513C45.8664 29.7404 45.9403 29.8144 46.0293 29.8658C46.1183 29.9173 46.2193 29.9444 46.3221 29.9445ZM35.343 48.3759C35.2084 48.2982 35.0485 48.2772 34.8984 48.3174C34.7483 48.3576 34.6203 48.4558 34.5426 48.5904L33.9164 49.6751C33.8399 49.8096 33.8197 49.9689 33.8603 50.1182C33.9008 50.2675 33.9988 50.3948 34.1328 50.4721C34.2668 50.5495 34.4259 50.5707 34.5755 50.5312C34.7251 50.4916 34.853 50.3945 34.9312 50.261L35.5575 49.1763C35.6352 49.0418 35.6562 48.8818 35.616 48.7317C35.5758 48.5816 35.4776 48.4536 35.343 48.3759ZM31.2169 32.9772L30.1322 32.3509C30.0656 32.3118 29.9918 32.2863 29.9153 32.2758C29.8387 32.2653 29.7608 32.2701 29.6861 32.2899C29.6114 32.3096 29.5414 32.3439 29.48 32.3909C29.4186 32.4378 29.3671 32.4964 29.3285 32.5634C29.2898 32.6303 29.2648 32.7042 29.2548 32.7808C29.2449 32.8574 29.2502 32.9353 29.2704 33.0099C29.2907 33.0844 29.3255 33.1543 29.3728 33.2153C29.4202 33.2764 29.4791 33.3275 29.5463 33.3657L30.631 33.992C30.6976 34.0305 30.7712 34.0555 30.8475 34.0656C30.9238 34.0756 31.0013 34.0706 31.0756 34.0507C31.1499 34.0307 31.2196 33.9964 31.2807 33.9495C31.3417 33.9027 31.3929 33.8442 31.4314 33.7776C31.5091 33.643 31.5301 33.4831 31.4899 33.333C31.4497 33.1829 31.3515 33.0549 31.2169 32.9772ZM35.5575 29.0655L34.9312 27.9808C34.853 27.8473 34.7251 27.7502 34.5755 27.7106C34.4259 27.6711 34.2668 27.6923 34.1328 27.7697C33.9988 27.847 33.9008 27.9743 33.8603 28.1236C33.8197 28.2729 33.8399 28.4322 33.9164 28.5667L34.5426 29.6514C34.5811 29.7181 34.6323 29.7765 34.6933 29.8233C34.7544 29.8702 34.824 29.9046 34.8984 29.9245C34.9727 29.9444 35.0502 29.9495 35.1265 29.9394C35.2028 29.9294 35.2764 29.9044 35.343 29.8659C35.4776 29.7882 35.5758 29.6602 35.616 29.5101C35.6562 29.36 35.6352 29.2 35.5575 29.0655ZM29.8397 45.9695C29.9424 45.9695 30.0433 45.9424 30.1321 45.8909L31.2168 45.2647C31.3503 45.1864 31.4474 45.0586 31.487 44.909C31.5265 44.7594 31.5053 44.6002 31.4279 44.4662C31.3506 44.3322 31.2233 44.2343 31.074 44.1937C30.9247 44.1532 30.7654 44.1734 30.6309 44.2498L29.5462 44.8761C29.4344 44.9406 29.3471 45.0402 29.2977 45.1594C29.2483 45.2787 29.2397 45.4109 29.2732 45.5355C29.3066 45.6601 29.3803 45.7702 29.4827 45.8487C29.5852 45.9272 29.7107 45.9697 29.8397 45.9695ZM50.7418 33.992L51.8264 33.3657C51.9599 33.2875 52.057 33.1596 52.0966 33.01C52.1361 32.8604 52.1149 32.7012 52.0375 32.5672C51.9602 32.4333 51.833 32.3353 51.6836 32.2948C51.5343 32.2542 51.375 32.2744 51.2405 32.3509L50.1558 32.9772C50.0223 33.0554 49.9252 33.1833 49.8857 33.3329C49.8461 33.4825 49.8674 33.6416 49.9447 33.7756C50.0221 33.9096 50.1493 34.0076 50.2986 34.0481C50.448 34.0887 50.6073 34.0685 50.7418 33.992ZM41.2723 40.863C41.5409 40.772 41.7849 40.6204 41.9854 40.4199C42.1859 40.2194 42.3376 39.9754 42.4286 39.7068H49.454C49.6094 39.7068 49.7585 39.6451 49.8683 39.5352C49.9782 39.4253 50.04 39.2763 50.04 39.1209C50.04 38.9655 49.9782 38.8164 49.8683 38.7065C49.7585 38.5967 49.6094 38.5349 49.454 38.5349H42.4286C42.1833 37.8077 41.4953 37.2824 40.6864 37.2824C39.6726 37.2824 38.8479 38.1072 38.8479 39.1209C38.8479 39.9298 39.3732 40.6177 40.1004 40.863V47.8885C40.1004 48.0439 40.1622 48.193 40.272 48.3028C40.3819 48.4127 40.531 48.4745 40.6864 48.4745C40.8418 48.4745 40.9908 48.4127 41.1007 48.3028C41.2106 48.193 41.2723 48.0439 41.2723 47.8885V40.863ZM40.6864 38.4543C41.0539 38.4543 41.353 38.7534 41.353 39.1209C41.353 39.4884 41.0539 39.7874 40.6864 39.7874C40.3188 39.7874 40.0198 39.4884 40.0198 39.1209C40.0198 38.7534 40.3188 38.4543 40.6864 38.4543ZM59.3785 52.6501C59.3312 52.5492 59.2562 52.4639 59.1622 52.4042C59.0683 52.3445 58.9592 52.3127 58.8479 52.3127H56.3025V44.131C56.3025 43.9756 56.2407 43.8266 56.1308 43.7167C56.021 43.6068 55.8719 43.5451 55.7165 43.5451H49.4539C49.2985 43.5451 49.1495 43.6068 49.0396 43.7167C48.9297 43.8266 48.868 43.9756 48.868 44.131V52.3127H46.3226C46.2113 52.3127 46.1022 52.3445 46.0083 52.4042C45.9143 52.464 45.8393 52.5493 45.7921 52.6501C45.7448 52.7509 45.7273 52.8631 45.7416 52.9736C45.7558 53.084 45.8012 53.1881 45.8725 53.2737L52.135 60.7888C52.19 60.8548 52.2589 60.9079 52.3366 60.9444C52.4144 60.9808 52.4993 60.9997 52.5852 60.9997C52.6711 60.9997 52.7559 60.9808 52.8337 60.9444C52.9115 60.9079 52.9804 60.8548 53.0354 60.7888L59.2979 53.2737C59.3693 53.1881 59.4147 53.0841 59.429 52.9736C59.4433 52.8632 59.4257 52.7509 59.3785 52.6501ZM52.5853 59.4985L47.5737 53.4846H49.454C49.6094 53.4846 49.7585 53.4229 49.8683 53.313C49.9782 53.2031 50.04 53.0541 50.04 52.8987V44.717H55.1307V52.8987C55.1307 53.0541 55.1924 53.2031 55.3023 53.313C55.4122 53.4229 55.5612 53.4846 55.7166 53.4846H57.5969L52.5853 59.4985Z" fill="#87C332"/>
<path d="M51.959 39.7069H53.2115C53.3669 39.7069 53.516 39.6451 53.6258 39.5353C53.7357 39.4254 53.7975 39.2763 53.7975 39.1209C53.7975 38.9655 53.7357 38.8165 53.6258 38.7066C53.516 38.5967 53.3669 38.535 53.2115 38.535H51.959C51.8036 38.535 51.6546 38.5967 51.5447 38.7066C51.4348 38.8165 51.3731 38.9655 51.3731 39.1209C51.3731 39.2763 51.4348 39.4254 51.5447 39.5353C51.6546 39.6451 51.8036 39.7069 51.959 39.7069ZM29.9996 39.1209C29.9996 38.9655 29.9379 38.8165 29.828 38.7066C29.7181 38.5967 29.5691 38.535 29.4137 38.535H28.1611C28.0057 38.535 27.8567 38.5967 27.7468 38.7066C27.6369 38.8165 27.5752 38.9655 27.5752 39.1209C27.5752 39.2763 27.6369 39.4254 27.7468 39.5353C27.8567 39.6451 28.0057 39.7069 28.1611 39.7069H29.4136C29.4906 39.7069 29.5668 39.6917 29.6379 39.6623C29.709 39.6329 29.7736 39.5897 29.828 39.5353C29.8824 39.4809 29.9256 39.4163 29.955 39.3452C29.9845 39.2741 29.9996 39.1979 29.9996 39.1209ZM40.6864 49.8077C40.531 49.8077 40.3819 49.8694 40.272 49.9793C40.1622 50.0892 40.1004 50.2382 40.1004 50.3936V51.6461C40.1004 51.8015 40.1622 51.9505 40.272 52.0604C40.3819 52.1703 40.531 52.232 40.6864 52.232C40.8418 52.232 40.9908 52.1703 41.1007 52.0604C41.2106 51.9505 41.2723 51.8015 41.2723 51.6461V50.3936C41.2723 50.2382 41.2106 50.0892 41.1007 49.9793C40.9908 49.8694 40.8418 49.8077 40.6864 49.8077ZM41.2723 27.8482V26.5957C41.2723 26.4403 41.2106 26.2913 41.1007 26.1814C40.9908 26.0715 40.8418 26.0098 40.6864 26.0098C40.531 26.0098 40.3819 26.0715 40.272 26.1814C40.1622 26.2913 40.1004 26.4403 40.1004 26.5957V27.8482C40.1004 28.1719 40.3628 28.4341 40.6864 28.4341C41.01 28.4341 41.2723 28.1719 41.2723 27.8482ZM46.3221 29.9445C46.4251 29.9446 46.5263 29.9176 46.6155 29.8662C46.7046 29.8147 46.7787 29.7407 46.8301 29.6515L47.4564 28.5668C47.5328 28.4323 47.553 28.273 47.5125 28.1237C47.4719 27.9744 47.374 27.8471 47.24 27.7698C47.106 27.6924 46.9468 27.6712 46.7972 27.7107C46.6476 27.7503 46.5198 27.8474 46.4415 27.9809L45.8153 29.0655C45.7639 29.1546 45.7368 29.2556 45.7367 29.3584C45.7367 29.4612 45.7637 29.5622 45.8151 29.6513C45.8664 29.7404 45.9403 29.8144 46.0293 29.8658C46.1183 29.9173 46.2193 29.9444 46.3221 29.9445ZM35.343 48.3759C35.2084 48.2982 35.0485 48.2772 34.8984 48.3174C34.7483 48.3576 34.6203 48.4558 34.5426 48.5904L33.9164 49.6751C33.8399 49.8096 33.8197 49.9689 33.8603 50.1182C33.9008 50.2675 33.9988 50.3948 34.1328 50.4721C34.2668 50.5495 34.4259 50.5707 34.5755 50.5312C34.7251 50.4916 34.853 50.3945 34.9312 50.261L35.5575 49.1763C35.6352 49.0418 35.6562 48.8818 35.616 48.7317C35.5758 48.5816 35.4776 48.4536 35.343 48.3759ZM31.2169 32.9772L30.1322 32.3509C30.0656 32.3118 29.9918 32.2863 29.9153 32.2758C29.8387 32.2653 29.7608 32.2701 29.6861 32.2899C29.6114 32.3096 29.5414 32.3439 29.48 32.3909C29.4186 32.4378 29.3671 32.4964 29.3285 32.5634C29.2898 32.6303 29.2648 32.7042 29.2548 32.7808C29.2449 32.8574 29.2502 32.9353 29.2704 33.0099C29.2907 33.0844 29.3255 33.1543 29.3728 33.2153C29.4202 33.2764 29.4791 33.3275 29.5463 33.3657L30.631 33.992C30.6976 34.0305 30.7712 34.0555 30.8475 34.0656C30.9238 34.0756 31.0013 34.0706 31.0756 34.0507C31.1499 34.0307 31.2196 33.9964 31.2807 33.9495C31.3417 33.9027 31.3929 33.8442 31.4314 33.7776C31.5091 33.643 31.5301 33.4831 31.4899 33.333C31.4497 33.1829 31.3515 33.0549 31.2169 32.9772ZM35.5575 29.0655L34.9312 27.9808C34.853 27.8473 34.7251 27.7502 34.5755 27.7106C34.4259 27.6711 34.2668 27.6923 34.1328 27.7697C33.9988 27.847 33.9008 27.9743 33.8603 28.1236C33.8197 28.2729 33.8399 28.4322 33.9164 28.5667L34.5426 29.6514C34.5811 29.7181 34.6323 29.7765 34.6933 29.8233C34.7544 29.8702 34.824 29.9046 34.8984 29.9245C34.9727 29.9444 35.0502 29.9495 35.1265 29.9394C35.2028 29.9294 35.2764 29.9044 35.343 29.8659C35.4776 29.7882 35.5758 29.6602 35.616 29.5101C35.6562 29.36 35.6352 29.2 35.5575 29.0655ZM29.8397 45.9695C29.9424 45.9695 30.0433 45.9424 30.1321 45.8909L31.2168 45.2647C31.3503 45.1864 31.4474 45.0586 31.487 44.909C31.5265 44.7594 31.5053 44.6002 31.4279 44.4662C31.3506 44.3322 31.2233 44.2343 31.074 44.1937C30.9247 44.1532 30.7654 44.1734 30.6309 44.2498L29.5462 44.8761C29.4344 44.9406 29.3471 45.0402 29.2977 45.1594C29.2483 45.2787 29.2397 45.4109 29.2732 45.5355C29.3066 45.6601 29.3803 45.7702 29.4827 45.8487C29.5852 45.9272 29.7107 45.9697 29.8397 45.9695ZM50.7418 33.992L51.8264 33.3657C51.9599 33.2875 52.057 33.1596 52.0966 33.01C52.1361 32.8604 52.1149 32.7012 52.0375 32.5672C51.9602 32.4333 51.833 32.3353 51.6836 32.2948C51.5343 32.2542 51.375 32.2744 51.2405 32.3509L50.1558 32.9772C50.0223 33.0554 49.9252 33.1833 49.8857 33.3329C49.8461 33.4825 49.8674 33.6416 49.9447 33.7756C50.0221 33.9096 50.1493 34.0076 50.2986 34.0481C50.448 34.0887 50.6073 34.0685 50.7418 33.992ZM41.2723 40.863C41.5409 40.772 41.7849 40.6204 41.9854 40.4199C42.1859 40.2194 42.3376 39.9754 42.4286 39.7068H49.454C49.6094 39.7068 49.7585 39.6451 49.8683 39.5352C49.9782 39.4253 50.04 39.2763 50.04 39.1209C50.04 38.9655 49.9782 38.8164 49.8683 38.7065C49.7585 38.5967 49.6094 38.5349 49.454 38.5349H42.4286C42.1833 37.8077 41.4953 37.2824 40.6864 37.2824C39.6726 37.2824 38.8479 38.1072 38.8479 39.1209C38.8479 39.9298 39.3732 40.6177 40.1004 40.863V47.8885C40.1004 48.0439 40.1622 48.193 40.272 48.3028C40.3819 48.4127 40.531 48.4745 40.6864 48.4745C40.8418 48.4745 40.9908 48.4127 41.1007 48.3028C41.2106 48.193 41.2723 48.0439 41.2723 47.8885V40.863ZM40.6864 38.4543C41.0539 38.4543 41.353 38.7534 41.353 39.1209C41.353 39.4884 41.0539 39.7874 40.6864 39.7874C40.3188 39.7874 40.0198 39.4884 40.0198 39.1209C40.0198 38.7534 40.3188 38.4543 40.6864 38.4543ZM59.3785 52.6501C59.3312 52.5492 59.2562 52.4639 59.1622 52.4042C59.0683 52.3445 58.9592 52.3127 58.8479 52.3127H56.3025V44.131C56.3025 43.9756 56.2407 43.8266 56.1308 43.7167C56.021 43.6068 55.8719 43.5451 55.7165 43.5451H49.4539C49.2985 43.5451 49.1495 43.6068 49.0396 43.7167C48.9297 43.8266 48.868 43.9756 48.868 44.131V52.3127H46.3226C46.2113 52.3127 46.1022 52.3445 46.0083 52.4042C45.9143 52.464 45.8393 52.5493 45.7921 52.6501C45.7448 52.7509 45.7273 52.8631 45.7416 52.9736C45.7558 53.084 45.8012 53.1881 45.8725 53.2737L52.135 60.7888C52.19 60.8548 52.2589 60.9079 52.3366 60.9444C52.4144 60.9808 52.4993 60.9997 52.5852 60.9997C52.6711 60.9997 52.7559 60.9808 52.8337 60.9444C52.9115 60.9079 52.9804 60.8548 53.0354 60.7888L59.2979 53.2737C59.3693 53.1881 59.4147 53.0841 59.429 52.9736C59.4433 52.8632 59.4257 52.7509 59.3785 52.6501ZM52.5853 59.4985L47.5737 53.4846H49.454C49.6094 53.4846 49.7585 53.4229 49.8683 53.313C49.9782 53.2031 50.04 53.0541 50.04 52.8987V44.717H55.1307V52.8987C55.1307 53.0541 55.1924 53.2031 55.3023 53.313C55.4122 53.4229 55.5612 53.4846 55.7166 53.4846H57.5969L52.5853 59.4985Z" stroke="#87C332" stroke-width="0.2" mask="url(#path-3-outside-1_65_2129)"/>
<path d="M57.197 42.7432L57.1969 42.744C57.1639 42.9077 57.1965 43.0777 57.2878 43.2175C57.3791 43.3572 57.5216 43.4555 57.6847 43.4911C57.8478 43.5267 58.0183 43.4968 58.1595 43.4077C58.3007 43.3187 58.4013 43.1778 58.4395 43.0153L58.4397 43.0145C58.7172 41.7435 58.8578 40.4337 58.8578 39.1213C58.8578 34.2676 56.9676 29.7043 53.5355 26.2722C50.1035 22.8402 45.5403 20.95 40.6867 20.95C35.8331 20.95 31.2697 22.8402 27.8377 26.2722C24.4056 29.7043 22.5154 34.2676 22.5154 39.1213C22.5154 43.9749 24.4056 48.5382 27.8377 51.9703C31.2697 55.4023 35.833 57.2925 40.6866 57.2925C42.382 57.2925 44.0608 57.0591 45.6765 56.5987C45.8387 56.5525 45.9759 56.4437 46.0579 56.2963C46.1399 56.1489 46.16 55.975 46.1137 55.8128C46.0909 55.7325 46.0524 55.6574 46.0006 55.592C45.9487 55.5265 45.8845 55.4719 45.8115 55.4313C45.7385 55.3907 45.6582 55.3648 45.5753 55.3553C45.4923 55.3457 45.4083 55.3525 45.328 55.3754C43.8258 55.8035 42.2643 56.0205 40.6867 56.0205C36.1726 56.0205 31.929 54.2628 28.737 51.0708C25.5451 47.8789 23.7873 43.6353 23.7873 39.1213C23.7873 34.6072 25.5451 30.3636 28.737 27.1716C31.9289 23.9797 36.1726 22.2219 40.6867 22.2219C45.2008 22.2219 49.4444 23.9797 52.6363 27.1716C55.8283 30.3636 57.586 34.6072 57.586 39.1213C57.586 40.3426 57.4551 41.5612 57.197 42.7432Z" fill="#87C332" stroke="#87C332" stroke-width="0.1"/>
<path d="M87.52 50V33.2H89.488L100.6 47H99.568V33.2H101.968V50H100L88.888 36.2H89.92V50H87.52ZM112.109 50.144C110.829 50.144 109.693 49.864 108.701 49.304C107.709 48.744 106.925 47.976 106.349 47C105.773 46.008 105.485 44.888 105.485 43.64C105.485 42.376 105.773 41.256 106.349 40.28C106.925 39.304 107.709 38.544 108.701 38C109.693 37.44 110.829 37.16 112.109 37.16C113.373 37.16 114.501 37.44 115.493 38C116.501 38.544 117.285 39.304 117.845 40.28C118.421 41.24 118.709 42.36 118.709 43.64C118.709 44.904 118.421 46.024 117.845 47C117.285 47.976 116.501 48.744 115.493 49.304C114.501 49.864 113.373 50.144 112.109 50.144ZM112.109 48.128C112.925 48.128 113.653 47.944 114.293 47.576C114.949 47.208 115.461 46.688 115.829 46.016C116.197 45.328 116.381 44.536 116.381 43.64C116.381 42.728 116.197 41.944 115.829 41.288C115.461 40.616 114.949 40.096 114.293 39.728C113.653 39.36 112.925 39.176 112.109 39.176C111.293 39.176 110.565 39.36 109.925 39.728C109.285 40.096 108.773 40.616 108.389 41.288C108.005 41.944 107.813 42.728 107.813 43.64C107.813 44.536 108.005 45.328 108.389 46.016C108.773 46.688 109.285 47.208 109.925 47.576C110.565 47.944 111.293 48.128 112.109 48.128ZM128.676 50V33.2H135.756C137.548 33.2 139.124 33.552 140.484 34.256C141.86 34.96 142.924 35.944 143.676 37.208C144.444 38.472 144.828 39.936 144.828 41.6C144.828 43.264 144.444 44.728 143.676 45.992C142.924 47.256 141.86 48.24 140.484 48.944C139.124 49.648 137.548 50 135.756 50H128.676ZM131.076 47.912H135.612C137.004 47.912 138.204 47.648 139.212 47.12C140.236 46.592 141.028 45.856 141.588 44.912C142.148 43.952 142.428 42.848 142.428 41.6C142.428 40.336 142.148 39.232 141.588 38.288C141.028 37.344 140.236 36.608 139.212 36.08C138.204 35.552 137.004 35.288 135.612 35.288H131.076V47.912ZM153.616 50.144C152.336 50.144 151.2 49.864 150.208 49.304C149.216 48.744 148.432 47.976 147.856 47C147.28 46.008 146.992 44.888 146.992 43.64C146.992 42.376 147.28 41.256 147.856 40.28C148.432 39.304 149.216 38.544 150.208 38C151.2 37.44 152.336 37.16 153.616 37.16C154.88 37.16 156.008 37.44 157 38C158.008 38.544 158.792 39.304 159.352 40.28C159.928 41.24 160.216 42.36 160.216 43.64C160.216 44.904 159.928 46.024 159.352 47C158.792 47.976 158.008 48.744 157 49.304C156.008 49.864 154.88 50.144 153.616 50.144ZM153.616 48.128C154.432 48.128 155.16 47.944 155.8 47.576C156.456 47.208 156.968 46.688 157.336 46.016C157.704 45.328 157.888 44.536 157.888 43.64C157.888 42.728 157.704 41.944 157.336 41.288C156.968 40.616 156.456 40.096 155.8 39.728C155.16 39.36 154.432 39.176 153.616 39.176C152.8 39.176 152.072 39.36 151.432 39.728C150.792 40.096 150.28 40.616 149.896 41.288C149.512 41.944 149.32 42.728 149.32 43.64C149.32 44.536 149.512 45.328 149.896 46.016C150.28 46.688 150.792 47.208 151.432 47.576C152.072 47.944 152.8 48.128 153.616 48.128ZM165.739 50L161.011 37.28H163.195L167.395 48.8H166.363L170.731 37.28H172.675L176.947 48.8H175.939L180.235 37.28H182.299L177.547 50H175.339L171.331 39.488H172.003L167.947 50H165.739ZM191.429 37.16C192.469 37.16 193.381 37.36 194.165 37.76C194.965 38.16 195.589 38.768 196.037 39.584C196.485 40.4 196.709 41.432 196.709 42.68V50H194.405V42.944C194.405 41.712 194.101 40.784 193.493 40.16C192.901 39.536 192.061 39.224 190.973 39.224C190.157 39.224 189.445 39.384 188.837 39.704C188.229 40.024 187.757 40.496 187.421 41.12C187.101 41.744 186.941 42.52 186.941 43.448V50H184.637V37.28H186.845V40.712L186.485 39.8C186.901 38.968 187.541 38.32 188.405 37.856C189.269 37.392 190.277 37.16 191.429 37.16ZM211.09 50V35.288H205.33V33.2H219.226V35.288H213.466V50H211.09ZM221.504 50V37.28H223.808V50H221.504ZM222.656 34.832C222.208 34.832 221.832 34.688 221.528 34.4C221.24 34.112 221.096 33.76 221.096 33.344C221.096 32.912 221.24 32.552 221.528 32.264C221.832 31.976 222.208 31.832 222.656 31.832C223.104 31.832 223.472 31.976 223.76 32.264C224.064 32.536 224.216 32.88 224.216 33.296C224.216 33.728 224.072 34.096 223.784 34.4C223.496 34.688 223.12 34.832 222.656 34.832ZM244.119 37.16C245.143 37.16 246.047 37.36 246.831 37.76C247.615 38.16 248.223 38.768 248.655 39.584C249.103 40.4 249.327 41.432 249.327 42.68V50H247.023V42.944C247.023 41.712 246.735 40.784 246.159 40.16C245.583 39.536 244.775 39.224 243.735 39.224C242.967 39.224 242.295 39.384 241.719 39.704C241.143 40.024 240.695 40.496 240.375 41.12C240.071 41.744 239.919 42.52 239.919 43.448V50H237.615V42.944C237.615 41.712 237.327 40.784 236.751 40.16C236.191 39.536 235.383 39.224 234.327 39.224C233.575 39.224 232.911 39.384 232.335 39.704C231.759 40.024 231.311 40.496 230.991 41.12C230.671 41.744 230.511 42.52 230.511 43.448V50H228.207V37.28H230.415V40.664L230.055 39.8C230.455 38.968 231.071 38.32 231.903 37.856C232.735 37.392 233.703 37.16 234.807 37.16C236.023 37.16 237.071 37.464 237.951 38.072C238.831 38.664 239.407 39.568 239.679 40.784L238.743 40.4C239.127 39.424 239.799 38.64 240.759 38.048C241.719 37.456 242.839 37.16 244.119 37.16ZM259.231 50.144C257.871 50.144 256.671 49.864 255.631 49.304C254.607 48.744 253.807 47.976 253.231 47C252.671 46.024 252.391 44.904 252.391 43.64C252.391 42.376 252.663 41.256 253.207 40.28C253.767 39.304 254.527 38.544 255.487 38C256.463 37.44 257.559 37.16 258.775 37.16C260.007 37.16 261.095 37.432 262.039 37.976C262.983 38.52 263.719 39.288 264.247 40.28C264.791 41.256 265.063 42.4 265.063 43.712C265.063 43.808 265.055 43.92 265.039 44.048C265.039 44.176 265.031 44.296 265.015 44.408H254.191V42.752H263.815L262.879 43.328C262.895 42.512 262.727 41.784 262.375 41.144C262.023 40.504 261.535 40.008 260.911 39.656C260.303 39.288 259.591 39.104 258.775 39.104C257.975 39.104 257.263 39.288 256.639 39.656C256.015 40.008 255.527 40.512 255.175 41.168C254.823 41.808 254.647 42.544 254.647 43.376V43.76C254.647 44.608 254.839 45.368 255.223 46.04C255.623 46.696 256.175 47.208 256.879 47.576C257.583 47.944 258.391 48.128 259.303 48.128C260.055 48.128 260.735 48 261.343 47.744C261.967 47.488 262.511 47.104 262.975 46.592L264.247 48.08C263.671 48.752 262.951 49.264 262.087 49.616C261.239 49.968 260.287 50.144 259.231 50.144Z" fill="#333333"/>
<defs>
<filter id="filter0_d_65_2129" x="0" y="0" width="82" height="82" filterUnits="userSpaceOnUse" color-interpolation-filters="sRGB">
<feFlood flood-opacity="0" result="BackgroundImageFix"/>
<feColorMatrix in="SourceAlpha" type="matrix" values="0 0 0 0 0 0 0 0 0 0 0 0 0 0 0 0 0 0 127 0" result="hardAlpha"/>
<feOffset/>
<feGaussianBlur stdDeviation="6"/>
<feComposite in2="hardAlpha" operator="out"/>
<feColorMatrix type="matrix" values="0 0 0 0 0.438333 0 0 0 0 0.438333 0 0 0 0 0.438333 0 0 0 0.13 0"/>
<feBlend mode="normal" in2="BackgroundImageFix" result="effect1_dropShadow_65_2129"/>
<feBlend mode="normal" in="SourceGraphic" in2="effect1_dropShadow_65_2129" result="shape"/>
</filter>
</defs>
</svg>
