<svg width="74" height="74" viewBox="0 0 74 74" fill="none" xmlns="http://www.w3.org/2000/svg">
<g id="Frame">
<g id="Group">
<path id="Vector" d="M70.2168 25.034L65.9062 23.9563L63.5938 23.3782L61.2812 22.8001L58.9688 22.222V19.3776C63.228 18.7395 67.2213 16.9142 70.4908 14.1109L71.5638 13.1928C72.3778 12.4944 72.8438 11.4792 72.8438 10.4062C72.8438 9.33325 72.3778 8.31806 71.5626 7.61853L70.4908 6.70162C66.319 3.1265 60.9957 1.15625 55.5 1.15625C50.0043 1.15625 44.681 3.1265 40.5092 6.70162L39.4362 7.61969C38.6222 8.31806 38.1562 9.33325 38.1562 10.4062C38.1562 11.4792 38.6222 12.4944 39.4374 13.194L40.5081 14.1109C42.4224 15.7487 44.5931 17.0605 46.9333 17.9936L37.755 29.3318C37.1561 29.0538 36.5041 28.9086 35.8438 28.9062C34.8378 28.9062 33.9128 29.2369 33.1532 29.785L28.8531 26.2029C29.6428 24.9318 30.0617 23.4653 30.0625 21.9688C30.0625 17.5056 26.4307 13.875 21.9688 13.875C17.5068 13.875 13.875 17.5056 13.875 21.9688C13.8743 24.0846 14.7058 26.1159 16.1898 27.624L9.44656 36.4404C8.66653 36.0531 7.80837 35.849 6.9375 35.8438C3.74972 35.8438 1.15625 38.4372 1.15625 41.625C1.15625 44.8128 3.74972 47.4062 6.9375 47.4062C10.1253 47.4062 12.7188 44.8128 12.7188 41.625C12.7188 40.1762 12.1637 38.8662 11.2804 37.8498L18.0248 29.03C19.4968 29.8561 21.1913 30.1989 22.8687 30.0099C24.5461 29.8209 26.1218 29.1097 27.3731 27.9766L31.6755 31.5622C31.3783 32.1763 31.2222 32.849 31.2188 33.5312C31.2188 36.0819 33.2931 38.1562 35.8438 38.1562C38.3944 38.1562 40.4688 36.0819 40.4688 33.5312C40.4688 32.5022 40.1196 31.561 39.5495 30.7921L49.2667 18.7879C50.1708 19.0411 51.0947 19.2354 52.0312 19.3776V26.8585C50.9594 25.9844 49.6101 25.4375 48.1208 25.4375C47.6051 25.4384 47.0982 25.5708 46.648 25.8223C46.1977 26.0738 45.8192 26.436 45.548 26.8747C45.2769 27.3133 45.1222 27.8139 45.0985 28.3291C45.0749 28.8442 45.1831 29.3569 45.4129 29.8185L46.7946 32.5831C47.1958 33.3864 47.4052 34.2718 47.4062 35.1697V40.3485C47.4062 42.1788 48.0364 43.9757 49.1788 45.4048L51.7561 48.6261L49.7188 51.6809V70.5312H39.3125V51.9468C39.7541 51.8384 40.1658 51.632 40.5169 51.343C40.868 51.054 41.1497 50.6898 41.3411 50.2773C41.5325 49.8647 41.6287 49.4145 41.6226 48.9597C41.6165 48.505 41.5083 48.0575 41.3059 47.6502L38.5517 42.1407C38.0348 41.1105 36.9965 40.4688 35.8438 40.4688C34.691 40.4688 33.6527 41.1105 33.1358 42.1418L30.3816 47.6502C30.1795 48.0575 30.0714 48.505 30.0654 48.9597C30.0594 49.4143 30.1557 49.8645 30.347 50.277C30.5384 50.6894 30.82 51.0536 31.171 51.3427C31.522 51.6317 31.9335 51.8382 32.375 51.9468V70.5312H25.4375V43.8531C25.8791 43.7446 26.2908 43.5383 26.6419 43.2493C26.993 42.9603 27.2747 42.5961 27.4661 42.1835C27.6575 41.771 27.7537 41.3207 27.7476 40.866C27.7415 40.4113 27.6333 39.9637 27.4309 39.5565L24.6767 34.0481C24.1598 33.0167 23.1227 32.375 21.9688 32.375C20.8148 32.375 19.7777 33.0167 19.2608 34.0481L16.5066 39.5565C16.3045 39.9638 16.1964 40.4113 16.1904 40.8659C16.1844 41.3206 16.2807 41.7708 16.472 42.1832C16.6634 42.5957 16.945 42.9599 17.296 43.2489C17.647 43.538 18.0585 43.7444 18.5 43.8531V70.5312H10.4062V61.1968C10.8479 61.0884 11.2595 60.882 11.6106 60.593C11.9618 60.304 12.2435 59.9398 12.4348 59.5273C12.6262 59.1147 12.7224 58.6645 12.7163 58.2097C12.7102 57.755 12.602 57.3075 12.3996 56.9002L9.64544 51.3907C9.12859 50.3605 8.09028 49.7188 6.9375 49.7188C5.78472 49.7188 4.74641 50.3605 4.22956 51.3918L1.47538 56.9002C1.27322 57.3075 1.16516 57.755 1.15917 58.2097C1.15318 58.6643 1.24943 59.1145 1.44079 59.527C1.63215 59.9394 1.91374 60.3036 2.26475 60.5927C2.61576 60.8817 3.02723 61.0882 3.46875 61.1968V70.5312H1.15625V72.8438H72.8438V70.5312H70.5312V51.6809L68.4939 48.6249L71.0712 45.4036C72.2164 43.9673 72.8412 42.1854 72.8438 40.3485V28.3998C72.8443 27.6261 72.586 26.8744 72.11 26.2644C71.6339 25.6545 70.9675 25.2213 70.2168 25.034ZM6.9375 45.0938C5.02506 45.0938 3.46875 43.5374 3.46875 41.625C3.46875 39.7126 5.02506 38.1562 6.9375 38.1562C8.84994 38.1562 10.4062 39.7126 10.4062 41.625C10.4062 43.5374 8.84994 45.0938 6.9375 45.0938ZM21.9688 27.75C18.781 27.75 16.1875 25.1565 16.1875 21.9688C16.1875 18.781 18.781 16.1875 21.9688 16.1875C25.1565 16.1875 27.75 18.781 27.75 21.9688C27.75 25.1565 25.1565 27.75 21.9688 27.75ZM35.8438 35.8438C34.5684 35.8438 33.5312 34.8066 33.5312 33.5312C33.5312 32.2559 34.5684 31.2188 35.8438 31.2188C37.1191 31.2188 38.1562 32.2559 38.1562 33.5312C38.1562 34.8066 37.1191 35.8438 35.8438 35.8438ZM52.0312 12.7188V15.0278C51.3144 14.489 50.7324 13.7912 50.3311 12.9892C49.9298 12.1872 49.7202 11.303 49.7188 10.4062C49.7188 7.21847 52.3122 4.625 55.5 4.625C58.6878 4.625 61.2812 7.21847 61.2812 10.4062C61.28 11.303 61.0705 12.1873 60.6692 12.9893C60.2679 13.7913 59.6858 14.4891 58.9688 15.0278V12.7188C58.9688 10.8063 57.4124 9.25 55.5 9.25C53.5876 9.25 52.0312 10.8063 52.0312 12.7188ZM70.0572 9.37488C70.206 9.50223 70.3255 9.66027 70.4074 9.83815C70.4894 10.016 70.5319 10.2096 70.532 10.4054C70.5321 10.6013 70.4898 10.7948 70.4081 10.9728C70.3263 11.1508 70.207 11.3089 70.0583 11.4365L68.9853 12.3545C66.5521 14.4439 63.6646 15.9361 60.5528 16.7124C61.4991 15.9557 62.2635 14.9963 62.7898 13.9049C63.3161 12.8135 63.5908 11.6179 63.5938 10.4062C63.5934 9.19951 63.3228 8.00817 62.8018 6.91971C62.2808 5.83124 61.5226 4.87331 60.5829 4.11625C63.6818 4.89648 66.5584 6.38283 68.9877 8.45913L70.0572 9.37488ZM40.9428 11.4376C40.794 11.3103 40.6745 11.1522 40.5926 10.9743C40.5106 10.7965 40.4681 10.6029 40.468 10.4071C40.4679 10.2112 40.5102 10.0177 40.5919 9.8397C40.6737 9.66173 40.793 9.50355 40.9417 9.37603L42.0135 8.45797C44.4426 6.3816 47.3192 4.89559 50.4183 4.11625C49.4781 4.87297 48.7195 5.83081 48.1982 6.91933C47.677 8.00785 47.4064 9.19936 47.4062 10.4062C47.4092 11.6179 47.6839 12.8135 48.2102 13.9049C48.7365 14.9963 49.5009 15.9557 50.4472 16.7124C47.3349 15.9359 44.4469 14.4433 42.0135 12.3534L40.9428 11.4376ZM33.0896 49.7188C32.9678 49.7188 32.848 49.6877 32.7417 49.6284C32.6353 49.5691 32.5459 49.4836 32.4818 49.3801C32.4177 49.2765 32.3812 49.1583 32.3757 49.0367C32.3701 48.915 32.3958 48.794 32.4502 48.6851L35.2043 43.1778C35.4483 42.6876 36.2392 42.6887 36.482 43.1767L39.2362 48.6851C39.2905 48.7939 39.3162 48.9149 39.3107 49.0364C39.3052 49.1579 39.2688 49.2761 39.2048 49.3796C39.1409 49.4831 39.0516 49.5686 38.9454 49.628C38.8392 49.6873 38.7196 49.7186 38.5979 49.7188H37V70.5312H34.6875V49.7188H33.0896ZM19.2146 41.625C19.0928 41.625 18.973 41.5939 18.8667 41.5346C18.7603 41.4754 18.6709 41.3899 18.6068 41.2863C18.5427 41.1828 18.5062 41.0646 18.5007 40.9429C18.4951 40.8213 18.5208 40.7003 18.5752 40.5913L21.3293 35.0841C21.5733 34.595 22.3642 34.5962 22.607 35.0841L25.3612 40.5925C25.4153 40.7013 25.4407 40.8221 25.4351 40.9435C25.4295 41.0649 25.393 41.1828 25.3291 41.2862C25.2652 41.3895 25.176 41.4749 25.0699 41.5342C24.9639 41.5935 24.8444 41.6247 24.7229 41.625H23.125V70.5312H20.8125V41.625H19.2146ZM4.18331 58.9688C4.06155 58.9688 3.9418 58.9377 3.83543 58.8784C3.72906 58.8191 3.63961 58.7336 3.57555 58.6301C3.51149 58.5265 3.47496 58.4083 3.46943 58.2867C3.46389 58.165 3.48953 58.044 3.54391 57.9351L6.29809 52.4278C6.54206 51.9376 7.33294 51.9387 7.57575 52.4267L10.3299 57.9351C10.3843 58.0439 10.4099 58.1649 10.4044 58.2864C10.3989 58.4079 10.3625 58.5261 10.2986 58.6296C10.2347 58.7331 10.1454 58.8186 10.0392 58.878C9.93296 58.9373 9.81336 58.9686 9.69169 58.9688H8.09375V70.5312H5.78125V58.9688H4.18331ZM52.0312 70.5312V52.3816L53.8061 49.7188H66.4439L68.2188 52.3816V70.5312H52.0312ZM70.5312 40.3485C70.5312 41.6562 70.0815 42.9385 69.264 43.9595L66.5063 47.4062H53.7437L50.986 43.9595C50.1672 42.9339 49.7205 41.6609 49.7188 40.3485V35.1697C49.7171 33.9131 49.4247 32.6741 48.8643 31.5494L47.4826 28.7848C47.428 28.6759 47.4021 28.5549 47.4075 28.4332C47.4128 28.3115 47.4492 28.1931 47.5131 28.0895C47.5771 27.9858 47.6665 27.9001 47.7729 27.8407C47.8792 27.7813 47.999 27.7501 48.1208 27.75C49.1576 27.7512 50.1515 28.1636 50.8846 28.8967C51.6176 29.6298 52.03 30.6237 52.0312 31.6604V37H54.3438V12.7188C54.3571 12.421 54.4847 12.1399 54.7001 11.934C54.9155 11.728 55.202 11.6131 55.5 11.6131C55.798 11.6131 56.0845 11.728 56.2999 11.934C56.5153 12.1399 56.6429 12.421 56.6562 12.7188V37H58.9688V24.6062L61.2812 25.1843V37H63.5938V25.7624L65.9062 26.3405V37H68.2188V26.9187L69.6548 27.2782C70.1705 27.4066 70.5312 27.8679 70.5312 28.3998V40.3485Z" fill="#87C332"/>
<path id="Vector_2" d="M21.9688 18.5C20.0563 18.5 18.5 20.0563 18.5 21.9688C18.5 23.8812 20.0563 25.4375 21.9688 25.4375C23.8812 25.4375 25.4375 23.8812 25.4375 21.9688C25.4375 20.0563 23.8812 18.5 21.9688 18.5ZM21.9688 23.125C21.671 23.1117 21.3899 22.984 21.184 22.7687C20.978 22.5533 20.8631 22.2668 20.8631 21.9688C20.8631 21.6707 20.978 21.3842 21.184 21.1688C21.3899 20.9535 21.671 20.8258 21.9688 20.8125C22.2665 20.8258 22.5476 20.9535 22.7535 21.1688C22.9595 21.3842 23.0744 21.6707 23.0744 21.9688C23.0744 22.2668 22.9595 22.5533 22.7535 22.7687C22.5476 22.984 22.2665 23.1117 21.9688 23.125Z" fill="#87C332"/>
</g>
</g>
</svg>
